<svg width="55" height="55" viewBox="0 0 55 55" fill="none" xmlns="http://www.w3.org/2000/svg">
<path d="M27.9511 0.0389407C22.6017 0.0389407 17.3724 1.62522 12.9246 4.59718C8.4767 7.56914 5.01002 11.7933 2.9629 16.7355C0.915772 21.6777 0.380151 27.1159 1.42377 32.3625C2.46738 37.6092 5.04336 42.4285 8.82595 46.2111C12.6085 49.9936 17.4279 52.5696 22.6745 53.6132C27.9211 54.6569 33.3593 54.1212 38.3015 52.0741C43.2437 50.027 47.4679 46.5603 50.4398 42.1124C53.4118 37.6646 54.9981 32.4353 54.9981 27.0859C54.9986 23.5339 54.2994 20.0166 52.9403 16.7349C51.5813 13.4532 49.589 10.4713 47.0774 7.95965C44.5657 5.448 41.5839 3.45575 38.3021 2.0967C35.0204 0.737648 31.5031 0.0384153 27.9511 0.0389407ZM39.7191 29.1639H30.0291V38.8539C30.0171 39.3978 29.7927 39.9154 29.4038 40.2959C29.015 40.6763 28.4926 40.8893 27.9486 40.8893C27.4045 40.8893 26.8822 40.6763 26.4933 40.2959C26.1044 39.9154 25.88 39.3978 25.8681 38.8539V29.1639H16.1831C15.6392 29.152 15.1216 28.9276 14.7412 28.5387C14.3607 28.1498 14.1477 27.6275 14.1477 27.0834C14.1477 26.5394 14.3607 26.017 14.7412 25.6282C15.1216 25.2393 15.6392 25.0149 16.1831 25.0029H25.8701V15.3179C25.882 14.7741 26.1064 14.2565 26.4953 13.876C26.8842 13.4956 27.4065 13.2826 27.9506 13.2826C28.4946 13.2826 29.017 13.4956 29.4058 13.876C29.7947 14.2565 30.0191 14.7741 30.0311 15.3179V25.0049H39.7191C39.9961 24.9989 40.2716 25.0482 40.5293 25.15C40.7871 25.2518 41.0219 25.4041 41.22 25.5979C41.418 25.7917 41.5754 26.0231 41.6829 26.2786C41.7903 26.534 41.8457 26.8083 41.8457 27.0854C41.8457 27.3626 41.7903 27.6369 41.6829 27.8923C41.5754 28.1478 41.418 28.3792 41.22 28.573C41.0219 28.7668 40.7871 28.919 40.5293 29.0209C40.2716 29.1227 39.9961 29.172 39.7191 29.1659V29.1639Z" fill="#4EA7F2"/>
</svg>
