<svg width="15" height="18" viewBox="0 0 15 18" fill="none" xmlns="http://www.w3.org/2000/svg">
<path d="M4.1523 0.859009C3.30265 0.928753 2.51478 1.33076 1.95969 1.97778C1.40459 2.6248 1.12705 3.46463 1.1873 4.31501C1.15291 5.04665 1.35634 5.76976 1.76715 6.37615C2.17797 6.98255 2.77408 7.43963 3.4663 7.67901L2.9763 15.673C2.96717 15.7999 2.98444 15.9272 3.02701 16.047C3.06958 16.1669 3.13654 16.2766 3.22365 16.3692C3.31075 16.4619 3.41613 16.5355 3.53311 16.5853C3.65009 16.6352 3.77614 16.6603 3.9033 16.659H4.3973C4.52447 16.6603 4.65052 16.6352 4.7675 16.5853C4.88448 16.5355 4.98985 16.4619 5.07696 16.3692C5.16407 16.2766 5.23102 16.1669 5.27359 16.047C5.31617 15.9272 5.33343 15.7999 5.3243 15.673L4.8323 7.67901C5.52453 7.43963 6.12064 6.98255 6.53145 6.37615C6.94227 5.76976 7.14569 5.04665 7.1113 4.31501C7.17162 3.46559 6.8949 2.6266 6.34106 1.97975C5.78723 1.33289 5.00088 0.930244 4.1523 0.859009V0.859009ZM14.1093 0.859009L13.2863 5.79601H12.6693L12.2523 0.859009H11.8413L11.4323 5.79601H10.8153L9.9923 0.859009H9.5813V7.27701C9.5813 7.40803 9.63335 7.53368 9.72599 7.62632C9.81864 7.71896 9.94429 7.77101 10.0753 7.77101H11.3613L10.8763 15.671C10.8672 15.7979 10.8844 15.9252 10.927 16.045C10.9696 16.1649 11.0365 16.2746 11.1236 16.3672C11.2108 16.4599 11.3161 16.5335 11.4331 16.5833C11.5501 16.6332 11.6761 16.6583 11.8033 16.657H12.2973C12.4245 16.6583 12.5505 16.6332 12.6675 16.5833C12.7845 16.5335 12.8899 16.4599 12.977 16.3672C13.0641 16.2746 13.131 16.1649 13.1736 16.045C13.2162 15.9252 13.2334 15.7979 13.2243 15.671L12.7393 7.77101H14.0253C14.1563 7.77101 14.282 7.71896 14.3746 7.62632C14.4673 7.53368 14.5193 7.40803 14.5193 7.27701V0.859009H14.1093Z" stroke="#828282" stroke-width="0.7"/>
</svg>
