<svg width="112" height="107" viewBox="0 0 112 107" fill="none" xmlns="http://www.w3.org/2000/svg">
<path d="M83.1991 4.456H63.9761V23.08H83.1991V4.456Z" fill="#EBEBEB"/>
<path d="M81.0029 6.584H66.1729V20.952H81.0029V6.584Z" fill="white"/>
<path d="M66.7519 6.584H66.1729V20.952H66.7519V6.584Z" fill="#DBDBDB"/>
<path d="M83.7782 4.456H83.1992V23.08H83.7782V4.456Z" fill="#DBDBDB"/>
<path d="M70.3489 15.577C71.7569 18.683 77.1739 18.112 77.5059 14.286C77.5592 13.7447 77.4984 13.1983 77.3274 12.682C77.1565 12.1656 76.8793 11.6909 76.5136 11.2883C76.148 10.8857 75.702 10.5642 75.2044 10.3445C74.7068 10.1249 74.1688 10.0119 73.6249 10.013H73.6139C72.9807 10.0586 72.3679 10.2575 71.8287 10.5926C71.2894 10.9277 70.8397 11.3889 70.5184 11.9365C70.1971 12.4841 70.0137 13.1016 69.9842 13.7358C69.9547 14.37 70.0798 15.0019 70.3489 15.577Z" fill="#EBEBEB"/>
<path d="M70.0901 9.236C70.3953 9.26543 70.6795 9.40431 70.8902 9.627C71.0205 9.73221 71.1223 9.86848 71.1862 10.0233C71.2502 10.1781 71.2742 10.3465 71.2562 10.513C71.2332 10.59 71.1811 10.576 71.0981 10.573C70.8345 10.533 70.5936 10.4009 70.4182 10.2C70.2193 10.019 70.0397 9.81791 69.8821 9.6C69.8613 9.5632 69.8505 9.52164 69.8506 9.47938C69.8507 9.43711 69.8618 9.3956 69.8827 9.3589C69.9037 9.32221 69.9339 9.29159 69.9702 9.27004C70.0066 9.2485 70.0479 9.23677 70.0901 9.236Z" fill="#EBEBEB"/>
<path d="M72.3048 8.075C72.5779 8.25366 72.7755 8.52675 72.8598 8.842C72.9217 8.97287 72.9511 9.11675 72.9456 9.26142C72.94 9.40608 72.8996 9.54727 72.8278 9.673C72.8079 9.69238 72.7822 9.70479 72.7546 9.70839C72.7271 9.712 72.6991 9.7066 72.6748 9.693C72.4518 9.587 72.3518 9.262 72.2648 9.049C72.1382 8.79093 72.0647 8.51002 72.0488 8.22299C72.0495 8.19329 72.0577 8.16425 72.0729 8.13868C72.088 8.11311 72.1095 8.09186 72.1352 8.07699C72.1609 8.06212 72.19 8.05412 72.2198 8.05377C72.2495 8.05343 72.2788 8.06074 72.3048 8.075Z" fill="#EBEBEB"/>
<path d="M68.7431 10.925C69.0029 10.85 69.2807 10.8672 69.5293 10.9737C69.7779 11.0801 69.982 11.2692 70.1071 11.509C70.1171 11.5462 70.1122 11.5859 70.0936 11.6197C70.0749 11.6534 70.044 11.6786 70.0071 11.69C69.8127 11.7391 69.6075 11.7218 69.4241 11.641C69.1981 11.572 68.9661 11.556 68.7461 11.47C68.5071 11.377 68.4451 10.99 68.7431 10.925Z" fill="#EBEBEB"/>
<path d="M74.7381 8.623C74.8456 8.40039 74.9981 8.20254 75.1861 8.04201C75.2761 7.95201 75.3981 8.042 75.3801 8.164C75.3481 8.385 75.3541 8.615 75.3171 8.839C75.3008 9.06071 75.2442 9.27759 75.1501 9.479C75.1224 9.53013 75.0797 9.57156 75.0277 9.59773C74.9758 9.62389 74.9171 9.63354 74.8595 9.62537C74.8019 9.61721 74.7482 9.59163 74.7056 9.55206C74.663 9.51249 74.6335 9.46083 74.6211 9.40401C74.5781 9.13784 74.619 8.8649 74.7381 8.623Z" fill="#EBEBEB"/>
<path d="M68.609 12.832C68.9455 12.8294 69.2706 12.9532 69.52 13.179C69.5379 13.1973 69.5513 13.2193 69.5594 13.2435C69.5675 13.2677 69.57 13.2934 69.5667 13.3187C69.5635 13.344 69.5545 13.3683 69.5405 13.3896C69.5265 13.411 69.5079 13.4289 69.486 13.442C69.1924 13.5648 68.8682 13.5948 68.557 13.528C68.331 13.508 67.822 13.535 67.846 13.184C67.87 12.833 68.357 12.81 68.609 12.832Z" fill="#EBEBEB"/>
<path d="M68.3112 15.606C68.4418 15.3932 68.6258 15.2182 68.8448 15.0984C69.0639 14.9786 69.3105 14.9182 69.5602 14.923C69.5917 14.9237 69.6226 14.9325 69.6497 14.9486C69.6768 14.9647 69.6993 14.9875 69.715 15.0149C69.7307 15.0423 69.7391 15.0733 69.7393 15.1048C69.7395 15.1364 69.7315 15.1674 69.7162 15.195C69.5744 15.3977 69.3869 15.5641 69.1689 15.6809C68.9509 15.7976 68.7084 15.8614 68.4612 15.867C68.4308 15.8666 68.4011 15.8583 68.3749 15.8429C68.3487 15.8275 68.327 15.8055 68.3118 15.7792C68.2967 15.7529 68.2887 15.7231 68.2886 15.6927C68.2885 15.6623 68.2962 15.6325 68.3112 15.606Z" fill="#EBEBEB"/>
<path d="M69.1892 17.989C69.2957 17.721 69.4769 17.4891 69.7112 17.321C69.9392 17.1039 70.2281 16.9615 70.5392 16.913C70.6392 16.901 70.6902 17.027 70.6602 17.124C70.5987 17.2718 70.5215 17.4126 70.4302 17.544C70.345 17.6832 70.2387 17.8084 70.1152 17.915C70.0128 18.0127 69.8909 18.0875 69.7575 18.1346C69.6241 18.1816 69.4822 18.1998 69.3412 18.188C69.3171 18.1877 69.2933 18.1819 69.2718 18.1711C69.2502 18.1603 69.2314 18.1447 69.2167 18.1255C69.2021 18.1064 69.192 18.0841 69.1872 18.0604C69.1824 18.0368 69.1831 18.0124 69.1892 17.989Z" fill="#EBEBEB"/>
<path d="M72.271 17.873C72.2835 17.853 72.3009 17.8364 72.3215 17.8249C72.3422 17.8135 72.3654 17.8075 72.389 17.8075C72.4126 17.8075 72.4358 17.8135 72.4565 17.8249C72.4771 17.8364 72.4945 17.853 72.507 17.873C72.6167 18.1102 72.6366 18.3792 72.563 18.63C72.5342 18.9378 72.4065 19.2279 72.199 19.457C72.1649 19.4899 72.1229 19.5134 72.0771 19.5253C72.0312 19.5373 71.9831 19.5372 71.9373 19.5251C71.8915 19.5131 71.8496 19.4894 71.8155 19.4565C71.7815 19.4236 71.7565 19.3824 71.743 19.337C71.7222 19.0695 71.7586 18.8006 71.8496 18.5482C71.9406 18.2958 72.0843 18.0657 72.271 17.873Z" fill="#EBEBEB"/>
<path d="M74.792 17.794C74.8059 17.7707 74.8249 17.751 74.8475 17.7361C74.8702 17.7213 74.8959 17.7117 74.9228 17.7083C74.9496 17.7048 74.9769 17.7075 75.0026 17.7161C75.0283 17.7247 75.0517 17.739 75.071 17.758C75.2722 17.97 75.398 18.2424 75.429 18.533C75.4994 18.8079 75.4904 19.0971 75.403 19.367C75.3826 19.4008 75.3548 19.4296 75.3217 19.4512C75.2886 19.4729 75.251 19.4867 75.2118 19.4918C75.1726 19.4969 75.1327 19.4931 75.0952 19.4807C75.0577 19.4682 75.0234 19.4475 74.995 19.42C74.8195 19.1923 74.7111 18.92 74.682 18.634C74.614 18.35 74.6532 18.0509 74.792 17.794Z" fill="#EBEBEB"/>
<path d="M76.949 16.56C77.0586 16.5686 77.1656 16.5971 77.265 16.644C77.3702 16.7096 77.4705 16.7828 77.565 16.863C77.7217 17.0038 77.8888 17.1325 78.065 17.248C78.1038 17.2724 78.1337 17.3086 78.1504 17.3513C78.167 17.394 78.1696 17.4408 78.1576 17.4851C78.1456 17.5293 78.1197 17.5685 78.0838 17.5969C78.0479 17.6254 78.0038 17.6415 77.958 17.643C77.8177 17.6635 77.6747 17.6558 77.5373 17.6204C77.4 17.585 77.271 17.5227 77.158 17.437C77.0351 17.3474 76.9305 17.235 76.85 17.106C76.7856 16.9828 76.7549 16.8449 76.761 16.706C76.7607 16.6829 76.7657 16.6601 76.7757 16.6393C76.7857 16.6185 76.8004 16.6003 76.8186 16.5861C76.8368 16.572 76.8581 16.5622 76.8807 16.5577C76.9034 16.5532 76.9268 16.554 76.949 16.56Z" fill="#EBEBEB"/>
<path d="M78.0788 14.487C78.2362 14.4489 78.4002 14.4472 78.5584 14.4818C78.7165 14.5165 78.8648 14.5866 78.9918 14.687C79.1698 14.827 79.3988 15.107 79.3118 15.349C79.3046 15.3753 79.2907 15.3993 79.2714 15.4186C79.2521 15.4379 79.2281 15.4518 79.2018 15.459C78.9954 15.4597 78.792 15.4092 78.6098 15.312C78.337 15.2596 78.089 15.1191 77.9038 14.912C77.8835 14.8732 77.8719 14.8304 77.8699 14.7866C77.8679 14.7429 77.8755 14.6992 77.8922 14.6587C77.9089 14.6182 77.9343 14.5818 77.9665 14.5522C77.9987 14.5225 78.0371 14.5003 78.0788 14.487Z" fill="#EBEBEB"/>
<path d="M77.7902 12.381C77.8935 12.2488 78.0433 12.1608 78.2091 12.135C78.4719 12.0658 78.7392 12.0153 79.0092 11.984C79.1522 11.962 79.3262 12.111 79.2212 12.26C79.0783 12.4904 78.8772 12.6791 78.6381 12.807C78.3821 12.929 77.9951 13.057 77.7971 12.776C77.7575 12.7181 77.7357 12.6498 77.7344 12.5795C77.7332 12.5093 77.7526 12.4403 77.7902 12.381Z" fill="#EBEBEB"/>
<path d="M76.4492 10.435C76.5412 9.927 77.0811 9.698 77.5131 9.564C77.6931 9.508 77.7852 9.731 77.6832 9.855C77.5672 9.996 77.4641 10.146 77.3491 10.286C77.2341 10.426 77.1732 10.564 77.0802 10.7C77.0363 10.7693 76.9693 10.8209 76.891 10.8455C76.8127 10.8701 76.7282 10.8661 76.6526 10.8344C76.5769 10.8026 76.515 10.745 76.4777 10.6719C76.4405 10.5988 76.4304 10.5149 76.4492 10.435Z" fill="#EBEBEB"/>
<path d="M72.6244 12.674C72.6244 12.816 72.5094 12.54 72.3674 12.54C72.2254 12.54 72.1104 12.816 72.1104 12.674C72.1104 12.6058 72.1374 12.5405 72.1856 12.4923C72.2338 12.4441 72.2992 12.417 72.3674 12.417C72.4355 12.417 72.5009 12.4441 72.5491 12.4923C72.5973 12.5405 72.6244 12.6058 72.6244 12.674Z" fill="#A6A6A6"/>
<path d="M75.306 12.674C75.306 12.816 75.191 12.544 75.049 12.544C74.907 12.544 74.792 12.817 74.792 12.674C74.792 12.6057 74.8191 12.5402 74.8674 12.4919C74.9157 12.4436 74.9812 12.4165 75.0495 12.4165C75.1178 12.4165 75.1833 12.4436 75.2316 12.4919C75.2799 12.5402 75.307 12.6057 75.307 12.674H75.306Z" fill="#A6A6A6"/>
<path d="M71.8812 13.355C71.8812 13.476 71.8453 13.5944 71.7781 13.695C71.7108 13.7957 71.6153 13.8741 71.5034 13.9204C71.3916 13.9667 71.2686 13.9789 71.1498 13.9552C71.0311 13.9316 70.9221 13.8733 70.8365 13.7877C70.7509 13.7022 70.6926 13.5931 70.669 13.4744C70.6454 13.3557 70.6575 13.2326 70.7038 13.1208C70.7502 13.009 70.8286 12.9134 70.9292 12.8461C71.0299 12.7789 71.1482 12.743 71.2692 12.743C71.4315 12.743 71.5872 12.8075 71.702 12.9223C71.8167 13.037 71.8812 13.1927 71.8812 13.355Z" fill="white"/>
<path d="M76.8671 13.355C76.8671 13.476 76.8312 13.5944 76.7639 13.695C76.6967 13.7957 76.6011 13.8741 76.4893 13.9204C76.3774 13.9667 76.2544 13.9789 76.1357 13.9552C76.0169 13.9316 75.9079 13.8733 75.8223 13.7877C75.7367 13.7022 75.6784 13.5931 75.6548 13.4744C75.6312 13.3557 75.6433 13.2326 75.6896 13.1208C75.736 13.009 75.8144 12.9134 75.9151 12.8461C76.0157 12.7789 76.134 12.743 76.2551 12.743C76.4174 12.743 76.573 12.8075 76.6878 12.9223C76.8026 13.037 76.8671 13.1927 76.8671 13.355Z" fill="white"/>
<path d="M73.2121 12.754C73.2617 12.8428 73.3356 12.9156 73.4251 12.964C73.5087 13.0018 73.5993 13.0214 73.6911 13.0214C73.7828 13.0214 73.8735 13.0018 73.9571 12.964C74.0458 12.9147 74.1197 12.8425 74.1711 12.755C74.1763 12.8155 74.1671 12.8763 74.1441 12.9325C74.1211 12.9886 74.0851 13.0385 74.0391 13.078C73.9419 13.1596 73.8179 13.2023 73.6911 13.198C73.5649 13.1996 73.4423 13.1564 73.3451 13.076C73.2992 13.0365 73.2633 12.9868 73.2402 12.9309C73.2171 12.8749 73.2074 12.8143 73.2121 12.754Z" fill="#A6A6A6"/>
<path d="M107.667 22.947H88.4438V41.571H107.667V22.947Z" fill="#EBEBEB"/>
<path d="M105.471 25.075H90.6406V39.443H105.471V25.075Z" fill="white"/>
<path d="M91.2196 25.075H90.6406V39.443H91.2196V25.075Z" fill="#DBDBDB"/>
<path d="M108.246 22.947H107.667V41.571H108.246V22.947Z" fill="#DBDBDB"/>
<path d="M103.642 32.937C103.252 31.9581 102.623 31.0924 101.813 30.419C101.335 30.0068 100.775 29.7016 100.169 29.5238C99.5641 29.346 98.9277 29.2997 98.3029 29.388C97.9203 29.44 97.5455 29.5387 97.1869 29.682C96.4444 30.0203 95.7874 30.521 95.2643 31.1472C94.7413 31.7734 94.3656 32.5091 94.1649 33.3C93.9713 33.2735 93.7809 33.2269 93.5969 33.161C93.5129 33.076 94.4399 29.111 98.1599 28.596C98.3555 28.5688 98.5525 28.5531 98.7499 28.549C99.7691 28.5284 100.768 28.8351 101.6 29.424C102.724 30.2135 103.576 31.3313 104.039 32.624C104.058 32.717 103.886 32.831 103.642 32.937Z" fill="#A6A6A6"/>
<path d="M103.642 32.938C103.47 33.0109 103.294 33.074 103.115 33.127C102.758 32.3101 102.216 31.5876 101.531 31.017C101.107 30.6523 100.61 30.3825 100.073 30.2254C99.5361 30.0683 98.9719 30.0276 98.4181 30.106C98.0147 30.1605 97.6215 30.274 97.2511 30.443C96.6592 30.7438 96.1352 31.1626 95.7113 31.6735C95.2873 32.1845 94.9725 32.7768 94.7861 33.414C94.5671 33.376 94.3511 33.338 94.1631 33.301C94.3638 32.51 94.7397 31.7743 95.2629 31.148C95.7862 30.5218 96.4434 30.0211 97.1861 29.683C97.5447 29.5397 97.9195 29.441 98.3021 29.389C98.9268 29.3007 99.5632 29.347 100.169 29.5248C100.774 29.7026 101.334 30.0078 101.812 30.42C102.623 31.0933 103.252 31.959 103.642 32.938Z" fill="#C7C7C7"/>
<path d="M103.115 33.126C102.912 33.188 102.705 33.2362 102.495 33.27C102.136 32.5528 101.607 31.9348 100.953 31.47C100.252 30.975 99.386 30.7704 98.5371 30.899C98.2789 30.9355 98.0254 30.9999 97.7811 31.091C97.2501 31.3126 96.7726 31.6451 96.3806 32.0663C95.9886 32.4874 95.6911 32.9875 95.5081 33.533C95.2911 33.499 95.0371 33.457 94.7871 33.414C94.9735 32.7768 95.2884 32.1845 95.7123 31.6735C96.1362 31.1626 96.6603 30.7438 97.2521 30.443C97.6225 30.274 98.0157 30.1605 98.4191 30.106C98.9729 30.0276 99.5371 30.0683 100.074 30.2254C100.611 30.3825 101.108 30.6524 101.532 31.017C102.216 31.5874 102.758 32.3095 103.115 33.126Z" fill="#DBDBDB"/>
<path d="M102.495 33.271C102.429 33.2889 102.36 33.2889 102.295 33.271C101.777 32.613 101.137 32.0618 100.41 31.648C99.8115 31.3317 99.1138 31.26 98.4638 31.448C96.8788 31.894 96.3188 33.621 96.1098 33.62C96.0658 33.62 95.8258 33.586 95.5098 33.536C95.6928 32.9905 95.9903 32.4904 96.3823 32.0693C96.7743 31.6481 97.2518 31.3156 97.7828 31.094C98.0271 31.0029 98.2806 30.9385 98.5388 30.902C99.3876 30.7734 100.253 30.978 100.955 31.473C101.607 31.9375 102.136 32.5548 102.495 33.271Z" fill="#EBEBEB"/>
<path d="M104.783 33.575C104.793 33.7535 104.767 33.9321 104.705 34.1C104.593 34.4119 104.366 34.6691 104.07 34.819C103.728 34.5712 103.31 34.4525 102.889 34.484C102.468 34.5154 102.071 34.6951 101.77 34.991C101.598 34.9951 101.428 34.9474 101.283 34.854C101.138 34.7605 101.025 34.6257 100.957 34.467C100.957 34.467 100.457 34.337 100.457 33.943C100.45 33.419 101.043 33.45 101.043 33.45C101.043 33.45 100.943 32.528 101.628 32.292C101.837 32.2156 102.065 32.211 102.277 32.279C102.455 32.3373 102.615 32.4406 102.741 32.579C102.787 32.3848 102.894 32.2101 103.045 32.0804C103.197 31.9506 103.386 31.8724 103.585 31.857C104.12 31.838 104.435 32.457 104.435 32.457C104.558 32.4379 104.684 32.4583 104.795 32.5153C104.906 32.5722 104.996 32.6628 105.052 32.774C105.107 32.918 105.11 33.0765 105.061 33.2225C105.012 33.3685 104.914 33.4931 104.783 33.575Z" fill="#EBEBEB"/>
<path d="M92.613 32.99C92.6565 32.8089 92.7369 32.6387 92.849 32.49C93.0544 32.2155 93.3571 32.0302 93.695 31.972C93.9578 32.3212 94.3359 32.566 94.7621 32.6629C95.1883 32.7597 95.635 32.7024 96.023 32.501C96.1947 32.5493 96.348 32.648 96.463 32.7844C96.578 32.9208 96.6494 33.0886 96.668 33.266C96.668 33.266 97.1209 33.546 97.0069 33.937C96.8549 34.457 96.2779 34.247 96.2779 34.247C96.2779 34.247 96.093 35.188 95.348 35.213C95.1185 35.225 94.8916 35.1602 94.703 35.029C94.5445 34.9172 94.4177 34.7663 94.335 34.591C94.2305 34.7689 94.0722 34.909 93.8829 34.9911C93.6937 35.0732 93.4832 35.0932 93.2819 35.048C92.7469 34.904 92.6229 34.2 92.6229 34.2C92.4956 34.1814 92.3775 34.123 92.2853 34.0332C92.1932 33.9434 92.1318 33.8268 92.1099 33.7C92.0993 33.5419 92.1436 33.3849 92.2352 33.2555C92.3268 33.1262 92.4603 33.0324 92.613 32.99Z" fill="#EBEBEB"/>
<path d="M97.6771 30.506C97.6771 30.648 97.5621 30.372 97.4201 30.372C97.2781 30.372 97.1631 30.648 97.1631 30.506C97.1631 30.4377 97.1902 30.3722 97.2385 30.3239C97.2868 30.2756 97.3523 30.2485 97.4206 30.2485C97.4889 30.2485 97.5544 30.2756 97.6027 30.3239C97.651 30.3722 97.6781 30.4377 97.6781 30.506H97.6771Z" fill="#A6A6A6"/>
<path d="M100.357 30.506C100.357 30.648 100.242 30.375 100.1 30.375C99.9578 30.375 99.8428 30.648 99.8428 30.506C99.8428 30.4378 99.8699 30.3725 99.9181 30.3243C99.9663 30.2761 100.032 30.249 100.1 30.249C100.168 30.249 100.233 30.2761 100.281 30.3243C100.33 30.3725 100.357 30.4378 100.357 30.506Z" fill="#A6A6A6"/>
<path d="M96.934 31.187C96.934 31.308 96.8981 31.4264 96.8308 31.527C96.7636 31.6277 96.668 31.7061 96.5562 31.7524C96.4443 31.7987 96.3213 31.8108 96.2026 31.7872C96.0839 31.7636 95.9748 31.7053 95.8892 31.6198C95.8036 31.5342 95.7453 31.4251 95.7217 31.3064C95.6981 31.1877 95.7102 31.0646 95.7565 30.9528C95.8029 30.841 95.8813 30.7454 95.9819 30.6781C96.0826 30.6109 96.2009 30.575 96.322 30.575C96.4023 30.575 96.4819 30.5908 96.5562 30.6216C96.6304 30.6523 96.6979 30.6974 96.7547 30.7542C96.8115 30.8111 96.8566 30.8785 96.8874 30.9528C96.9181 31.027 96.934 31.1066 96.934 31.187Z" fill="white"/>
<path d="M101.92 31.187C101.92 31.308 101.884 31.4264 101.817 31.527C101.749 31.6277 101.654 31.7061 101.542 31.7524C101.43 31.7987 101.307 31.8108 101.188 31.7872C101.07 31.7636 100.961 31.7053 100.875 31.6198C100.789 31.5342 100.731 31.4251 100.708 31.3064C100.684 31.1877 100.696 31.0646 100.742 30.9528C100.789 30.841 100.867 30.7454 100.968 30.6781C101.068 30.6109 101.187 30.575 101.308 30.575C101.388 30.575 101.468 30.5908 101.542 30.6216C101.616 30.6523 101.684 30.6974 101.741 30.7542C101.797 30.8111 101.842 30.8785 101.873 30.9528C101.904 31.027 101.92 31.1066 101.92 31.187Z" fill="white"/>
<path d="M98.2628 30.586C98.3125 30.6747 98.3864 30.7475 98.4758 30.796C98.5594 30.8338 98.6501 30.8533 98.7418 30.8533C98.8335 30.8533 98.9242 30.8338 99.0078 30.796C99.0965 30.7467 99.1704 30.6745 99.2218 30.587C99.227 30.6475 99.2177 30.7082 99.1947 30.7644C99.1718 30.8206 99.1358 30.8705 99.0898 30.91C98.9926 30.9916 98.8686 31.0343 98.7418 31.03C98.6161 31.0317 98.4939 30.9888 98.3968 30.909C98.3507 30.8694 98.3146 30.8196 98.2914 30.7635C98.2681 30.7074 98.2583 30.6466 98.2628 30.586Z" fill="#A6A6A6"/>
<path d="M13.4721 60.669H6.53906V63.599H13.4721V60.669Z" stroke="#EBEBEB" stroke-miterlimit="10"/>
<path d="M9.60488 64.363H2.67188V67.293H9.60488V64.363Z" stroke="#EBEBEB" stroke-miterlimit="10"/>
<path d="M85.7269 29.974H78.7939V32.904H85.7269V29.974Z" stroke="#EBEBEB" stroke-miterlimit="10"/>
<path d="M81.8588 33.668H74.9258V36.598H81.8588V33.668Z" stroke="#EBEBEB" stroke-miterlimit="10"/>
<path d="M109.309 64.363H102.376V67.293H109.309V64.363Z" stroke="#EBEBEB" stroke-miterlimit="10"/>
<path d="M105.442 1.932H98.5088V4.862H105.442V1.932Z" stroke="#EBEBEB" stroke-miterlimit="10"/>
<path d="M109.309 5.626H102.376V8.556H109.309V5.626Z" stroke="#EBEBEB" stroke-miterlimit="10"/>
<path d="M9.60488 1.932H2.67188V4.862H9.60488V1.932Z" stroke="#EBEBEB" stroke-miterlimit="10"/>
<path d="M63.3461 56.734H56.4131V59.664H63.3461V56.734Z" stroke="#EBEBEB" stroke-miterlimit="10"/>
<path d="M16.896 10.589C16.896 10.5747 16.8903 10.5609 16.8802 10.5508C16.8701 10.5407 16.8563 10.535 16.842 10.535C16.8277 10.535 16.814 10.5407 16.8038 10.5508C16.7937 10.5609 16.788 10.5747 16.788 10.589C16.603 12.964 16.668 15.361 16.698 17.741C16.728 20.121 16.653 22.514 16.777 24.893C16.777 24.9102 16.7839 24.9268 16.7961 24.939C16.8082 24.9512 16.8248 24.958 16.842 24.958C16.8593 24.958 16.8758 24.9512 16.888 24.939C16.9002 24.9268 16.907 24.9102 16.907 24.893C17.031 22.515 16.956 20.122 16.986 17.741C17.016 15.36 17.076 12.964 16.896 10.589Z" fill="#C7C7C7"/>
<path d="M18.092 26.841C18.092 28.271 17.276 28.776 16.836 28.776C16.396 28.776 15.582 28.269 15.582 26.841C15.7645 25.5353 16.1898 24.2752 16.836 23.126C17.4843 24.2745 17.9104 25.5348 18.092 26.841Z" fill="#EBEBEB"/>
<path d="M21.0471 10.839C21.0452 10.8238 21.0378 10.8098 21.0263 10.7997C21.0148 10.7895 21 10.7839 20.9846 10.7839C20.9693 10.7839 20.9545 10.7895 20.943 10.7997C20.9315 10.8098 20.924 10.8238 20.9221 10.839C20.7161 13.889 20.8131 16.981 20.8301 20.039C20.8471 23.097 20.8441 26.171 20.9101 29.239C20.9101 29.2588 20.918 29.2777 20.9319 29.2917C20.9459 29.3057 20.9649 29.3135 20.9846 29.3135C21.0044 29.3135 21.0233 29.3057 21.0373 29.2917C21.0513 29.2777 21.0591 29.2588 21.0591 29.239C21.1251 26.174 21.1221 23.107 21.1391 20.039C21.1561 16.971 21.2471 13.889 21.0471 10.839Z" fill="#C7C7C7"/>
<path d="M22.2351 31.896C22.2351 33.326 21.4191 33.831 20.9791 33.831C20.5391 33.831 19.7251 33.324 19.7251 31.896C19.9076 30.5903 20.333 29.3302 20.9791 28.181C21.6273 29.3295 22.0534 30.5898 22.2351 31.896Z" fill="#DBDBDB"/>
<path d="M25.5299 7.795C25.528 7.78004 25.5207 7.76629 25.5094 7.75632C25.4981 7.74635 25.4835 7.74086 25.4684 7.74086C25.4534 7.74086 25.4388 7.74635 25.4275 7.75632C25.4162 7.76629 25.4089 7.78004 25.407 7.795C25.317 12.643 25.2379 17.495 25.4319 22.339C25.4319 22.3485 25.4357 22.3577 25.4425 22.3645C25.4492 22.3712 25.4584 22.375 25.4679 22.375C25.4775 22.375 25.4866 22.3712 25.4934 22.3645C25.5001 22.3577 25.504 22.3485 25.504 22.339C25.699 17.492 25.6189 12.642 25.5299 7.795Z" fill="#C7C7C7"/>
<path d="M26.7229 23.897C26.7229 25.327 25.9069 25.832 25.4669 25.832C25.0269 25.832 24.2129 25.325 24.2129 23.897C24.3954 22.5913 24.8207 21.3312 25.4669 20.182C26.1151 21.3305 26.5412 22.5908 26.7229 23.897Z" fill="#EBEBEB"/>
<path d="M30.0773 9.499C30.0773 9.48972 30.0736 9.48082 30.067 9.47425C30.0605 9.46769 30.0516 9.464 30.0423 9.464C30.033 9.464 30.0241 9.46769 30.0175 9.47425C30.011 9.48082 30.0073 9.48972 30.0073 9.499C29.8767 11.1058 29.8384 12.7188 29.8923 14.33C29.8923 15.9407 29.8953 17.551 29.9013 19.161C29.9183 22.381 29.8903 25.604 29.9693 28.823C29.9693 28.8421 29.9769 28.8604 29.9904 28.8739C30.0039 28.8874 30.0222 28.895 30.0413 28.895C30.0604 28.895 30.0787 28.8874 30.0922 28.8739C30.1057 28.8604 30.1133 28.8421 30.1133 28.823C30.1933 25.604 30.1653 22.381 30.1813 19.161C30.1893 17.5957 30.1923 16.029 30.1903 14.461C30.2479 12.8062 30.2102 11.1495 30.0773 9.499Z" fill="#C7C7C7"/>
<path d="M31.2981 30.196C31.2981 31.626 30.4821 32.131 30.0421 32.131C29.6021 32.131 28.7881 31.624 28.7881 30.196C28.9706 28.8903 29.3959 27.6302 30.0421 26.481C30.6903 27.6295 31.1164 28.8898 31.2981 30.196Z" fill="#DBDBDB"/>
<path d="M34.3516 9.773C34.3499 9.76184 34.3443 9.75164 34.3358 9.74427C34.3273 9.73689 34.3164 9.73284 34.3051 9.73284C34.2938 9.73284 34.2829 9.73689 34.2744 9.74427C34.2658 9.75164 34.2602 9.76184 34.2586 9.773C34.0526 12.608 34.1766 15.494 34.1826 18.334C34.1886 21.174 34.0736 24.06 34.2726 26.895C34.2726 26.9038 34.2761 26.9121 34.2823 26.9183C34.2884 26.9245 34.2968 26.928 34.3056 26.928C34.3143 26.928 34.3227 26.9245 34.3289 26.9183C34.3351 26.9121 34.3386 26.9038 34.3386 26.895C34.5386 24.06 34.4236 21.175 34.4286 18.334C34.4336 15.493 34.5576 12.608 34.3516 9.773Z" fill="#C7C7C7"/>
<path d="M35.5598 26.666C35.5598 28.096 34.7438 28.601 34.3038 28.601C33.8638 28.601 33.0498 28.094 33.0498 26.666C33.2323 25.3603 33.6576 24.1002 34.3038 22.951C34.9521 24.0995 35.3781 25.3598 35.5598 26.666Z" fill="#EBEBEB"/>
<path d="M15.854 7.017C15.854 7.017 13.001 7.651 13.001 10.277C13.001 12.903 16.759 12.632 16.759 12.632C16.9117 13.3996 17.291 14.1037 17.8478 14.6536C18.4047 15.2035 19.1136 15.5739 19.883 15.717C20.7621 15.9294 21.6816 15.9073 22.5495 15.6531C23.4174 15.3988 24.2034 14.9212 24.829 14.268C25.109 14.6011 25.4624 14.8648 25.8615 15.0383C26.2605 15.2118 26.6944 15.2904 27.129 15.268C27.5634 15.2621 27.9878 15.1364 28.3553 14.9047C28.7228 14.673 29.0193 14.3444 29.212 13.955C30.2715 14.3733 31.4475 14.3893 32.518 14C32.9892 13.8102 33.4147 13.5223 33.7661 13.1554C34.1174 12.7885 34.3867 12.351 34.556 11.872C35.1471 11.9594 35.7495 11.8219 36.2441 11.4865C36.7387 11.1512 37.0894 10.6425 37.227 10.061C37.634 7.978 35.099 7.344 35.099 7.344C35.099 7.344 35.046 3.967 32.699 2.997C31.8432 2.65493 30.9204 2.51383 30.0015 2.58456C29.0827 2.6553 28.1923 2.93598 27.399 3.405C27.399 3.405 24.546 -0.352998 20.29 0.505002C16.034 1.363 15.854 7.017 15.854 7.017Z" fill="#EBEBEB"/>
<path d="M29.6087 7.468C29.6037 7.439 29.5657 7.448 29.5617 7.468C29.4997 7.892 29.3097 9.504 28.6847 9.523C28.1017 9.541 27.6447 8.14101 27.5127 7.64001C27.5057 7.61301 27.4707 7.623 27.4717 7.65C27.4987 8.306 27.8877 9.993 28.7887 9.841C29.5697 9.711 29.6957 7.951 29.6087 7.468Z" fill="white"/>
<path d="M20.6209 7.468C20.6209 7.439 20.6639 7.448 20.6679 7.468C20.7299 7.892 20.9199 9.504 21.5449 9.523C22.1279 9.541 22.5849 8.14101 22.7179 7.64001C22.7249 7.61301 22.7599 7.623 22.7589 7.65C22.7319 8.306 22.3429 9.993 21.4419 9.841C20.6599 9.711 20.5339 7.951 20.6209 7.468Z" fill="white"/>
<path d="M23.9688 8.572C24.1349 8.71696 24.3183 8.84089 24.5148 8.941C24.6981 9.03246 24.899 9.08328 25.1037 9.09C25.3063 9.09695 25.5073 9.0533 25.6888 8.963C25.8837 8.86333 26.06 8.73071 26.2097 8.571C26.1403 8.80213 25.9961 9.00366 25.7997 9.144C25.5976 9.29336 25.351 9.37016 25.0997 9.362C24.8502 9.35389 24.6092 9.26981 24.4088 9.121C24.2135 8.98293 24.061 8.79268 23.9688 8.572Z" fill="white"/>
<path d="M1.39209 87.627H110.589" stroke="#263238" stroke-linecap="round" stroke-linejoin="round"/>
<path opacity="0.19" d="M62.4121 106.627C80.4878 106.627 95.1411 105.387 95.1411 103.857C95.1411 102.327 80.4878 101.087 62.4121 101.087C44.3364 101.087 29.6831 102.327 29.6831 103.857C29.6831 105.387 44.3364 106.627 62.4121 106.627Z" fill="#040405"/>
<path d="M108.447 87.702C110.19 88.423 110.925 86.129 110.875 84.464C110.825 82.799 110.275 81.554 109.755 81.464C108.852 81.299 106.179 86.763 108.447 87.702Z" fill="#DBDBDB"/>
<path d="M94.8019 78.842C94.0944 79.7065 93.32 80.5139 92.4859 81.257C90.4479 83.123 87.8269 85.036 87.0569 84.208C85.8989 82.97 90.3829 76.277 91.2829 75.544C91.6202 75.2436 92.0485 75.0651 92.4993 75.0372C92.9501 75.0092 93.3972 75.1335 93.7689 75.39C94.9149 76.122 95.5849 77.804 94.8019 78.842Z" fill="#EBEBEB"/>
<path opacity="0.1" d="M91.026 82.032C91.5358 81.8219 92.0238 81.5623 92.483 81.257C90.445 83.123 87.824 85.036 87.054 84.208C85.896 82.97 90.38 76.277 91.28 75.544C91.6173 75.2436 92.0456 75.0651 92.4964 75.0372C92.9472 75.0092 93.3943 75.1335 93.766 75.39C91.8847 76.5268 90.3961 78.2119 89.5 80.219C89.255 80.8 88.626 82.174 90.026 82.319C90.3757 82.2943 90.7164 82.1965 91.026 82.032Z" fill="#030402"/>
<path d="M97.396 88.65C96.467 89.324 86.4121 92.682 84.2811 91.762C82.1501 90.842 81.432 85.162 82.151 85.162C82.87 85.162 84.046 86.501 84.223 86.524C84.323 86.539 85.998 85.568 87.615 84.724C88.4864 84.221 89.412 83.8185 90.374 83.524C91.8936 83.2393 93.4648 83.5233 94.7886 84.3219C96.1124 85.1205 97.0963 86.378 97.5531 87.855C97.6191 88.231 97.57 88.522 97.396 88.65Z" fill="#EBEBEB"/>
<path opacity="0.1" d="M97.396 88.65C96.467 89.324 86.4121 92.682 84.2811 91.762C82.1501 90.842 81.432 85.162 82.151 85.162C82.87 85.162 84.046 86.501 84.223 86.524C84.323 86.539 85.998 85.568 87.615 84.724C86.7873 85.3332 86.0877 86.0995 85.556 86.979C84.291 89.308 87.6381 90.4 89.3081 90.428C90.9023 90.3812 92.4741 90.0398 93.944 89.421C95.1777 88.9712 96.3829 88.4469 97.5531 87.851C97.6191 88.231 97.57 88.522 97.396 88.65Z" fill="#030402"/>
<path d="M108.888 87.681C108.843 87.7773 108.786 87.8679 108.719 87.951C107.763 89.209 104.013 91.357 100.76 91.838C97.2602 92.357 90.8682 91.427 89.7172 88.938C88.5662 86.449 91.9552 74.811 92.2112 74.186L104.905 73.221C104.905 73.221 104.94 73.304 105.005 73.454C105.688 75.153 109.845 85.613 108.888 87.681Z" fill="#EBEBEB"/>
<path opacity="0.1" d="M108.719 87.951C107.763 89.209 104.013 91.357 100.76 91.838C97.2602 92.357 90.8682 91.427 89.7172 88.938C88.5662 86.449 91.9552 74.811 92.2112 74.186L104.905 73.221C104.905 73.221 104.94 73.304 105.005 73.454C101.587 74.6721 98.4488 76.566 95.7782 79.023C93.2362 81.549 91.4422 86.086 94.3702 89.07C96.9082 91.656 101.265 91.196 104.37 90.117C105.9 89.5692 107.36 88.8421 108.719 87.951Z" fill="#030402"/>
<path d="M108.045 88.875C107.188 89.7778 106.25 90.6015 105.245 91.336C102.052 93.85 97.0801 97.269 95.2931 97.153C92.6791 96.986 89.7621 91.221 90.5241 90.947C91.2861 90.673 93.0441 91.647 93.2431 91.609C93.3861 91.579 95.5051 89.041 97.1341 87.392C97.5806 86.8988 98.0842 86.4604 98.6341 86.086C104.01 83.144 108.776 87.806 108.045 88.875Z" fill="#EBEBEB"/>
<path opacity="0.1" d="M105.245 91.337C102.052 93.851 97.0801 97.27 95.2931 97.154C92.6791 96.987 89.7621 91.222 90.5241 90.948C91.2861 90.674 93.0441 91.648 93.2431 91.61C93.3861 91.58 95.5051 89.042 97.1341 87.393C96.0593 88.5718 95.3113 90.011 94.9641 91.568C94.6081 94.174 97.8411 94.468 99.6491 94.102C101.69 93.5883 103.597 92.6457 105.245 91.337Z" fill="#030402"/>
<path d="M107.085 86.978C105.27 87.601 100.421 79.878 100.078 78.604C99.9114 78.0661 99.9461 77.4861 100.176 76.9719C100.405 76.4578 100.814 76.0448 101.326 75.81C102.613 75.133 104.448 75.285 105.112 76.49C106.278 78.8965 107.111 81.4507 107.588 84.082C107.818 85.582 107.746 86.75 107.085 86.978Z" fill="#EBEBEB"/>
<path opacity="0.1" d="M107.085 86.977C105.27 87.6 100.421 79.877 100.078 78.603C99.9114 78.0651 99.9461 77.4851 100.176 76.9709C100.405 76.4568 100.814 76.0438 101.326 75.809C100.873 76.65 101.626 78.388 101.926 78.991C102.429 79.9289 103.014 80.8204 103.675 81.655C104.23 82.4544 104.867 83.194 105.575 83.862C105.848 84.104 106.512 84.742 106.875 84.762C107.321 84.783 107.517 84.475 107.595 84.084C107.818 85.581 107.746 86.75 107.085 86.977Z" fill="#030402"/>
<path d="M91.9472 74.203C91.1792 74.075 91.2412 75.556 91.3912 75.803C91.5412 76.05 93.9282 77.753 98.1302 77.433C102.741 77.082 105.579 75.255 105.807 74.923C106.035 74.591 105.56 73.167 105.057 73.206C100.834 74.6004 96.3332 74.9426 91.9472 74.203Z" fill="#FFC727"/>
<path d="M91.9472 74.203C91.1792 74.075 91.2412 75.556 91.3912 75.803C91.5412 76.05 93.9282 77.753 98.1302 77.433C102.741 77.082 105.579 75.255 105.807 74.923C106.035 74.591 105.56 73.167 105.057 73.206C100.834 74.6004 96.3332 74.9426 91.9472 74.203Z" fill="#EBEBEB"/>
<path d="M94.2124 57.474L90.6714 60.014C90.4744 60.0179 90.2774 60.0055 90.0824 59.977C89.3659 59.9001 88.6852 59.6246 88.1169 59.1814C87.5487 58.7383 87.1155 58.1452 86.8664 57.469C85.8574 54.789 87.3614 51.432 91.3094 52.11C93.3884 52.467 94.0174 54.333 94.1884 55.767C94.2561 56.3336 94.2642 56.9057 94.2124 57.474Z" fill="#EBEBEB"/>
<path opacity="0.6" d="M90.9207 58.826C90.4307 58.836 89.9495 58.6951 89.5422 58.4225C89.1349 58.1499 88.8213 57.7588 88.6437 57.302C88.4519 56.9069 88.3779 56.4649 88.4306 56.0289C88.4832 55.5928 88.6602 55.1812 88.9405 54.843C89.2207 54.5049 89.5924 54.2545 90.0111 54.1219C90.4298 53.9892 90.8778 53.9799 91.3017 54.095C93.3727 54.451 93.0387 57.306 93.0387 57.306L90.9207 58.826Z" fill="white"/>
<path d="M111.635 56.838C111.647 57.4203 111.499 57.9947 111.209 58.4994C110.918 59.004 110.496 59.4199 109.986 59.702C109.034 60.2425 107.977 60.5726 106.886 60.67L103.744 57.654C103.579 56.8519 103.663 56.0184 103.987 55.266C104.31 54.5137 104.857 53.8787 105.553 53.447C106.234 53.0033 107.03 52.7678 107.842 52.7692C108.655 52.7706 109.45 53.009 110.129 53.455C110.631 53.8582 111.03 54.3755 111.292 54.964C111.554 55.5524 111.672 56.1949 111.635 56.838Z" fill="#EBEBEB"/>
<path opacity="0.6" d="M104.963 57.679C104.864 57.199 104.915 56.7002 105.108 56.2501C105.302 55.7999 105.629 55.4201 106.046 55.162C106.399 54.9014 106.821 54.748 107.259 54.7202C107.697 54.6925 108.134 54.7915 108.518 55.0054C108.902 55.2194 109.216 55.5392 109.422 55.9268C109.629 56.3144 109.72 56.7532 109.684 57.191C109.712 59.291 106.844 59.485 106.844 59.485L104.963 57.679Z" fill="white"/>
<path opacity="0.1" d="M106.821 58.173C106.922 58.4856 107.085 58.7745 107.301 59.0222C107.517 59.2698 107.781 59.4712 108.077 59.6141C108.373 59.757 108.694 59.8385 109.022 59.8536C109.351 59.8687 109.678 59.8171 109.986 59.702C109.034 60.2425 107.977 60.5726 106.886 60.67L103.744 57.654C103.579 56.8519 103.663 56.0184 103.987 55.266C104.31 54.5137 104.857 53.8787 105.553 53.447C106.234 53.0033 107.03 52.7678 107.842 52.7692C108.655 52.7706 109.45 53.009 110.129 53.455C109.56 53.4449 108.998 53.5746 108.491 53.8326C107.984 54.0906 107.548 54.4691 107.221 54.9349C106.895 55.4007 106.687 55.9395 106.618 56.5041C106.548 57.0687 106.618 57.6417 106.821 58.173Z" fill="#030402"/>
<path d="M108.388 69.233C108.288 69.6514 108.154 70.0611 107.988 70.458C107.796 70.9081 107.556 71.3365 107.273 71.736C106.234 73.1113 104.831 74.1684 103.222 74.788C100.956 75.6936 98.5154 76.0791 96.0803 75.916C93.5185 75.8358 91.0609 74.8833 89.1143 73.216C88.2988 72.4785 87.6746 71.554 87.2953 70.522C86.8108 68.956 86.9245 67.266 87.6143 65.779C88.0613 64.603 88.6493 63.44 89.0773 62.259C89.356 61.4741 89.6926 60.711 90.0843 59.976C90.2971 59.5786 90.5308 59.1928 90.7843 58.82C91.3968 57.9114 92.1605 57.1146 93.0423 56.464C93.4041 56.1996 93.787 55.9654 94.1873 55.764C95.3468 55.189 96.6158 54.8685 97.9093 54.824C98.465 54.7963 99.0218 54.7987 99.5773 54.831C103.077 55.031 105.267 56.431 106.437 57.957C107.657 59.553 109.395 65.1 108.388 69.233Z" fill="#EBEBEB"/>
<g opacity="0.4">
<path opacity="0.6" d="M91.1792 69.547C91.2147 70.2917 91.0396 71.0314 90.674 71.6812C90.3084 72.331 89.7671 72.8647 89.1122 73.221C88.2959 72.4817 87.6713 71.5551 87.2922 70.521C86.8084 68.9549 86.9224 67.2649 87.6122 65.778C88.5599 65.8741 89.4415 66.3076 90.0963 66.9995C90.7511 67.6913 91.1354 68.5955 91.1792 69.547Z" fill="white"/>
<path opacity="0.6" d="M108.387 69.233C108.288 69.652 108.154 70.062 107.987 70.459C107.029 72.4725 105.317 74.028 103.221 74.789C102.504 74.5989 101.847 74.226 101.316 73.7068C100.785 73.1876 100.398 72.5397 100.192 71.8263C99.9853 71.1129 99.9674 70.3582 100.14 69.6358C100.312 68.9134 100.668 68.2479 101.174 67.7041C101.679 67.1602 102.317 66.7567 103.025 66.5327C103.733 66.3087 104.487 66.2718 105.214 66.4258C105.94 66.5798 106.615 66.9193 107.171 67.4112C107.727 67.9032 108.147 68.5308 108.388 69.233H108.387Z" fill="white"/>
</g>
<path opacity="0.1" d="M107.242 71.634C106.203 73.0092 104.799 74.0663 103.19 74.686C100.924 75.5916 98.4833 75.977 96.0482 75.814C93.4864 75.734 91.0287 74.7815 89.0822 73.114C88.2666 72.3766 87.6423 71.4521 87.2632 70.42C86.7787 68.854 86.8923 67.164 87.5822 65.677C88.0292 64.501 88.6172 63.339 89.0452 62.157C89.3239 61.3725 89.6605 60.6097 90.0522 59.875C89.3358 59.7978 88.6552 59.5219 88.0872 59.0786C87.5191 58.6353 87.0862 58.0422 86.8372 57.366C85.8282 54.686 87.3312 51.329 91.2802 52.007C93.3592 52.365 93.9882 54.23 94.1592 55.664C95.3187 55.0891 96.5877 54.7686 97.8812 54.724C98.4369 54.6962 98.9937 54.6985 99.5492 54.731C93.2012 56.09 90.7612 64.894 90.4752 66.731C90.1701 68.5973 90.61 70.5088 91.7002 72.054C94.1272 75.385 99.3302 75.113 102.816 73.954C104.401 73.4098 105.893 72.6275 107.242 71.634Z" fill="#030402"/>
<path opacity="0.6" d="M94.0801 64.563C93.0641 64.939 91.2451 68.616 91.9151 69.598C92.5851 70.58 98.1471 71.237 99.2061 70.298C100.265 69.359 98.7951 65.53 98.1441 65.037C96.8746 64.4497 95.4507 64.2836 94.0801 64.563Z" fill="white"/>
<path d="M92.2608 64.165C92.0703 64.1011 91.8648 64.0976 91.6722 64.1549C91.4797 64.2122 91.3095 64.3275 91.1849 64.4852C91.0603 64.6428 90.9874 64.835 90.9761 65.0356C90.9649 65.2362 91.0158 65.4354 91.1219 65.6059C91.228 65.7765 91.3842 65.9102 91.5692 65.9888C91.7541 66.0673 91.9587 66.0868 92.1552 66.0447C92.3516 66.0026 92.5303 65.9009 92.6668 65.7535C92.8033 65.606 92.8909 65.4201 92.9178 65.221C92.9653 64.9943 92.9234 64.7579 92.8011 64.5612C92.6787 64.3645 92.4852 64.2226 92.2608 64.165Z" fill="#BCBCBC"/>
<path d="M92.8401 64.723C92.8321 64.706 92.803 64.712 92.807 64.732C92.8651 64.9088 92.8818 65.0966 92.8557 65.2809C92.8297 65.4652 92.7617 65.641 92.657 65.7949C92.5522 65.9487 92.4135 66.0764 92.2516 66.1682C92.0897 66.2599 91.9089 66.3132 91.7231 66.324C91.7208 66.3247 91.7189 66.3261 91.7175 66.328C91.7161 66.3299 91.7153 66.3321 91.7153 66.3345C91.7153 66.3368 91.7161 66.3391 91.7175 66.341C91.7189 66.3429 91.7208 66.3443 91.7231 66.345C91.9256 66.3738 92.1322 66.3455 92.3195 66.2633C92.5069 66.1811 92.6677 66.0483 92.7837 65.8798C92.8998 65.7113 92.9665 65.5138 92.9765 65.3094C92.9864 65.1051 92.9392 64.902 92.8401 64.723Z" fill="#BCBCBC"/>
<path d="M100.492 64.974C100.692 64.9498 100.894 64.9878 101.071 65.0828C101.248 65.1777 101.392 65.3251 101.482 65.5047C101.572 65.6843 101.605 65.8874 101.575 66.0862C101.546 66.285 101.456 66.4699 101.317 66.6155C101.178 66.7612 100.998 66.8605 100.801 66.8999C100.604 66.9394 100.4 66.917 100.216 66.8359C100.032 66.7547 99.8776 66.6188 99.7738 66.4466C99.6701 66.2745 99.622 66.0745 99.6362 65.874C99.6359 65.6427 99.7247 65.4202 99.8841 65.2527C100.043 65.0851 100.261 64.9853 100.492 64.974Z" fill="#BCBCBC"/>
<path d="M99.8132 65.401C99.8242 65.386 99.8522 65.401 99.8442 65.416C99.7519 65.5776 99.6979 65.7583 99.6864 65.944C99.675 66.1298 99.7064 66.3157 99.7782 66.4874C99.85 66.6591 99.9603 66.8121 100.101 66.9344C100.241 67.0567 100.407 67.1452 100.587 67.193C100.589 67.1937 100.591 67.1951 100.593 67.197C100.594 67.1989 100.595 67.2012 100.595 67.2035C100.595 67.2058 100.594 67.2081 100.593 67.21C100.591 67.2119 100.589 67.2133 100.587 67.214C100.383 67.2024 100.185 67.1339 100.017 67.0161C99.8497 66.8984 99.7181 66.7361 99.6376 66.5476C99.5572 66.3591 99.531 66.1519 99.562 65.9493C99.593 65.7467 99.68 65.5568 99.8132 65.401Z" fill="#BCBCBC"/>
<path d="M93.07 62.301C93.036 62.067 92.758 62.03 92.57 62.053C92.3229 62.0746 92.082 62.1424 91.86 62.253C91.8055 62.2775 91.7603 62.3189 91.7311 62.371C91.702 62.4232 91.6904 62.4834 91.6981 62.5427C91.7059 62.6019 91.7325 62.6571 91.7741 62.7001C91.8157 62.743 91.87 62.7714 91.929 62.781C92.1629 62.799 92.3982 62.7756 92.624 62.712C92.821 62.672 93.106 62.56 93.07 62.301Z" fill="#BCBCBC"/>
<path d="M100.361 63.06C100.441 62.838 100.721 62.86 100.9 62.917C101.138 62.988 101.36 63.103 101.555 63.256C101.602 63.2914 101.637 63.3409 101.654 63.3972C101.671 63.4535 101.67 63.5139 101.65 63.5695C101.631 63.6251 101.595 63.6731 101.546 63.7066C101.498 63.7401 101.44 63.7574 101.381 63.756C101.148 63.727 100.923 63.6572 100.714 63.55C100.528 63.472 100.275 63.302 100.361 63.06Z" fill="#BCBCBC"/>
<path d="M95.2549 66.368C94.7859 66.305 93.6878 65.323 93.8878 64.85C94.0878 64.377 96.5578 64.715 96.8518 65.123C97.1458 65.531 95.5189 66.403 95.2549 66.368Z" fill="#BCBCBC"/>
<path opacity="0.1" d="M103.957 67.918C103.932 68.1628 103.836 68.3947 103.679 68.5845C103.522 68.7743 103.313 68.9133 103.077 68.9841C102.842 69.0548 102.59 69.0541 102.355 68.982C102.12 68.9099 101.911 68.7697 101.756 68.579C101.6 68.3884 101.505 68.1559 101.481 67.911C101.458 67.666 101.508 67.4196 101.624 67.203C101.741 66.9863 101.919 66.8091 102.136 66.6938C102.354 66.5784 102.6 66.5301 102.845 66.555C103.173 66.5883 103.475 66.7506 103.683 67.0062C103.892 67.2618 103.99 67.5898 103.957 67.918Z" fill="#030402"/>
<path opacity="0.1" d="M90.591 66.618C90.5662 66.8628 90.4694 67.0947 90.3128 67.2845C90.1561 67.4743 89.9468 67.6133 89.7111 67.6841C89.4755 67.7548 89.2241 67.7541 88.9889 67.682C88.7536 67.6099 88.545 67.4697 88.3895 67.279C88.2339 67.0884 88.1384 66.8559 88.115 66.6109C88.0916 66.366 88.1414 66.1196 88.258 65.903C88.3746 65.6863 88.5529 65.5091 88.7702 65.3938C88.9876 65.2784 89.2342 65.2301 89.479 65.255C89.6416 65.2714 89.7993 65.3196 89.9432 65.397C90.0871 65.4744 90.2143 65.5794 90.3176 65.706C90.4209 65.8326 90.4982 65.9783 90.5451 66.1347C90.592 66.2912 90.6076 66.4555 90.591 66.618Z" fill="#030402"/>
<path d="M4.29846 31.664H1.64746V87.611H4.29846V31.664Z" fill="#EBEBEB"/>
<path d="M4.36934 30.268C4.36934 30.5449 4.28723 30.8156 4.13339 31.0458C3.97956 31.276 3.76091 31.4555 3.50509 31.5614C3.24928 31.6674 2.96778 31.6951 2.69621 31.6411C2.42464 31.5871 2.17518 31.4537 1.97939 31.2579C1.78359 31.0622 1.65026 30.8127 1.59624 30.5411C1.54222 30.2695 1.56994 29.9881 1.6759 29.7322C1.78187 29.4764 1.96131 29.2578 2.19154 29.1039C2.42177 28.9501 2.69244 28.868 2.96933 28.868C3.15318 28.868 3.33524 28.9042 3.50509 28.9746C3.67495 29.0449 3.82928 29.148 3.95929 29.278C4.08929 29.408 4.19241 29.5624 4.26277 29.7322C4.33312 29.9021 4.36934 30.0842 4.36934 30.268Z" fill="#EBEBEB"/>
<path d="M75.2067 31.664H72.5557V87.611H75.2067V31.664Z" fill="#EBEBEB"/>
<path d="M75.2805 30.268C75.2805 30.5449 75.1984 30.8156 75.0445 31.0458C74.8907 31.276 74.6721 31.4555 74.4162 31.5614C74.1604 31.6674 73.8789 31.6951 73.6073 31.6411C73.3358 31.5871 73.0863 31.4537 72.8905 31.2579C72.6948 31.0622 72.5614 30.8127 72.5074 30.5411C72.4533 30.2695 72.4811 29.9881 72.587 29.7322C72.693 29.4764 72.8724 29.2578 73.1027 29.1039C73.3329 28.9501 73.6036 28.868 73.8805 28.868C74.0643 28.868 74.2464 28.9042 74.4162 28.9746C74.5861 29.0449 74.7404 29.148 74.8704 29.278C75.0004 29.408 75.1035 29.5624 75.1739 29.7322C75.2443 29.9021 75.2805 30.0842 75.2805 30.268Z" fill="#EBEBEB"/>
<path d="M72.5563 69.172H4.29932V77.455H72.5563V69.172Z" fill="#EBEBEB"/>
<path d="M6.90629 69.173H4.30029V77.455H6.90629V69.173Z" fill="#DBDBDB"/>
<path d="M72.5552 69.173H69.9492V77.455H72.5552V69.173Z" fill="#DBDBDB"/>
<path d="M36.8754 70.553H10.3804V76.075H36.8754V70.553Z" stroke="#DBDBDB" stroke-miterlimit="10"/>
<path d="M26.7304 72.383H20.5254V73.314H26.7304V72.383Z" stroke="#DBDBDB" stroke-miterlimit="10"/>
<path d="M66.4755 70.553H39.9805V76.075H66.4755V70.553Z" stroke="#DBDBDB" stroke-miterlimit="10"/>
<path d="M56.3305 72.383H50.1255V73.314H56.3305V72.383Z" stroke="#DBDBDB" stroke-miterlimit="10"/>
<path d="M72.5553 66.659H4.29932V69.173H72.5553V66.659Z" fill="#DBDBDB"/>
<path d="M4.29932 60.144H72.5553V66.659H4.29932V60.144Z" fill="#4EA7F2" fill-opacity="0.3"/>
<path d="M72.4853 34.828H4.30029V37.062H72.4853V34.828Z" fill="#EBEBEB"/>
<path d="M6.26821 37.062H5.36621V69.173H6.26821V37.062Z" fill="#EBEBEB"/>
<path d="M10.611 37.062H9.70898V69.173H10.611V37.062Z" fill="#EBEBEB"/>
<path d="M14.9552 37.062H14.0532V69.173H14.9552V37.062Z" fill="#EBEBEB"/>
<path d="M19.298 37.062H18.396V69.173H19.298V37.062Z" fill="#EBEBEB"/>
<path d="M23.6413 37.062H22.7393V69.173H23.6413V37.062Z" fill="#EBEBEB"/>
<path d="M27.985 37.062H27.083V69.173H27.985V37.062Z" fill="#EBEBEB"/>
<path d="M32.3283 37.062H31.4263V69.173H32.3283V37.062Z" fill="#EBEBEB"/>
<path d="M36.672 37.062H35.77V69.173H36.672V37.062Z" fill="#EBEBEB"/>
<path d="M41.0153 37.062H40.1133V69.173H41.0153V37.062Z" fill="#EBEBEB"/>
<path d="M45.3581 37.062H44.4561V69.173H45.3581V37.062Z" fill="#EBEBEB"/>
<path d="M49.7023 37.062H48.8003V69.173H49.7023V37.062Z" fill="#EBEBEB"/>
<path d="M54.0451 37.062H53.1431V69.173H54.0451V37.062Z" fill="#EBEBEB"/>
<path d="M58.3883 37.062H57.4863V69.173H58.3883V37.062Z" fill="#EBEBEB"/>
<path d="M62.7321 37.062H61.8301V69.173H62.7321V37.062Z" fill="#EBEBEB"/>
<path d="M67.0753 37.062H66.1733V69.173H67.0753V37.062Z" fill="#EBEBEB"/>
<path d="M71.4181 37.062H70.5161V69.173H71.4181V37.062Z" fill="#EBEBEB"/>
<path d="M72.4853 34.828H4.30029V37.062H72.4853V34.828Z" fill="#EBEBEB"/>
<path d="M72.825 85.082C75.625 85.512 81.048 96.798 78.134 98.182C75.786 99.294 68.071 93.428 68.303 89.519C68.457 86.917 70.865 84.781 72.825 85.082Z" fill="#AD6359"/>
<path d="M50.9831 83.922C50.8201 79.509 53.1401 70.984 57.7831 69.522C62.4261 68.06 67.5911 70.685 68.4441 76.73C68.7628 79.9675 68.385 83.2356 67.3361 86.315C67.3361 86.315 71.2631 84.767 72.4541 85.024C74.8151 85.534 77.2541 90.08 74.9011 92.812C73.2181 94.763 61.5931 103.638 55.0961 97.248C51.3941 93.604 51.1851 89.401 50.9831 83.922Z" fill="#F2BDA2"/>
<g opacity="0.1">
<g opacity="0.1">
<path opacity="0.1" d="M72.825 85.082C75.625 85.512 81.048 96.798 78.134 98.182C75.786 99.294 68.071 93.428 68.303 89.519C68.457 86.917 70.865 84.781 72.825 85.082Z" fill="black"/>
</g>
</g>
<path d="M67.4861 85.578C67.1284 86.8249 66.5639 88.003 65.8161 89.063C65.4591 89.573 65.0761 90.063 64.6741 90.534C64.2522 91.0621 63.7811 91.549 63.2671 91.988C63.2552 91.9973 63.2474 92.0109 63.2456 92.0259C63.2437 92.0409 63.2479 92.0561 63.2572 92.068C63.2664 92.0799 63.2801 92.0877 63.2951 92.0896C63.3101 92.0914 63.3252 92.0873 63.3371 92.078C63.6141 91.878 63.9141 91.707 64.1821 91.487C64.4446 91.267 64.6953 91.0334 64.9331 90.787C65.3923 90.319 65.795 89.7987 66.1331 89.237C66.8063 88.1101 67.2837 86.8774 67.5451 85.591C67.5471 85.561 67.4951 85.546 67.4861 85.578Z" fill="#263238"/>
<path d="M73.399 92.717C72.9544 93.5703 72.3704 94.3433 71.671 95.004C71.345 95.312 71.006 95.595 70.656 95.865C70.2896 96.1673 69.8925 96.4301 69.471 96.649C69.425 96.67 69.454 96.754 69.5 96.735C69.719 96.644 69.945 96.588 70.16 96.482C70.3729 96.3747 70.5793 96.2548 70.778 96.123C71.1696 95.8661 71.5274 95.561 71.843 95.215C72.5044 94.4828 73.0412 93.647 73.432 92.741C73.441 92.719 73.41 92.695 73.399 92.717Z" fill="#263238"/>
<path d="M28.0421 86.412C29.5131 86.766 37.8111 88.519 42.9931 87.037C46.9562 85.9522 50.348 83.3803 52.4621 79.857C55.8681 74.288 52.6541 70.091 49.2171 71.92C45.1341 74.092 41.3621 76.803 38.7281 77.677C35.5091 78.744 29.9211 79.037 29.0381 79.204C27.1791 79.554 26.2091 85.971 28.0421 86.412Z" fill="#FBCDB6"/>
<path d="M29.5689 79.222C29.0689 78.507 27.0769 77.29 26.7769 76.694C26.4769 76.098 26.0769 74.437 25.1909 74.876C24.3049 75.315 25.2089 77.701 25.4209 78.245C25.6329 78.789 20.0329 76.923 19.5659 78.245C19.0989 79.567 23.0509 80.458 22.9659 80.727C22.8809 80.996 18.6659 80.497 18.3949 81.67C18.1239 82.843 22.6839 82.956 22.6769 83.047C22.6699 83.138 19.4279 81.977 18.9879 82.954C18.5479 83.931 23.1429 84.804 23.1269 85.009C23.1109 85.214 20.4199 85.587 20.6169 86.635C20.8139 87.683 24.8669 86.609 25.2369 86.568C25.6069 86.527 28.4859 86.72 28.9369 86.268C29.3879 85.816 29.9249 79.731 29.5689 79.222Z" fill="#FBCDB6"/>
<path d="M25.999 79.449C25.5917 80.3081 25.295 81.2153 25.116 82.149C24.9689 83.0932 24.9518 84.0531 25.065 85.002C25.071 85.075 25.186 85.076 25.179 85.002C25.1233 84.0626 25.177 83.12 25.339 82.193C25.4728 81.2624 25.7227 80.3524 26.083 79.484C26.099 79.438 26.018 79.403 25.999 79.449Z" fill="#263238"/>
<path d="M22.164 82.966C21.874 82.9187 21.585 82.8657 21.297 82.807C21.03 82.753 20.761 82.717 20.49 82.687C20.207 82.6646 19.9253 82.6278 19.646 82.577C19.553 82.557 19.535 82.587 19.621 82.617C20.1514 82.7805 20.6914 82.9108 21.238 83.007C21.5193 83.0437 21.801 83.075 22.083 83.101C22.3849 83.1391 22.6888 83.1592 22.993 83.161C23.03 83.161 23.042 83.102 23.002 83.094C22.728 83.034 22.442 83.011 22.164 82.966Z" fill="#263238"/>
<path d="M62.511 92.09C62.224 91.903 63.902 86.222 64.039 80.352C64.205 73.231 62.77 68.907 63.022 68.515C63.539 67.715 64.648 68.446 64.822 68.434C64.996 68.422 71.895 66.251 76.492 68.253C81.089 70.255 84.092 76.675 83.153 81.894C82.214 87.113 78.09 96.034 63.647 91.988C63.566 91.964 63.149 92.51 62.511 92.09Z" fill="#4EA7F2"/>
<path d="M64.8591 69.471C65.212 70.3346 65.5044 71.2218 65.7341 72.126C65.9596 73.033 66.1388 73.9508 66.2711 74.876C66.8041 78.5925 66.6325 82.3761 65.7651 86.029C65.5557 86.9395 65.3001 87.8386 64.9991 88.723C64.8681 89.171 64.6731 89.597 64.5051 90.032C64.3371 90.467 64.1561 90.896 63.9751 91.323C64.1031 90.8743 64.2364 90.4287 64.3751 89.986C64.5051 89.541 64.6621 89.105 64.7541 88.649C64.9691 87.749 65.2181 86.857 65.3661 85.943L65.4941 85.262C65.5361 85.035 65.5941 84.81 65.6131 84.581L65.7961 83.209C65.8701 82.754 65.8881 82.292 65.9321 81.833C65.9761 81.374 66.0191 80.915 66.0211 80.453L66.0681 79.071L66.0481 77.688C66.0191 76.766 65.9621 75.845 65.8671 74.926C65.693 73.0814 65.3557 71.256 64.8591 69.471Z" fill="#358ED9"/>
<path d="M88.0988 90.075C90.8658 90.664 95.6388 102.242 92.6498 103.454C90.2428 104.43 82.8747 98.133 83.3297 94.244C83.6317 91.658 86.1548 89.662 88.0988 90.075Z" fill="#FBCDB6"/>
<path d="M66.3578 87.669C66.4478 83.254 69.2498 74.875 73.9708 73.679C78.6918 72.483 83.6958 75.401 84.2018 81.485C84.3352 84.7353 83.7716 87.9765 82.5488 90.991C82.5488 90.991 86.5578 89.67 87.7318 89.991C90.0598 90.635 92.2388 95.313 89.7318 97.906C87.9398 99.758 75.8318 107.954 69.7058 101.206C66.2158 97.357 66.2468 93.151 66.3578 87.669Z" fill="#FBCDB6"/>
<path d="M82.7396 90.265C82.3109 91.4895 81.6798 92.6333 80.8726 93.649C80.4876 94.138 80.0726 94.601 79.6486 95.049C79.1972 95.5524 78.6989 96.0118 78.1606 96.421C78.1498 96.4302 78.1429 96.4431 78.1411 96.4571C78.1393 96.4712 78.1428 96.4854 78.1509 96.497C78.159 96.5086 78.1712 96.5168 78.185 96.5199C78.1988 96.5231 78.2133 96.521 78.2256 96.514C78.5146 96.325 78.8256 96.177 79.1026 95.973C79.3768 95.7686 79.6402 95.5499 79.8916 95.318C80.3754 94.8766 80.806 94.3803 81.1746 93.839C81.9111 92.7526 82.4582 91.5492 82.7926 90.28C82.8016 90.252 82.7496 90.234 82.7396 90.265Z" fill="#FBCDB6"/>
<path d="M88.2349 97.731C87.7423 98.5576 87.115 99.2961 86.3789 99.916C86.0359 100.204 85.6789 100.468 85.3169 100.716C84.9342 100.997 84.5229 101.237 84.0899 101.431C84.0429 101.45 84.0669 101.531 84.1139 101.519C84.3379 101.44 84.5659 101.397 84.7869 101.304C85.0054 101.209 85.2181 101.101 85.4239 100.981C85.8295 100.747 86.2041 100.463 86.5389 100.135C87.2413 99.442 87.825 98.6383 88.2669 97.756C88.2779 97.735 88.2479 97.709 88.2349 97.731Z" fill="#FBCDB6"/>
<path d="M63.4951 68.923C66.687 77.135 63.3951 91.061 62.5041 91.606C57.8963 91.6511 53.379 90.3266 49.5252 87.8004C45.6713 85.2742 42.6547 81.6603 40.858 77.417C40.496 76.609 51.258 70.195 53.917 68.837C56.408 67.566 60.698 68.395 62.844 68.65C63.206 68.688 63.4391 68.772 63.4951 68.923Z" fill="#FBCDB6"/>
<g opacity="0.1">
<path opacity="0.1" d="M53.9662 79.631C53.9018 79.5941 53.8308 79.5704 53.7572 79.5612C53.6836 79.552 53.6089 79.5575 53.5375 79.5774C53.466 79.5973 53.3992 79.6312 53.341 79.6772C53.2827 79.7231 53.2342 79.7801 53.1982 79.845C53.1074 79.9872 53.075 80.159 53.1076 80.3245C53.1402 80.4901 53.2353 80.6368 53.3732 80.734C53.423 80.7649 53.4784 80.7856 53.5362 80.7949C53.594 80.8043 53.6531 80.8022 53.7101 80.7886C53.7671 80.775 53.8208 80.7503 53.8682 80.7159C53.9156 80.6814 53.9557 80.638 53.9862 80.588C54.0415 80.5572 54.0912 80.5173 54.1332 80.47C54.1815 80.4054 54.2157 80.3313 54.2336 80.2526C54.2514 80.174 54.2525 80.0924 54.2367 80.0133C54.221 79.9341 54.1888 79.8592 54.1422 79.7933C54.0955 79.7275 54.0356 79.6721 53.9662 79.631Z" fill="black"/>
<path opacity="0.1" d="M47.6282 83.771C47.5638 83.7341 47.4928 83.7104 47.4192 83.7012C47.3456 83.692 47.2709 83.6975 47.1994 83.7174C47.128 83.7373 47.0612 83.7712 47.003 83.8172C46.9447 83.8631 46.8962 83.9201 46.8602 83.985C46.7692 84.1272 46.7366 84.299 46.7692 84.4646C46.8018 84.6303 46.8971 84.7769 47.0352 84.874C47.085 84.9049 47.1404 84.9256 47.1982 84.9349C47.256 84.9443 47.3151 84.9422 47.3721 84.9286C47.4291 84.915 47.4828 84.8903 47.5302 84.8559C47.5776 84.8214 47.6177 84.778 47.6482 84.728C47.7034 84.6971 47.7531 84.6572 47.7952 84.61C47.8435 84.5454 47.8777 84.4713 47.8956 84.3926C47.9134 84.314 47.9145 84.2324 47.8987 84.1533C47.883 84.0741 47.8508 83.9992 47.8041 83.9333C47.7575 83.8675 47.6976 83.8122 47.6282 83.771Z" fill="black"/>
<path opacity="0.1" d="M56.304 88.887C56.266 88.887 56.223 88.924 56.245 88.964C56.2942 89.0353 56.3494 89.1021 56.41 89.164C56.439 89.202 56.525 89.321 56.481 89.377C56.425 89.448 56.31 89.391 56.262 89.351C56.0456 89.1796 55.898 88.9361 55.846 88.665C55.8437 88.6536 55.8371 88.6434 55.8276 88.6367C55.8181 88.6299 55.8064 88.627 55.7949 88.6285C55.7833 88.63 55.7728 88.6359 55.7654 88.6449C55.7579 88.6539 55.7542 88.6653 55.755 88.677C55.784 89.034 56.001 89.844 56.514 89.734C56.6059 89.7081 56.6845 89.6483 56.7339 89.5666C56.7833 89.4849 56.7998 89.3874 56.78 89.294C56.7533 89.1848 56.693 89.0868 56.6076 89.0137C56.5222 88.9407 56.416 88.8964 56.304 88.887Z" fill="black"/>
</g>
<path d="M59.38 101.426C59.852 99.988 63.659 91.991 62.6 86.706C61.471 81.078 59.588 76.62 57.663 75.217C52.387 71.373 47.982 76.532 48.788 80.341C49.802 85.13 51.81 87.041 52.412 89.747C52.482 90.06 51.647 96.954 52.275 99.847C52.676 101.706 58.793 103.218 59.38 101.426Z" fill="#FBCDB6"/>
<path d="M52.2378 98.72C51.5208 98.933 50.4828 99.947 49.8858 100.056C49.2888 100.165 47.5538 100.706 47.9748 101.27C48.3958 101.834 50.7748 101.57 51.3208 101.512C51.8668 101.454 49.9208 104.512 51.2208 104.934C52.5208 105.356 53.4708 103.144 53.7368 103.226C54.0028 103.308 53.4368 105.714 54.5998 106.003C55.7628 106.292 55.9438 103.639 56.0338 103.653C56.1238 103.667 54.9208 105.433 55.8828 105.8C56.8448 106.167 57.7828 103.578 57.9828 103.609C58.1828 103.64 58.5128 105.256 59.5548 105.258C60.5968 105.26 59.5968 102.771 59.5628 102.55C59.5288 102.329 59.7628 100.668 59.3268 100.356C57.0216 99.585 54.6477 99.0371 52.2378 98.72Z" fill="#FBCDB6"/>
<path d="M52.2039 92.815C52.0445 91.7825 52.0924 90.7287 52.3448 89.715C52.4018 89.46 52.4829 89.215 52.5599 88.962C52.6599 88.72 52.7348 88.469 52.8598 88.237C53.0774 87.7639 53.3521 87.3192 53.6779 86.913C53.4413 87.3673 53.2309 87.8347 53.0478 88.313C52.8661 88.7885 52.7175 89.276 52.6029 89.772C52.4832 90.2664 52.3913 90.7672 52.3278 91.272C52.2618 91.786 52.2149 92.297 52.2039 92.815Z" fill="#FBCDB6"/>
<path d="M52.4119 89.747C52.0539 89.125 51.7409 88.486 51.4439 87.841C51.1469 87.196 50.8699 86.541 50.5979 85.889C50.3259 85.237 50.0769 84.571 49.8399 83.902C49.6029 83.233 49.3749 82.563 49.1719 81.875C49.5614 82.4732 49.9089 83.0977 50.2119 83.744C50.5259 84.383 50.8119 85.036 51.0779 85.692C51.3439 86.348 51.5939 87.015 51.8169 87.692C52.0509 88.3662 52.2495 89.0521 52.4119 89.747Z" fill="#FBCDB6"/>
<path d="M48.9478 82.935C49.5316 83.3162 50.0088 83.8396 50.3347 84.456C50.0407 84.2709 49.7747 84.0446 49.5448 83.784C49.3067 83.5306 49.1057 83.2447 48.9478 82.935Z" fill="#FBCDB6"/>
<path d="M60.1358 78.72C60.8267 80.3699 61.4276 82.056 61.9358 83.771C62.1969 84.6323 62.4118 85.5068 62.5798 86.391C62.6208 86.614 62.6488 86.841 62.6798 87.066C62.6938 87.296 62.7258 87.53 62.7238 87.757C62.7218 87.984 62.7288 88.213 62.7188 88.439C62.7088 88.665 62.7038 88.891 62.6878 89.116C62.5551 90.9069 62.2914 92.6856 61.8988 94.438C61.6988 95.313 61.4718 96.18 61.1988 97.038L60.9768 97.673L60.7308 98.299C60.6438 98.506 60.5478 98.709 60.4558 98.913C60.3638 99.117 60.2408 99.307 60.1338 99.502C60.4817 98.6828 60.7554 97.8341 60.9518 96.966C61.1648 96.104 61.3398 95.233 61.4998 94.36C61.8142 92.6145 62.0368 90.8538 62.1668 89.085C62.1848 88.8643 62.1968 88.6443 62.2028 88.425C62.2148 88.205 62.2148 87.987 62.2138 87.769C62.2128 87.551 62.1888 87.34 62.1788 87.125L62.0908 86.476C61.9568 85.608 61.7498 84.743 61.5408 83.876C61.1108 82.154 60.6308 80.436 60.1358 78.72Z" fill="#FBCDB6"/>
<path d="M60.827 79.31C60.9762 79.6715 61.0735 80.0522 61.116 80.441C61.1714 80.8293 61.1643 81.224 61.095 81.61C60.9793 81.2395 60.8993 80.8588 60.856 80.473C60.8034 80.0876 60.7936 79.6975 60.827 79.31Z" fill="#FBCDB6"/>
<path d="M58.2528 99.634C57.5888 99.2418 56.875 98.9408 56.1308 98.739C55.3634 98.5625 54.575 98.4952 53.7888 98.539C53.7288 98.539 53.7148 98.639 53.7758 98.639C54.549 98.6434 55.3189 98.7411 56.0688 98.93C56.8154 99.093 57.5371 99.3547 58.2148 99.708C58.2508 99.721 58.2888 99.655 58.2528 99.634Z" fill="#FBCDB6"/>
<path d="M56.8861 66.918C56.0576 69.1276 54.7299 71.1159 53.0066 72.728C51.2833 74.3402 49.211 75.5325 46.9511 76.212C42.4041 77.64 29.6761 79.281 26.0281 71.27C25.1082 68.8343 24.6425 66.2506 24.6541 63.647C24.4671 57.917 25.4991 51.377 27.1611 48.895C30.6901 43.63 40.3811 40.349 48.7981 43.774C55.5741 46.535 58.8671 61.18 56.8861 66.918Z" fill="#FBCDB6"/>
<path d="M42.2849 58.02C41.923 57.9338 41.5658 57.8287 41.2149 57.705C40.8227 57.6463 40.4607 57.46 40.1849 57.175C40.1156 57.0685 40.0835 56.9421 40.0936 56.8155C40.1038 56.6888 40.1556 56.5691 40.2409 56.475C40.4374 56.3142 40.6733 56.2089 40.9242 56.1698C41.1751 56.1308 41.4318 56.1595 41.6679 56.253C42.1752 56.3681 42.6215 56.6679 42.9199 57.094C42.9828 57.1951 43.0149 57.3124 43.0122 57.4315C43.0096 57.5505 42.9723 57.6663 42.905 57.7645C42.8376 57.8627 42.7431 57.9392 42.633 57.9845C42.5229 58.0299 42.4019 58.0422 42.2849 58.02Z" fill="#263238"/>
<path d="M30.5691 57.99C30.9295 57.9088 31.2853 57.8086 31.6351 57.69C32.0252 57.6367 32.3868 57.4564 32.6641 57.177C32.7342 57.0723 32.7677 56.9472 32.7591 56.8215C32.7506 56.6957 32.7007 56.5764 32.6171 56.482C32.4242 56.32 32.1915 56.2125 31.943 56.1706C31.6946 56.1288 31.4395 56.1541 31.2041 56.244C30.6995 56.352 30.2532 56.644 29.9521 57.063C29.8884 57.1624 29.855 57.2783 29.856 57.3964C29.857 57.5145 29.8924 57.6297 29.9578 57.7281C30.0233 57.8264 30.1159 57.9035 30.2245 57.95C30.333 57.9965 30.4528 58.0104 30.5691 57.99Z" fill="#263238"/>
<path d="M38.5143 66.954C38.5695 67.1062 38.6146 67.2619 38.6493 67.42C38.7953 68.049 38.8923 69.155 37.9393 69.558C37.5762 69.7017 37.1758 69.7214 36.8003 69.614C36.0321 69.3479 35.344 68.8914 34.8003 68.287C35.4805 68.3722 36.1713 68.2958 36.8166 68.0642C37.4618 67.8326 38.0435 67.4523 38.5143 66.954Z" fill="#263238"/>
<path d="M38.6483 67.42C38.7943 68.049 38.8913 69.155 37.9383 69.558C37.5752 69.7017 37.1748 69.7214 36.7993 69.614C36.8797 69.0596 37.1326 68.5445 37.5223 68.142C37.8326 67.8125 38.2194 67.5645 38.6483 67.42Z" fill="#FF99BA"/>
<path d="M33.3682 59.341C33.1622 61.704 33.3162 60.859 33.0092 63.212C32.4942 63.275 30.1282 63.405 30.3092 63.607C31.1137 64.329 31.973 64.9876 32.8792 65.577C32.6312 66.222 31.5872 66.946 31.6412 66.996C32.071 67.4736 32.5951 67.857 33.1806 68.1218C33.7661 68.3865 34.4001 68.527 35.0426 68.5344C35.6851 68.5417 36.3221 68.4157 36.9135 68.1643C37.5048 67.913 38.0376 67.5417 38.4782 67.074C38.6692 66.874 38.5882 66.879 38.4692 66.969C37.5012 67.698 34.6112 68.861 32.4692 66.92C32.8707 66.536 33.1712 66.0589 33.3442 65.531C33.3652 65.467 31.8532 64.424 31.2522 63.849C31.9672 63.779 32.8522 63.759 33.3772 63.714C33.7215 62.2807 33.791 60.7952 33.5822 59.336C33.5815 59.3076 33.5696 59.2807 33.5491 59.2611C33.5285 59.2415 33.501 59.2308 33.4727 59.2315C33.4443 59.2322 33.4173 59.2441 33.3977 59.2646C33.3781 59.2851 33.3675 59.3126 33.3682 59.341Z" fill="#263238"/>
<path d="M40.9069 59.874C42.8319 59.82 42.7989 63.674 41.0149 63.724C39.2599 63.774 39.2939 59.919 40.9069 59.874Z" fill="#263238"/>
<path d="M31.8713 59.941C30.1953 59.812 30.0343 63.527 31.5873 63.641C33.1163 63.763 33.2773 60.048 31.8713 59.941Z" fill="#263238"/>
<path d="M40.1992 77.067C38.7592 76.949 37.3242 77.136 35.8812 76.967C34.4868 76.7975 33.1158 76.4718 31.7942 75.996C30.3762 75.5291 29.0494 74.821 27.8722 73.903C27.7972 73.841 27.8132 73.886 27.8822 73.957C28.8287 74.8988 29.942 75.6566 31.1652 76.192C32.3507 76.746 33.6002 77.1511 34.8852 77.398C36.2042 77.6374 37.5468 77.7203 38.8852 77.645C40.4082 77.579 42.2232 77.42 43.2142 78.845C43.2191 78.8536 43.2272 78.8599 43.2368 78.8626C43.2464 78.8652 43.2566 78.8639 43.2652 78.859C43.2738 78.8541 43.2801 78.846 43.2828 78.8364C43.2854 78.8268 43.2841 78.8166 43.2792 78.808C42.9498 78.2857 42.4961 77.8533 41.9585 77.5495C41.421 77.2456 40.8165 77.0798 40.1992 77.067Z" fill="#263238"/>
<path d="M47.8169 77.397C47.9766 76.8687 48.2519 76.3826 48.6229 75.974C48.9996 75.5722 49.4187 75.2125 49.8729 74.901C50.7599 74.267 51.6619 73.701 52.5109 73.05C53.3864 72.4642 54.1543 71.7318 54.7809 70.885C55.372 69.9908 55.9151 69.0658 56.4079 68.114C56.1035 69.1622 55.673 70.1695 55.1259 71.114C54.8364 71.5907 54.4895 72.03 54.0929 72.422C53.6922 72.7986 53.2677 73.149 52.8219 73.471C51.9434 74.105 51.0336 74.6944 50.0959 75.237C49.6373 75.5052 49.2024 75.812 48.7959 76.154C48.3965 76.5052 48.0647 76.9264 47.8169 77.397Z" fill="#263238"/>
<path d="M25.2479 55.977C25.9633 55.9608 26.6462 55.6751 27.1599 55.177C27.7567 54.6622 28.1623 53.961 28.3109 53.187C28.9191 52.7951 29.408 52.2437 29.7245 51.5931C30.0411 50.9424 30.173 50.2174 30.1059 49.497C30.7811 49.6334 31.4801 49.5925 32.1347 49.3781C32.7893 49.1638 33.3772 48.7833 33.8409 48.274C34.7949 52.201 39.9179 53.825 43.3409 51.674C43.3978 53.2966 44.0392 54.844 45.1469 56.031C46.2776 57.1303 47.701 57.8805 49.2469 58.192C49.2469 58.2 49.2469 58.207 49.2519 58.215C48.4519 61.199 51.4819 63.737 54.3039 63.16C54.5682 63.1326 54.8293 63.0807 55.0839 63.005C55.7789 62.8691 56.4336 62.5761 56.9979 62.1483C57.5622 61.7205 58.0213 61.1694 58.3399 60.537C58.6802 59.6587 58.6929 58.6873 58.3758 57.8004C58.0587 56.9135 57.4329 56.1704 56.6129 55.707C57.1788 55.1471 57.5379 54.4117 57.6316 53.6212C57.7254 52.8307 57.5481 52.0317 57.1289 51.355C56.5799 50.48 55.2609 50.063 55.1289 49.017C55.0092 47.8494 54.5124 46.7526 53.7136 45.8926C52.9148 45.0327 51.8575 44.4564 50.7019 44.251C50.0701 44.1794 49.4732 43.9242 48.9849 43.517C48.6684 43.2327 48.3344 42.9685 47.9849 42.726C46.611 41.832 44.9816 41.4136 43.3469 41.535C42.3859 41.608 41.4359 42.086 40.4849 41.82C39.0624 41.6598 37.624 41.7093 36.2159 41.967C34.277 42.2854 32.4713 43.157 31.0159 44.477C29.5471 44.9319 28.2873 45.8932 27.4609 47.19C26.6428 48.1639 26.0969 49.3369 25.8789 50.59C25.6701 51.1906 25.4229 51.7771 25.1389 52.346C24.8665 52.9162 24.7343 53.5431 24.7533 54.1747C24.7722 54.8063 24.9418 55.4242 25.2479 55.977ZM49.2969 58.361C49.7699 60.573 50.4819 61.587 51.3669 62.28C50.6575 61.923 50.0769 61.3539 49.706 60.6517C49.335 59.9495 49.192 59.1492 49.2969 58.362V58.361ZM34.1829 48.35C34.6686 49.3181 35.3735 50.1595 36.2415 50.8074C37.1095 51.4552 38.1167 51.8917 39.1829 52.082C38.0704 52.0369 36.9976 51.6565 36.1053 50.9906C35.213 50.3247 34.5428 49.4046 34.1829 48.351V48.35Z" fill="#263238"/>
<path d="M49.6411 63.053C49.6411 63.053 51.8411 58.162 54.5891 57.831C57.4951 57.481 58.5181 62.731 56.6981 65.083C54.5611 67.846 50.8911 67.189 50.8911 67.189L49.6411 63.053Z" fill="#FBCDB6"/>
<path d="M53.9539 61.006C54.341 60.5916 54.7776 60.2265 55.2539 59.919C55.3089 59.884 55.2539 59.79 55.1959 59.819C53.1799 60.833 51.4409 63.182 51.9349 65.558C51.9378 65.5758 51.947 65.592 51.9607 65.6036C51.9745 65.6153 51.9919 65.6217 52.0099 65.6217C52.028 65.6217 52.0454 65.6153 52.0591 65.6036C52.0729 65.592 52.082 65.5758 52.0849 65.558C52.1209 65.342 52.1549 65.128 52.1919 64.917C52.4602 64.3029 52.8619 63.7563 53.3679 63.317C53.9135 62.8934 54.5641 62.6265 55.2499 62.545C55.3309 62.535 55.3099 62.42 55.2329 62.422C54.6976 62.4348 54.1712 62.5613 53.6884 62.793C53.2057 63.0247 52.7777 63.3564 52.4329 63.766C52.5685 63.2171 52.7813 62.6902 53.0649 62.201C53.3212 61.7725 53.6229 61.3728 53.9649 61.009" fill="#263238"/>
<path d="M51.4683 67.038C51.4653 67.0388 51.4627 67.0406 51.4609 67.043C51.459 67.0455 51.458 67.0484 51.458 67.0515C51.458 67.0546 51.459 67.0575 51.4609 67.06C51.4627 67.0624 51.4653 67.0642 51.4683 67.065C51.4712 67.0642 51.4739 67.0624 51.4757 67.06C51.4776 67.0575 51.4786 67.0546 51.4786 67.0515C51.4786 67.0484 51.4776 67.0455 51.4757 67.043C51.4739 67.0406 51.4712 67.0388 51.4683 67.038Z" fill="#263238"/>
<path d="M24.6309 63.122C24.6385 63.1592 24.6418 63.1971 24.6409 63.235C24.6409 63.269 24.6359 63.229 24.6309 63.122Z" fill="#FFC727"/>
<path d="M24.6309 63.122C24.6384 63.1592 24.6417 63.1971 24.6409 63.235C24.6409 63.269 24.6359 63.229 24.6309 63.122Z" fill="#FFC727"/>
<path opacity="0.1" d="M57.3069 66.953C57.1868 66.2161 56.9938 65.4929 56.7309 64.794C56.4959 64.086 56.2359 63.385 55.9719 62.687C55.4399 61.287 54.8979 59.898 54.2959 58.534C54.1469 58.194 53.9959 57.847 53.8319 57.525C53.6405 57.2159 53.4147 56.9294 53.159 56.671C52.659 56.127 52.1069 55.619 51.5679 55.102C51.0289 54.585 50.4739 54.084 49.9179 53.585L48.252 52.085C49.434 53.0037 50.5846 53.961 51.7039 54.957C52.2659 55.457 52.8109 55.968 53.3319 56.512C53.6052 56.7833 53.8461 57.0853 54.0499 57.412C54.2319 57.751 54.3799 58.092 54.5349 58.435C55.1199 59.816 55.666 61.21 56.159 62.625C56.402 63.333 56.6409 64.043 56.8519 64.762C56.9519 65.122 57.0519 65.484 57.1379 65.849C57.2331 66.21 57.2898 66.5801 57.3069 66.953Z" fill="#050400"/>
<path opacity="0.1" d="M52.3442 52.37C53.8445 53.3489 55.2056 54.5262 56.3902 55.87C56.986 56.5434 57.5086 57.2782 57.9492 58.062C58.3943 58.8437 58.6929 59.7001 58.8302 60.589C58.7636 60.3757 58.6989 60.1627 58.6362 59.95C58.6074 59.8429 58.5685 59.7388 58.5202 59.639L58.3882 59.339C58.3442 59.239 58.3062 59.134 58.2582 59.039L58.1012 58.747C58.0023 58.55 57.8935 58.3581 57.7752 58.172L57.4182 57.615L57.0272 57.08C56.9012 56.899 56.7572 56.73 56.6192 56.558C56.4812 56.386 56.3432 56.213 56.1932 56.051C55.6112 55.3827 54.9957 54.7442 54.3492 54.138C54.0302 53.83 53.6992 53.538 53.3632 53.238C53.0272 52.938 52.6892 52.652 52.3442 52.37Z" fill="#050400"/>
<path opacity="0.1" d="M24.2051 59.937C24.279 59.3299 24.3943 58.7285 24.5501 58.137C24.6966 57.5417 24.8745 56.9545 25.0831 56.378C25.1891 56.0871 25.312 55.8026 25.4511 55.526C25.6001 55.259 25.7421 54.989 25.8971 54.726L26.3541 53.931C26.5151 53.671 26.6681 53.407 26.8351 53.151C26.7201 53.435 26.5891 53.712 26.4671 53.991L26.0751 54.818C25.9471 55.094 25.8061 55.364 25.6751 55.637C25.5457 55.9084 25.4309 56.1864 25.3311 56.47C25.1191 57.037 24.9361 57.616 24.7451 58.194C24.6504 58.4833 24.5594 58.7737 24.4721 59.065C24.3741 59.351 24.2901 59.643 24.2051 59.937Z" fill="#050400"/>
<path opacity="0.1" d="M47.8739 44.414C46.1279 45.849 42.1089 49.074 41.0439 49.297C40.6779 49.3578 40.3079 49.3912 39.9369 49.397C38.215 48.2492 36.4077 47.2349 34.5309 46.363C33.2602 47.1573 32.0672 48.0696 30.9679 49.088C29.6281 48.6786 28.3292 48.1456 27.0879 47.496C27.7707 46.0609 28.8968 44.8833 30.2999 44.137C32.6582 43.2854 35.1023 42.6936 37.5889 42.372C37.5889 42.372 41.7659 41.489 47.8739 44.414Z" fill="#050400"/>
</svg>
