<svg width="21" height="14" viewBox="0 0 21 14" fill="none" xmlns="http://www.w3.org/2000/svg">
<path d="M7.33405 0.50983C7.50561 0.681016 7.6026 0.913039 7.60391 1.15539C7.60522 1.39774 7.51075 1.6308 7.34105 1.80383L3.07305 6.08583H19.3361C19.5785 6.08583 19.8109 6.18213 19.9823 6.35353C20.1538 6.52494 20.2501 6.75742 20.2501 6.99983C20.2501 7.24224 20.1538 7.47472 19.9823 7.64613C19.8109 7.81753 19.5785 7.91383 19.3361 7.91383H3.07305L7.34805 12.1998C7.5163 12.3736 7.60979 12.6064 7.60849 12.8483C7.60718 13.0901 7.51118 13.3219 7.34105 13.4938C7.25609 13.5779 7.1554 13.6444 7.04474 13.6895C6.93408 13.7347 6.81561 13.7576 6.6961 13.7569C6.57659 13.7563 6.45838 13.7321 6.34822 13.6857C6.23805 13.6394 6.13809 13.5718 6.05405 13.4868L0.260053 7.64683C0.180916 7.56224 0.116674 7.46487 0.0700526 7.35883C0.0225648 7.24762 -0.00127353 7.12775 5.2428e-05 7.00683C-0.000127047 6.76774 0.0931824 6.53806 0.260053 6.36683L6.05405 0.53083C6.13636 0.444785 6.23492 0.375926 6.34402 0.328244C6.45313 0.280562 6.57061 0.255004 6.68967 0.253051C6.80872 0.251098 6.92698 0.272788 7.03759 0.316865C7.1482 0.360942 7.24897 0.426531 7.33405 0.50983Z" fill="black"/>
</svg>
