<svg width="16" height="18" viewBox="0 0 16 18" fill="none" xmlns="http://www.w3.org/2000/svg">
<path d="M15.75 13.5C14.765 13.5 14.65 12.375 13.131 12.375C11.612 12.375 11.485 13.5 10.5 13.5C9.515 13.5 9.4 12.375 7.875 12.375C6.369 12.375 6.215 13.5 5.256 13.5C4.266 13.5 4.156 12.375 2.628 12.375C1.1 12.375 0.988 13.5 0 13.5V10.688C0 10.2403 0.177842 9.81097 0.494404 9.4944C0.810965 9.17784 1.24031 9 1.688 9H2.25V3.938H4.5V9H6.75V3.938H9V9H11.25V3.938H13.5V9H14.063C14.5107 9 14.94 9.17784 15.2566 9.4944C15.5732 9.81097 15.751 10.2403 15.751 10.688L15.75 13.5ZM15.75 18H0V14.625C1.524 14.625 1.644 13.5 2.628 13.5C3.612 13.5 3.728 14.625 5.256 14.625C6.762 14.625 6.916 13.5 7.875 13.5C8.865 13.5 8.975 14.625 10.503 14.625C12.031 14.625 12.147 13.5 13.131 13.5C14.097 13.5 14.231 14.625 15.75 14.625V18ZM3.375 3.375C3.22715 3.3754 3.08068 3.34657 2.94401 3.29017C2.80734 3.23377 2.68317 3.15092 2.57862 3.04638C2.47408 2.94183 2.39123 2.81766 2.33483 2.68099C2.27843 2.54432 2.2496 2.39785 2.25 2.25C2.25 1.16 3.375 1.441 3.375 0C3.8 0 4.5 1.037 4.5 1.969C4.5 2.901 4 3.375 3.375 3.375ZM7.875 3.375C7.72715 3.3754 7.58068 3.34657 7.44401 3.29017C7.30734 3.23377 7.18317 3.15092 7.07862 3.04638C6.97408 2.94183 6.89123 2.81766 6.83483 2.68099C6.77843 2.54432 6.7496 2.39785 6.75 2.25C6.75 1.16 7.875 1.441 7.875 0C8.3 0 9 1.037 9 1.969C9 2.901 8.5 3.375 7.875 3.375ZM12.375 3.375C12.2272 3.3754 12.0807 3.34657 11.944 3.29017C11.8073 3.23377 11.6832 3.15092 11.5786 3.04638C11.4741 2.94183 11.3912 2.81766 11.3348 2.68099C11.2784 2.54432 11.2496 2.39785 11.25 2.25C11.25 1.16 12.375 1.441 12.375 0C12.8 0 13.5 1.037 13.5 1.969C13.5 2.901 13 3.375 12.375 3.375Z" fill="#828282"/>
</svg>
