<svg width="43" height="43" viewBox="0 0 43 43" fill="none" xmlns="http://www.w3.org/2000/svg">
<path d="M3.36894 42.0069C2.98668 41.8757 2.62658 41.6873 2.30095 41.4479C1.93019 41.1123 1.65423 40.6849 1.5009 40.2089C0.988044 38.1508 0.80876 36.0238 0.969891 33.9089C0.967801 33.6913 1.01584 33.4762 1.11015 33.2802C1.20446 33.0841 1.34256 32.9123 1.51384 32.7782C1.68511 32.644 1.885 32.5511 2.09794 32.5064C2.31089 32.4618 2.53126 32.4668 2.74199 32.5209C3.75455 32.6653 4.69761 33.1194 5.44194 33.8209C5.91594 33.5389 6.36897 33.2339 6.85197 32.9919C7.55897 32.6379 8.282 32.3139 9.012 32.0119C9.12069 31.9867 9.21708 31.9242 9.28434 31.8352C9.3516 31.7461 9.38538 31.6363 9.37992 31.5249C9.44815 30.0632 9.69261 28.615 10.108 27.2119C10.163 27.0249 10.261 26.7779 10.408 26.7119C10.512 26.6623 10.6258 26.6366 10.741 26.6366C10.8562 26.6366 10.9699 26.6623 11.0739 26.7119C11.1606 26.7977 11.2271 26.9017 11.2686 27.0164C11.3101 27.131 11.3257 27.2535 11.314 27.3749C11.214 28.0199 11.0019 28.6469 10.8799 29.2899C10.4555 31.5257 10.4732 33.8229 10.9319 36.0519C10.9518 36.1094 10.9762 36.1653 11.0049 36.2189C11.9873 35.3488 13.2751 34.9045 14.585 34.9839C14.5021 34.4207 14.4543 33.853 14.4419 33.2839C14.4859 32.1139 14.5693 30.9452 14.6919 29.7779C14.7609 29.1159 15.0429 28.8829 15.4779 28.9669C15.8979 29.0479 16.0189 29.3749 15.8849 30.0359C15.4843 31.9855 15.558 34.0028 16.0999 35.9179C16.1919 36.2459 16.3139 36.5659 16.4259 36.8879C16.6179 37.4369 16.814 37.9879 17.007 38.5319H26.007C26.34 37.5109 26.725 36.4899 27.007 35.4419C27.4648 33.6603 27.499 31.7962 27.107 29.9989C26.981 29.3779 27.1069 29.0489 27.5169 28.9679C27.9539 28.8819 28.1879 29.1239 28.3169 29.7729C28.6514 31.4108 28.6853 33.0959 28.4169 34.7459C28.4115 34.8231 28.4115 34.9007 28.4169 34.9779C29.0758 34.9441 29.7349 35.041 30.3562 35.2631C30.9775 35.4852 31.5487 35.828 32.0369 36.2719C33.0038 31.8249 32.1962 27.1761 29.7859 23.3159C29.4489 23.5749 29.1339 23.8039 28.8379 24.0549C28.8043 24.0933 28.7793 24.1383 28.7644 24.1871C28.7496 24.2359 28.7454 24.2873 28.752 24.3379C28.8047 24.8221 28.748 25.3119 28.5862 25.7713C28.4245 26.2307 28.1618 26.648 27.8174 26.9923C27.473 27.3367 27.0557 27.5995 26.5964 27.7612C26.137 27.923 25.6472 27.9796 25.163 27.9269C25.0088 27.9 24.8501 27.92 24.7074 27.9844C24.5648 28.0488 24.4448 28.1545 24.363 28.2879C24.025 28.7234 23.5921 29.0758 23.0971 29.3182C22.6021 29.5607 22.0582 29.6867 21.507 29.6867C20.9558 29.6867 20.4119 29.5607 19.9169 29.3182C19.4219 29.0758 18.9888 28.7234 18.6509 28.2879C18.563 28.1506 18.4357 28.043 18.2857 27.9791C18.1357 27.9153 17.9699 27.8981 17.81 27.9299C17.3839 27.9795 16.9522 27.9419 16.5411 27.8194C16.13 27.6969 15.7481 27.492 15.4186 27.2173C15.0892 26.9426 14.819 26.6037 14.6247 26.2213C14.4303 25.8389 14.3158 25.421 14.288 24.9929C14.288 24.643 14.187 24.3006 13.9972 24.0067C13.8074 23.7128 13.5368 23.4799 13.2179 23.3359C12.9629 23.7759 12.6969 24.2299 12.4379 24.6879C12.2019 25.1049 11.879 25.2479 11.538 25.0729C11.197 24.8979 11.119 24.5319 11.352 24.1159C11.645 23.5919 11.9719 23.0869 12.2649 22.5629C12.2952 22.5037 12.3131 22.4389 12.3174 22.3725C12.3217 22.3061 12.3124 22.2395 12.29 22.1769C11.908 21.3679 11.504 20.5689 11.071 19.6939C10.544 19.7861 10.002 19.7357 9.50102 19.5479C9.00009 19.3601 8.55849 19.0418 8.22197 18.6259C7.9619 18.3157 7.76876 17.9551 7.65483 17.5667C7.5409 17.1782 7.50866 16.7704 7.55998 16.3689C7.61369 15.9413 7.75796 15.53 7.9832 15.1626C8.20843 14.7952 8.50944 14.48 8.86613 14.2381C9.22282 13.9962 9.62698 13.8332 10.0517 13.7598C10.4764 13.6865 10.9118 13.7046 11.3289 13.8129C11.6689 13.0239 11.9609 12.2129 12.3589 11.4599C12.7569 10.7069 13.252 10.0259 13.717 9.29192C13.6678 9.26101 13.6167 9.23328 13.564 9.20891C13.2187 9.09956 12.9038 8.91094 12.6445 8.65813C12.3851 8.40531 12.1886 8.09532 12.0705 7.75294C11.9524 7.41057 11.9162 7.04531 11.9645 6.68639C12.0129 6.32746 12.1445 5.98484 12.3489 5.68591C12.5339 5.35591 12.921 5.05591 12.929 4.73491C12.936 4.43491 12.536 4.14391 12.357 3.82491C12.1257 3.47591 11.9898 3.07249 11.9627 2.65471C11.9356 2.23693 12.0181 1.81932 12.2023 1.44336C12.3865 1.06739 12.6659 0.746156 13.0126 0.511536C13.3594 0.276915 13.7615 0.137076 14.179 0.105911C14.298 0.0819113 14.4129 0.0459078 14.5299 0.0149078H15.8429C15.8872 0.0437156 15.9354 0.0659419 15.986 0.0809021C16.9075 0.210747 17.7937 0.523188 18.5929 0.999908C18.9789 1.22591 19.3539 1.4699 19.7389 1.7079C20.2146 1.23857 20.8567 0.976508 21.5249 0.978912C22.1817 0.992175 22.8095 1.25163 23.284 1.7059C23.64 1.4809 23.9729 1.26891 24.3079 1.05891C25.1921 0.546118 26.1595 0.192426 27.1659 0.013916H28.4789C28.5959 0.044916 28.712 0.0809042 28.83 0.104904C30.783 0.504904 31.5939 2.14991 30.6519 3.82391C30.4729 4.14291 30.074 4.4359 30.081 4.7339C30.088 5.0549 30.476 5.35491 30.66 5.68491C30.8642 5.9839 30.9956 6.32651 31.0439 6.68538C31.0921 7.04424 31.0558 7.40942 30.9378 7.75172C30.8197 8.09403 30.6233 8.40399 30.3641 8.65683C30.1049 8.90967 29.7901 9.09838 29.445 9.2079C29.377 9.2369 29.3129 9.27891 29.2299 9.32491C30.3286 10.644 31.1426 12.1761 31.6209 13.8249C32.0408 13.7087 32.4809 13.6841 32.9112 13.7527C33.3414 13.8214 33.7518 13.9816 34.1148 14.2226C34.4777 14.4637 34.7848 14.7799 35.0149 15.1498C35.2451 15.5197 35.3931 15.9348 35.4489 16.3669C35.4998 16.7683 35.4674 17.176 35.3537 17.5643C35.2399 17.9526 35.0474 18.3134 34.788 18.6239C34.452 19.0409 34.0101 19.3601 33.5086 19.5479C33.0071 19.7358 32.4642 19.7855 31.9369 19.6919C31.5059 20.5649 31.103 21.3649 30.721 22.1739C30.6968 22.2359 30.6862 22.3024 30.69 22.3688C30.6938 22.4352 30.7118 22.5001 30.743 22.5589C32.4056 25.0647 33.3787 27.9644 33.564 30.9659C33.5374 31.2523 33.6161 31.5386 33.7854 31.7711C33.9548 32.0036 34.2032 32.1664 34.4839 32.2289C35.222 32.5139 35.9355 32.859 36.617 33.2609C36.94 33.4289 37.239 33.6419 37.555 33.8379C38.3017 33.1327 39.2483 32.6758 40.2649 32.5299C40.4757 32.4768 40.6959 32.4727 40.9085 32.5177C41.1211 32.5628 41.3206 32.656 41.4917 32.79C41.6628 32.9241 41.801 33.0955 41.8957 33.2911C41.9903 33.4868 42.0391 33.7015 42.038 33.9189C42.1983 36.0338 42.019 38.1607 41.507 40.2189C41.3534 40.6948 41.0775 41.1221 40.707 41.4579C40.3816 41.6971 40.0218 41.8856 39.6399 42.0169H38.82L36.9259 41.5169C36.4549 41.3939 36.2259 41.1169 36.3069 40.7549C36.3959 40.3649 36.73 40.2009 37.216 40.3179C37.773 40.4519 38.3269 40.6019 38.8849 40.7299C39.0462 40.7786 39.2161 40.7917 39.3829 40.7683C39.5496 40.7449 39.7094 40.6855 39.851 40.5943C39.9926 40.5031 40.1126 40.3823 40.2029 40.2401C40.2932 40.0979 40.3516 39.9378 40.3739 39.7709C40.509 39.1997 40.6056 38.6201 40.663 38.0359C40.748 36.7299 40.779 35.4199 40.83 34.1109C40.842 33.7789 40.672 33.6929 40.361 33.7509C39.6555 33.8661 38.9992 34.186 38.4739 34.6709C38.3797 34.8035 38.2575 34.9137 38.116 34.9939C37.9745 35.0741 37.8172 35.1222 37.6551 35.1349C37.4929 35.1476 37.33 35.1245 37.1778 35.0673C37.0255 35.0101 36.8877 34.9202 36.774 34.8039C36.66 34.7289 36.5519 34.6429 36.4319 34.5789C35.5319 34.0989 34.638 33.6239 33.732 33.1419C33.567 34.2819 33.468 35.3169 33.257 36.3279C33.046 37.3389 32.7239 38.3209 32.4419 39.3479L33.9839 39.6339C34.0779 39.6509 34.172 39.6669 34.264 39.6929C34.3423 39.7059 34.4172 39.7351 34.4837 39.7786C34.5502 39.8221 34.6068 39.8789 34.6502 39.9455C34.6935 40.0121 34.7225 40.0869 34.7354 40.1653C34.7483 40.2437 34.7447 40.324 34.7249 40.4009C34.7185 40.4772 34.696 40.5512 34.6587 40.618C34.6215 40.6848 34.5704 40.7429 34.5088 40.7883C34.4473 40.8338 34.3767 40.8655 34.3019 40.8815C34.2271 40.8975 34.1497 40.8973 34.075 40.8809C33.44 40.7939 32.809 40.6749 32.175 40.5579C32.0656 40.5286 31.95 40.5328 31.8431 40.5698C31.7361 40.6069 31.6427 40.6752 31.575 40.7659C31.2396 41.157 30.8127 41.4592 30.3323 41.6456C29.852 41.8319 29.3331 41.8967 28.8217 41.8342C28.3103 41.7717 27.8222 41.5837 27.4009 41.2871C26.9797 40.9904 26.6382 40.5943 26.4069 40.1339C26.3589 40.0612 26.2966 39.9991 26.2237 39.9515C26.1507 39.9038 26.0688 39.8716 25.983 39.8569C25.4948 39.7938 25.0031 39.7624 24.5109 39.7629C22.0529 39.7779 19.5939 39.8069 17.1359 39.8349C17.0237 39.8199 16.9097 39.8408 16.8101 39.8947C16.7106 39.9486 16.6307 40.0327 16.582 40.1349C16.352 40.5955 16.0112 40.9917 15.5901 41.2879C15.1691 41.5841 14.681 41.771 14.1698 41.8318C13.6586 41.8926 13.1403 41.8254 12.6615 41.6362C12.1828 41.447 11.7585 41.1417 11.4269 40.7479C11.3641 40.6615 11.2766 40.5962 11.1759 40.5605C11.0753 40.5248 10.9662 40.5204 10.863 40.5479C10.14 40.6889 9.40798 40.7919 8.68998 40.9529C7.18998 41.2899 5.68999 41.6529 4.19499 42.0099L3.36894 42.0069ZM22.913 11.0309C22.9988 11.364 23.1025 11.6921 23.2239 12.0139C23.322 12.1707 23.3729 12.3525 23.3704 12.5375C23.3679 12.7224 23.3123 12.9028 23.21 13.0569C23.0933 13.2025 22.9356 13.3096 22.7572 13.3643C22.5789 13.4191 22.3883 13.4189 22.21 13.3639C21.0254 13.258 19.8892 12.8432 18.915 12.161C17.9407 11.4787 17.1626 10.5529 16.658 9.47591C16.6291 9.42132 16.5973 9.36825 16.5629 9.31691C16.3404 9.37592 16.1121 9.40947 15.882 9.41692C15.6717 9.40988 15.4631 9.45771 15.2769 9.55573C15.0907 9.65374 14.9332 9.79855 14.82 9.97591C13.6823 11.2958 12.8765 12.8685 12.4699 14.5629C12.2859 15.3229 12.0189 15.4339 11.3009 15.1439C10.976 15.0078 10.6229 14.9525 10.2719 14.9829C9.93406 15.0132 9.6144 15.1489 9.35795 15.3709C9.1015 15.5929 8.92129 15.8899 8.84294 16.2199C8.73757 16.5342 8.7289 16.8729 8.81804 17.1922C8.90717 17.5114 9.09001 17.7966 9.34294 18.0109C9.5918 18.2497 9.90742 18.4071 10.2478 18.4623C10.5883 18.5175 10.9374 18.4678 11.2489 18.3199C11.8489 18.0789 12.1849 18.2449 12.2929 18.8589C12.4561 20.0191 12.9477 21.1085 13.7095 21.9986C14.4714 22.8888 15.4718 23.5425 16.5929 23.8829C19.5888 24.9177 22.8348 24.9814 25.8689 24.0649C27.1148 23.7842 28.2457 23.1307 29.111 22.1915C29.9763 21.2522 30.5351 20.0716 30.7129 18.8069C30.8129 18.2309 31.1609 18.0879 31.7549 18.3259C32.1207 18.4877 32.5307 18.5201 32.9173 18.4178C33.3039 18.3154 33.6442 18.0845 33.882 17.7629C34.1143 17.4464 34.235 17.0618 34.2254 16.6694C34.2158 16.2769 34.0764 15.8987 33.8289 15.5939C33.575 15.2852 33.2238 15.072 32.8328 14.9891C32.4418 14.9063 32.0342 14.9587 31.6769 15.1379C31.0009 15.4579 30.7029 15.3169 30.5299 14.5899C30.1608 13.0433 29.4614 11.5948 28.4799 10.3439C28.3121 10.0674 28.0817 9.83423 27.8073 9.66313C27.5328 9.49204 27.2221 9.38782 26.8999 9.3589C26.1988 9.24664 25.51 9.0675 24.8429 8.82391C24.9819 9.32391 25.098 9.79191 25.243 10.2519C25.3104 10.3957 25.3354 10.5558 25.3151 10.7133C25.2948 10.8709 25.2301 11.0193 25.1283 11.1413C25.0266 11.2633 24.8921 11.3538 24.7408 11.402C24.5894 11.4503 24.4276 11.4544 24.274 11.4139C23.846 11.3329 23.423 11.1769 22.913 11.0319V11.0309ZM9.29191 33.2179C9.16033 33.2579 9.03167 33.307 8.9069 33.3649C7.9939 33.8529 7.0719 34.3259 6.1779 34.8459C6.06413 34.9456 5.9313 35.0212 5.7874 35.0679C5.64349 35.1145 5.49151 35.1314 5.34086 35.1175C5.19021 35.1035 5.04407 35.0591 4.91117 34.9868C4.77828 34.9144 4.66144 34.8158 4.56791 34.6969C4.09424 34.2389 3.49901 33.9265 2.85295 33.7969C2.21195 33.6689 2.189 33.6759 2.158 34.3469C2.08742 36.1506 2.24361 37.9561 2.62297 39.7209C2.64104 39.8989 2.69931 40.0704 2.7935 40.2225C2.88769 40.3746 3.01526 40.5033 3.16655 40.5988C3.31783 40.6943 3.48885 40.7541 3.66667 40.7737C3.84449 40.7933 4.02446 40.7722 4.19291 40.7119C5.46891 40.4179 6.74192 40.1119 8.02092 39.8309C8.86992 39.6459 9.72789 39.5039 10.5689 39.3459C10.2879 38.3209 9.9689 37.3369 9.7559 36.3289C9.5429 35.3209 9.44591 34.2769 9.29191 33.2179ZM19.003 4.76291C18.6715 4.65168 18.3122 4.65631 17.9837 4.77603C17.6552 4.89576 17.3771 5.12348 17.195 5.42191C16.967 5.82191 16.6499 5.94692 16.3219 5.77892C16.2427 5.73698 16.1733 5.67868 16.1182 5.60786C16.0632 5.53705 16.0237 5.45534 16.0026 5.36816C15.9815 5.28099 15.9793 5.19033 15.9959 5.10219C16.0125 5.01405 16.0476 4.93044 16.0989 4.8569C16.2488 4.5479 16.4654 4.27603 16.7331 4.0609C17.0008 3.84577 17.3129 3.69277 17.6469 3.61292C18.0974 3.51704 18.5527 3.44526 19.0109 3.3979C19.0999 2.7599 19.104 2.7549 18.57 2.4149C18.2731 2.22017 17.9663 2.04094 17.6509 1.87791C16.7209 1.36883 15.6565 1.15928 14.6029 1.27791C13.1469 1.47791 12.736 2.46691 13.689 3.57791C13.8461 3.72965 13.9707 3.91169 14.0553 4.11301C14.14 4.31432 14.183 4.53072 14.1816 4.74911C14.1802 4.96751 14.1344 5.18335 14.0472 5.38356C13.9599 5.58377 13.833 5.7642 13.674 5.91391C13.4614 6.09265 13.309 6.33248 13.2375 6.60083C13.1659 6.86918 13.1786 7.15306 13.274 7.41391C13.525 8.00091 14.0979 8.11991 14.6609 8.21391C14.6879 8.21391 14.716 8.21391 14.743 8.21991C16.2739 8.27071 17.7709 7.76198 18.9539 6.78891C18.9867 6.76793 19.015 6.74056 19.037 6.70844C19.059 6.67631 19.0743 6.64008 19.082 6.60191C19.067 5.98291 19.033 5.37291 19.003 4.76291ZM23.9429 4.77991C23.9429 5.31991 23.933 5.87991 23.95 6.43491C23.9491 6.50734 23.9632 6.57916 23.9916 6.6458C24.02 6.71243 24.062 6.77242 24.1149 6.82191C24.8521 7.25737 25.6152 7.64743 26.3999 7.98991C27.1823 8.30538 28.0495 8.3407 28.8549 8.0899C29.051 8.06113 29.2362 7.98131 29.3918 7.85844C29.5473 7.73557 29.6679 7.57397 29.7414 7.38983C29.8148 7.20569 29.8385 7.00549 29.8102 6.80928C29.7819 6.61307 29.7025 6.42776 29.58 6.27191C29.4772 6.09571 29.3597 5.92845 29.2289 5.77191C29.0886 5.63943 28.9766 5.4798 28.8998 5.30273C28.823 5.12567 28.783 4.93485 28.7821 4.74184C28.7813 4.54883 28.8197 4.35766 28.8949 4.17993C28.9702 4.0022 29.0807 3.8416 29.2199 3.7079C29.4027 3.48734 29.5573 3.24479 29.68 2.9859C29.7606 2.84469 29.8077 2.68684 29.8177 2.52452C29.8276 2.3622 29.8002 2.19977 29.7373 2.04977C29.6745 1.89978 29.578 1.76623 29.4554 1.65944C29.3327 1.55265 29.1872 1.47549 29.0299 1.43391C28.6827 1.31205 28.318 1.24753 27.95 1.2429C26.6561 1.26021 25.4006 1.68502 24.362 2.45691C23.853 2.80391 23.8519 2.80191 24.0309 3.45691C24.2149 3.45691 24.4059 3.44191 24.5939 3.45691C25.0752 3.45976 25.5464 3.59497 25.956 3.84772C26.3655 4.10047 26.6976 4.46102 26.9159 4.88991C26.9628 4.96228 26.994 5.04371 27.0074 5.12891C27.0208 5.2141 27.0161 5.30116 26.9937 5.38443C26.9713 5.4677 26.9315 5.54532 26.8771 5.61224C26.8227 5.67917 26.7548 5.73391 26.6779 5.7729C26.6014 5.81119 26.5179 5.83325 26.4325 5.83769C26.3471 5.84213 26.2618 5.82887 26.1818 5.79872C26.1018 5.76857 26.0288 5.72219 25.9676 5.66251C25.9063 5.60282 25.8582 5.53112 25.826 5.4519C25.6397 5.13794 25.3496 4.89889 25.0058 4.77602C24.662 4.65314 24.286 4.65417 23.9429 4.77892V4.77991ZM27.5159 24.8289C23.5991 26.2822 19.2887 26.2691 15.3809 24.7919C15.492 25.1428 15.6384 25.4816 15.8179 25.8029C16.0723 26.1635 16.431 26.4376 16.8457 26.5883C17.2605 26.739 17.7115 26.7591 18.138 26.6459C18.3856 26.5895 18.6448 26.6155 18.8764 26.7198C19.1079 26.8241 19.2991 27.0011 19.4209 27.2239C19.6 27.5122 19.827 27.7679 20.092 27.9799C20.3585 28.178 20.6636 28.3179 20.9876 28.3905C21.3116 28.4632 21.6474 28.4669 21.9729 28.4014C22.2985 28.336 22.6067 28.2029 22.8775 28.0107C23.1483 27.8186 23.3757 27.5716 23.545 27.2859C23.6632 27.0369 23.8651 26.8373 24.1155 26.7222C24.366 26.607 24.649 26.5835 24.915 26.6559C25.0491 26.6818 25.1853 26.6958 25.3219 26.6979C25.589 26.7198 25.8577 26.6887 26.1127 26.6065C26.3677 26.5243 26.6038 26.3925 26.8078 26.2188C27.0117 26.045 27.1794 25.8327 27.3011 25.594C27.4228 25.3554 27.4961 25.095 27.5169 24.8279L27.5159 24.8289ZM14.403 36.1999C13.8617 36.1739 13.3218 36.2753 12.8268 36.4958C12.3318 36.7164 11.8955 37.05 11.5529 37.4699C11.5042 37.5366 11.4702 37.6129 11.4529 37.6937C11.4357 37.7745 11.4356 37.8581 11.4529 37.9389C11.6237 38.4705 11.8261 38.9914 12.059 39.4989C12.1607 39.7271 12.3065 39.9328 12.4882 40.1042C12.6699 40.2756 12.8838 40.4093 13.1175 40.4976C13.3512 40.5858 13.6 40.6269 13.8497 40.6183C14.0993 40.6098 14.3448 40.5519 14.5719 40.4479C15.0241 40.2417 15.3785 39.8679 15.5606 39.4055C15.7426 38.9431 15.7381 38.428 15.5479 37.9689C15.3703 37.5711 15.2167 37.1631 15.0879 36.7469C14.9809 36.3039 14.76 36.1189 14.403 36.1989V36.1999ZM28.561 36.1999C28.227 36.1049 28.0289 36.3109 27.9159 36.7249C27.7843 37.1404 27.6308 37.5487 27.456 37.9479C27.2566 38.4109 27.248 38.9338 27.432 39.4031C27.6161 39.8723 27.978 40.25 28.439 40.4539C28.6668 40.5553 28.9123 40.6106 29.1615 40.6167C29.4108 40.6227 29.6588 40.5793 29.8912 40.4891C30.1236 40.3988 30.3358 40.2634 30.5157 40.0907C30.6955 39.918 30.8394 39.7115 30.939 39.4829C31.1663 38.9879 31.3626 38.4792 31.5269 37.9599C31.5461 37.8742 31.5472 37.7854 31.5299 37.6993C31.5127 37.6132 31.4776 37.5316 31.4269 37.4599C31.0812 37.0404 30.6419 36.7078 30.1443 36.4888C29.6468 36.2698 29.1048 36.1705 28.5619 36.1989L28.561 36.1999ZM17.805 8.93291C18.156 9.75333 18.7148 10.4681 19.4262 11.0068C20.1376 11.5455 20.9771 11.8895 21.862 12.0049C21.817 11.7109 21.753 11.4189 21.733 11.1229C21.7113 10.8231 21.7164 10.5219 21.748 10.2229C21.7538 10.0677 21.8027 9.91723 21.8892 9.7883C21.9757 9.65936 22.0965 9.55708 22.238 9.49292C22.3794 9.42876 22.5358 9.40525 22.6899 9.42503C22.8439 9.44481 22.9893 9.50709 23.1099 9.6049C23.3229 9.7449 23.5409 9.8769 23.7799 10.0269C23.7245 9.51282 23.6996 8.99594 23.705 8.47891C23.723 8.40319 23.7252 8.32454 23.7113 8.24794C23.6975 8.17134 23.668 8.09842 23.6246 8.0338C23.5812 7.96917 23.5248 7.91422 23.4591 7.87242C23.3935 7.83062 23.3199 7.80287 23.243 7.79091C23.0106 8.02315 22.734 8.20658 22.4297 8.3304C22.1254 8.45422 21.7995 8.51593 21.471 8.5119C20.8226 8.50173 20.2029 8.24291 19.7399 7.78891L17.805 8.93291ZM20.264 4.7189C20.264 5.1559 20.256 5.59391 20.264 6.03091C20.263 6.19527 20.2946 6.35818 20.3567 6.51033C20.4189 6.66248 20.5105 6.80087 20.6263 6.91756C20.742 7.03424 20.8796 7.12693 21.0313 7.19031C21.1829 7.25369 21.3456 7.28652 21.5099 7.28691C21.835 7.28089 22.1447 7.14766 22.3726 6.91582C22.6005 6.68398 22.7285 6.37201 22.7289 6.04691C22.7416 5.17224 22.7416 4.29758 22.7289 3.42291C22.7301 3.26189 22.6993 3.10224 22.6382 2.95325C22.5771 2.80426 22.487 2.6689 22.3731 2.55508C22.2592 2.44127 22.1237 2.35125 21.9747 2.29027C21.8256 2.22929 21.6659 2.19857 21.5049 2.19991C21.3441 2.19699 21.1842 2.22598 21.0346 2.2852C20.885 2.34442 20.7486 2.4327 20.6333 2.54492C20.518 2.65715 20.4261 2.7911 20.3628 2.93906C20.2996 3.08701 20.2664 3.24602 20.2649 3.40691C20.2539 3.84291 20.2659 4.27991 20.2649 4.71791L20.264 4.7189Z" fill="#828282"/>
<path d="M21.3862 20.5498C20.5188 20.5332 19.6904 20.1863 19.0701 19.5798C18.9962 19.5303 18.9335 19.4659 18.886 19.3906C18.8386 19.3154 18.8075 19.231 18.7947 19.143C18.7819 19.055 18.7877 18.9653 18.8117 18.8796C18.8357 18.794 18.8774 18.7143 18.9341 18.6458C18.9943 18.5805 19.0675 18.5286 19.149 18.4934C19.2304 18.4581 19.3184 18.4403 19.4072 18.4412C19.4959 18.442 19.5835 18.4615 19.6642 18.4983C19.745 18.5351 19.8172 18.5884 19.8762 18.6548C20.0886 18.8701 20.3417 19.041 20.6208 19.1576C20.8998 19.2743 21.1992 19.3343 21.5016 19.3343C21.8041 19.3343 22.1035 19.2743 22.3825 19.1576C22.6615 19.041 22.9147 18.8701 23.1271 18.6548C23.1862 18.5887 23.2586 18.5357 23.3394 18.4992C23.4203 18.4628 23.5078 18.4437 23.5965 18.4433C23.6852 18.4428 23.7729 18.4609 23.8542 18.4965C23.9354 18.5321 24.0084 18.5843 24.0682 18.6498C24.1247 18.7187 24.1661 18.7986 24.1899 18.8845C24.2137 18.9703 24.2193 19.0602 24.2064 19.1484C24.1934 19.2365 24.162 19.3209 24.1144 19.3963C24.0669 19.4716 24.0041 19.5362 23.9301 19.5858C23.24 20.2261 22.3273 20.572 21.3862 20.5498Z" fill="#828282"/>
<path d="M18.1449 15.377C18.1449 15.869 17.9008 16.166 17.5158 16.153C17.1308 16.14 16.9109 15.84 16.9159 15.341C16.9209 14.842 17.1568 14.563 17.5538 14.573C17.9508 14.583 18.1479 14.857 18.1449 15.377Z" fill="#828282"/>
<path d="M26.2179 15.3479C26.0985 15.61 25.9348 15.8495 25.7338 16.0559C25.6327 16.0961 25.5238 16.1129 25.4152 16.1051C25.3067 16.0973 25.2013 16.0651 25.1069 16.0109C25.0194 15.9281 24.9495 15.8287 24.9012 15.7185C24.8529 15.6082 24.8271 15.4894 24.8255 15.369C24.8239 15.2486 24.8465 15.1291 24.8919 15.0176C24.9373 14.9062 25.0047 14.8049 25.0899 14.7199C25.1831 14.6616 25.2883 14.6252 25.3975 14.6132C25.5068 14.6013 25.6173 14.6141 25.7209 14.6509C25.9239 14.7829 26.0289 15.0689 26.2179 15.3479Z" fill="#828282"/>
</svg>
