<svg width="30" height="38" viewBox="0 0 30 38" fill="none" xmlns="http://www.w3.org/2000/svg">
<path d="M8.80312 6.71203C8.80312 5.71203 8.77704 4.84301 8.81704 3.97601C8.83652 3.65802 8.94009 3.35095 9.11709 3.08606C9.61709 2.35406 10.1762 1.66304 10.6972 0.946042C10.789 0.802613 10.9167 0.685723 11.0678 0.607114C11.2188 0.528505 11.3879 0.490928 11.558 0.498044C14.375 0.509044 17.1931 0.498054 20.0111 0.508054C20.7821 0.493907 21.5319 0.759659 22.122 1.2561C22.712 1.75254 23.1022 2.44598 23.2201 3.208C23.4751 4.584 23.731 5.95905 23.963 7.33905C23.9748 7.46025 24.021 7.57554 24.0961 7.67138C24.1712 7.76723 24.2722 7.8396 24.3871 7.88C25.8761 8.547 27.3591 9.229 28.8461 9.901C29.0175 9.9547 29.1705 10.0555 29.2875 10.1918C29.4045 10.3281 29.4808 10.4945 29.508 10.6721C29.531 10.8194 29.5175 10.9701 29.4684 11.111C29.4193 11.2518 29.3361 11.3784 29.2265 11.4795C29.1168 11.5806 28.9841 11.6532 28.8397 11.6908C28.6954 11.7284 28.5441 11.7298 28.3991 11.695C26.5991 11.445 24.7992 11.181 22.9992 10.921C22.7682 10.888 22.537 10.855 22.307 10.821C21.9267 10.7686 21.5683 10.6125 21.2709 10.3698C20.9735 10.1271 20.7485 9.80708 20.621 9.445C19.9963 7.887 19.3725 6.32905 18.7492 4.77105C18.6862 4.61505 18.5981 4.47105 18.5211 4.31805L18.3729 4.35101V5.06305C18.3729 6.16305 18.293 6.24503 17.173 6.24603H15.831C15.7541 6.9476 15.8646 7.65698 16.151 8.302C16.3207 8.60591 16.4236 8.94258 16.4528 9.28943C16.482 9.63627 16.4367 9.9853 16.3202 10.3133C16.2037 10.6413 16.0185 10.9406 15.777 11.1913C15.5355 11.442 15.2435 11.6383 14.9201 11.767C14.7963 11.7971 14.6884 11.8727 14.6178 11.9786C14.5472 12.0846 14.519 12.2133 14.539 12.339C14.563 13.051 14.547 13.764 14.547 14.533C14.905 14.533 15.227 14.533 15.547 14.533C16.259 14.533 16.447 14.733 16.455 15.455C16.455 16.109 16.463 16.763 16.455 17.416C16.4357 17.5204 16.4563 17.6282 16.5128 17.718C16.5693 17.8079 16.6577 17.8732 16.7602 17.901C17.2972 18.1001 17.7487 18.4789 18.0385 18.973C18.3283 19.467 18.4383 20.0461 18.35 20.612C18.15 23.124 17.867 25.638 17.85 28.152C17.905 30.2833 18.0683 32.4103 18.339 34.525C18.4097 34.902 18.3933 35.2901 18.2912 35.6598C18.189 36.0295 18.0038 36.3711 17.7497 36.6583C17.4955 36.9456 17.1791 37.171 16.8246 37.3174C16.4701 37.4638 16.0868 37.5273 15.704 37.503C13.2287 37.507 10.7533 37.507 8.27798 37.503C7.90712 37.5331 7.53434 37.4785 7.18764 37.3434C6.84095 37.2084 6.52955 36.9964 6.27676 36.7234C6.02397 36.4504 5.83645 36.1235 5.72842 35.7675C5.62039 35.4114 5.59452 35.0355 5.65298 34.668C5.81598 32.636 6.06199 30.6071 6.12099 28.5681C6.16799 26.9101 6.00713 25.245 5.90713 23.585C5.84213 22.498 5.712 21.415 5.631 20.329C5.59575 19.8195 5.72396 19.3121 5.99697 18.8804C6.26998 18.4488 6.6736 18.1155 7.14907 17.929C7.28052 17.8968 7.39443 17.8151 7.46694 17.7008C7.53945 17.5865 7.56485 17.4487 7.53799 17.316C7.51799 16.647 7.52699 15.977 7.53799 15.308C7.53799 14.769 7.76595 14.545 8.29995 14.527C8.48695 14.521 8.67401 14.527 8.86001 14.527H9.43911V11.938C9.22462 11.9822 9.01734 12.0559 8.82314 12.157C7.36448 13.2724 5.91314 14.3974 4.46914 15.532C4.34407 15.6478 4.229 15.7739 4.12515 15.9091C4.00229 16.0832 3.8382 16.2242 3.64761 16.3196C3.45701 16.415 3.24566 16.4618 3.03262 16.4557C2.81957 16.4497 2.6113 16.3911 2.42641 16.285C2.24153 16.179 2.08584 16.0289 1.97305 15.848C1.59001 15.3207 1.30136 14.731 1.12002 14.105C0.280306 11.0419 0.280306 7.80919 1.12002 4.74603C1.30919 4.10662 1.61069 3.50595 2.01015 2.97204C2.11832 2.81208 2.2614 2.67879 2.42861 2.58221C2.59582 2.48563 2.78264 2.42826 2.97524 2.41449C3.16785 2.40072 3.36118 2.43087 3.54043 2.50268C3.71968 2.57449 3.88033 2.6861 4.01015 2.82904C4.69349 3.43704 5.39117 4.02867 6.10317 4.604C6.95617 5.293 7.83612 5.96203 8.80312 6.71203ZM11.9879 19.002C10.7739 19.002 9.5604 19.002 8.34707 19.002C7.25707 19.002 6.81716 19.533 6.91616 20.624C7.10916 22.746 7.41595 24.871 7.40395 26.993C7.38695 29.569 7.09395 32.143 6.90395 34.717C6.83295 35.671 7.27317 36.21 8.22817 36.217C10.7335 36.225 13.2387 36.225 15.744 36.217C15.9316 36.2452 16.1232 36.2275 16.3024 36.1653C16.4816 36.1032 16.643 35.9985 16.7729 35.8602C16.9027 35.722 16.997 35.5543 17.0478 35.3715C17.0985 35.1888 17.1041 34.9964 17.0641 34.811C16.9721 33.511 16.8131 32.211 16.7431 30.905C16.6581 29.324 16.5501 27.736 16.6071 26.157C16.6761 24.248 16.9162 22.345 17.0622 20.437C17.1046 20.2485 17.1001 20.0525 17.0495 19.866C16.9988 19.6796 16.9032 19.5083 16.7711 19.3672C16.6391 19.2261 16.4746 19.1194 16.2919 19.0565C16.1092 18.9935 15.914 18.9762 15.723 19.006C14.477 18.999 13.2319 19.002 11.9879 19.002ZM5.23916 5.56305C5.71329 8.11739 5.7189 10.7366 5.256 13.293C6.133 12.613 6.93996 12.055 7.66396 11.404C7.94469 11.1385 8.2797 10.937 8.6459 10.8135C9.01209 10.6901 9.40084 10.6476 9.78506 10.689C10.5241 10.745 10.714 10.889 10.715 11.644C10.715 12.589 10.715 13.534 10.715 14.525C11.46 14.525 12.156 14.525 12.852 14.525C12.972 14.525 13.0932 14.511 13.2602 14.5V12.059C13.2602 10.977 13.2602 10.977 14.2912 10.64C14.365 10.6161 14.4365 10.5856 14.505 10.549C14.7469 10.4197 14.9401 10.2152 15.0556 9.96649C15.171 9.71774 15.2025 9.43821 15.1452 9.17004C15.0884 8.88488 14.9334 8.62863 14.7072 8.44592C14.481 8.26321 14.1979 8.16561 13.9071 8.17004C12.3351 8.15604 10.7628 8.15604 9.19009 8.17004C8.80191 8.18798 8.42091 8.06027 8.12197 7.81201C7.21397 7.07701 6.28416 6.37405 5.23916 5.56305ZM25.839 10.04V9.94C25.092 9.599 24.3571 9.227 23.5941 8.927C23.3603 8.84889 23.1548 8.70334 23.0036 8.50866C22.8523 8.31398 22.7619 8.07889 22.744 7.833C22.506 6.34501 22.226 4.86305 21.935 3.38305C21.8736 2.92867 21.6448 2.51353 21.2934 2.21905C20.9419 1.92457 20.4932 1.77193 20.0351 1.79101C17.3431 1.77801 14.6502 1.78401 11.9582 1.79101C11.8232 1.78157 11.6896 1.82254 11.5832 1.906C11.2962 2.242 11.0412 2.60603 10.7082 3.04803H18.558C19.378 3.04803 19.444 3.09302 19.758 3.86902C20.42 5.52802 21.066 7.194 21.758 8.841C21.8174 8.99453 21.9077 9.13432 22.0231 9.25177C22.1385 9.36921 22.2766 9.46189 22.4291 9.52404C23.5561 9.75004 24.704 9.87704 25.84 10.04H25.839ZM3.14614 3.68805H2.93203C2.73448 4.06654 2.55753 4.45542 2.402 4.85302C1.93417 6.38873 1.72601 7.99174 1.78603 9.59601C1.74395 11.1699 1.9809 12.7388 2.48599 14.23C2.63262 14.5604 2.79961 14.8814 2.98599 15.191H3.16299C3.38242 14.8278 3.55876 14.4402 3.68813 14.036C3.96491 12.8113 4.16515 11.5706 4.28799 10.321C4.46662 8.4089 4.24153 6.48053 3.6271 4.66101C3.48783 4.3267 3.32785 4.0014 3.14809 3.68701L3.14614 3.68805ZM15.1562 15.845H8.829V17.6931H15.1562V15.845ZM10.0919 4.945H17.0561V4.36102H10.0919V4.945ZM10.0919 6.81305H14.5241V6.27704H10.0919V6.81305Z" fill="white"/>
</svg>
