<svg width="28" height="38" viewBox="0 0 28 38" fill="none" xmlns="http://www.w3.org/2000/svg">
<path d="M1.66901 37.503C1.41286 37.413 1.19302 37.2418 1.04303 37.0154C0.893049 36.7891 0.821063 36.52 0.837956 36.249C0.720956 33.449 0.532049 30.649 0.459049 27.841C0.40546 26.8934 0.644349 25.9522 1.14338 25.1448C1.6424 24.3374 2.3775 23.7028 3.24909 23.327C5.19391 22.3713 7.25523 21.674 9.38092 21.253C9.5561 21.2339 9.72532 21.1783 9.87775 21.0898C10.0302 21.0014 10.1626 20.8821 10.2662 20.7395C10.3698 20.5969 10.4423 20.4343 10.4793 20.262C10.5163 20.0897 10.5169 19.9116 10.481 19.739C10.4427 19.5977 10.3508 19.4769 10.2249 19.402C9.04585 18.6829 8.09165 17.6483 7.47004 16.415C7.11931 15.7001 6.91963 14.9205 6.88385 14.125C6.87285 13.886 6.88385 13.646 6.88385 13.419L5.85505 13.1C5.84905 13.236 5.83898 13.362 5.83698 13.489C5.80165 15.741 5.76667 17.993 5.732 20.245C5.732 20.365 5.7671 20.52 5.7071 20.598C5.59381 20.7789 5.4315 20.9238 5.23908 21.016C5.18023 21.0324 5.11858 21.0362 5.05817 21.0272C4.99776 21.0181 4.93994 20.9964 4.88849 20.9634C4.83705 20.9305 4.79309 20.8871 4.75959 20.836C4.72608 20.7849 4.70363 20.7273 4.69391 20.667C4.65829 20.5276 4.64382 20.3837 4.65094 20.24C4.71394 15.929 4.7699 11.618 4.8509 7.30702C4.852 5.65172 5.45686 4.05366 6.55207 2.81247C7.64727 1.57127 9.15758 0.772174 10.7999 0.565018C10.8682 0.548553 10.9353 0.526484 11.0001 0.499023H12.3741C13.3646 0.703555 14.3824 0.740394 15.3851 0.608017C16.3411 0.488019 17.3116 0.571748 18.233 0.853699C19.1543 1.13565 20.0056 1.60944 20.7308 2.24391C21.4559 2.87838 22.0384 3.65915 22.4403 4.5349C22.8421 5.41065 23.0541 6.36153 23.0621 7.32503C23.0831 10.325 22.9929 13.325 22.9539 16.32C22.9366 17.5867 22.922 18.851 22.91 20.113C22.91 20.213 22.9099 20.306 22.9039 20.402C22.8749 20.832 22.67 21.054 22.324 21.035C21.996 21.016 21.818 20.794 21.824 20.371C21.8507 18.1557 21.8806 15.94 21.9139 13.724C21.9139 13.595 21.9139 13.465 21.9139 13.33L20.9219 13.559C20.8649 14.035 20.8411 14.54 20.7401 15.029C20.538 15.9304 20.1527 16.7806 19.6085 17.527C19.0642 18.2734 18.3724 18.9 17.576 19.368C17.397 19.486 17.147 19.626 17.106 19.798C17.0585 19.987 17.064 20.1855 17.1219 20.3716C17.1798 20.5577 17.2876 20.7243 17.4339 20.853C17.647 21.0428 17.9036 21.1771 18.181 21.244C20.2684 21.669 22.2955 22.3491 24.2169 23.269C25.0706 23.6315 25.8006 24.2346 26.3177 25.0046C26.8347 25.7747 27.1166 26.6786 27.129 27.606C27.263 30.42 27.3899 33.235 27.5479 36.048C27.6011 36.3445 27.5521 36.6502 27.4088 36.9151C27.2654 37.18 27.0361 37.3884 26.7589 37.506L1.66901 37.503ZM8.01105 8.68002C7.9976 8.75949 7.98817 8.83959 7.98298 8.92002C7.97031 10.52 7.95842 12.12 7.94709 13.72C7.93314 14.4819 8.10112 15.2361 8.43708 15.92C9.24423 17.4775 10.6284 18.6575 12.294 19.208C12.9656 19.5174 13.7155 19.6148 14.4439 19.487C15.5645 19.2439 16.6177 18.7571 17.5289 18.061C18.1791 17.6089 18.7178 17.0147 19.1041 16.3233C19.4903 15.632 19.7138 14.8617 19.7579 14.071C19.8259 12.448 19.8339 10.822 19.8829 9.19802C19.8909 8.93102 19.818 8.82703 19.546 8.77303C17.8873 8.44975 16.3195 7.76709 14.9529 6.77303C14.6159 6.52903 14.3 6.25502 13.963 5.98502C12.2707 7.4235 10.2084 8.35766 8.01105 8.68102V8.68002ZM9.263 22.394C7.41018 22.7792 5.6111 23.388 3.90509 24.207C3.137 24.5113 2.48963 25.0588 2.06232 25.7659C1.63501 26.4729 1.4511 27.3005 1.53888 28.122C1.63555 30.154 1.73133 32.1874 1.82599 34.222C1.86099 34.95 1.90296 35.677 1.94196 36.422C2.75696 36.422 3.52596 36.431 4.29596 36.411C4.35846 36.395 4.41654 36.3651 4.46589 36.3236C4.51523 36.282 4.55447 36.2299 4.58088 36.171C5.04282 35.0989 5.63184 34.0859 6.33503 33.154C7.66646 31.3167 9.55992 29.9628 11.7291 29.297C11.8491 29.261 11.965 29.212 12.096 29.164L9.263 22.394ZM5.93097 8.61402C6.23097 8.55602 6.50991 8.50803 6.78791 8.44003C6.82379 8.42705 6.85669 8.40661 6.8841 8.38007C6.91151 8.35352 6.93297 8.32147 6.94709 8.28603C7.01555 8.09145 7.14047 7.92174 7.30597 7.79864C7.47148 7.67553 7.67 7.60463 7.87604 7.59502C9.85051 7.30047 11.7052 6.46651 13.2359 5.18503C13.7979 4.71603 14.1619 4.75502 14.7459 5.20802C15.3049 5.66281 15.8895 6.08517 16.4969 6.47302C17.6071 7.12736 18.827 7.57462 20.097 7.79302C20.284 7.8114 20.4613 7.88503 20.6063 8.00453C20.7512 8.12403 20.8572 8.284 20.911 8.46403C20.9214 8.50256 20.9398 8.53847 20.9649 8.56947C20.9901 8.60047 21.0214 8.62587 21.0569 8.64403C21.351 8.72303 21.6569 8.78002 22.0279 8.86102C22.0262 7.97649 21.9612 7.09323 21.8331 6.21803C21.5467 4.82962 20.7576 3.59584 19.6175 2.75337C18.4773 1.9109 17.0664 1.51907 15.6551 1.65303C14.5271 1.70372 13.3971 1.68702 12.2711 1.60303C11.3264 1.50984 10.3733 1.65025 9.49567 2.0119C8.61804 2.37356 7.8426 2.94536 7.23786 3.67702C6.69899 4.36979 6.30586 5.16429 6.08161 6.01283C5.85736 6.86138 5.80667 7.74647 5.93293 8.61502L5.93097 8.61402ZM22.0731 27.101C21.5189 27.701 20.9248 28.263 20.295 28.783C18.8174 29.7917 17.0218 30.2249 15.2469 30.001C13.8877 29.8878 12.5208 30.0932 11.2549 30.601C9.36391 31.3935 7.77035 32.7612 6.70002 34.51C6.31402 35.098 5.99999 35.73 5.61799 36.396H13.139C13.153 36.319 13.1619 36.26 13.1739 36.201C13.3439 35.1384 13.876 34.1671 14.6798 33.4515C15.4835 32.7359 16.5098 32.32 17.585 32.274C18.485 32.213 19.391 32.268 20.293 32.234C20.5771 32.2255 20.855 32.1486 21.1031 32.01C21.5165 31.7754 21.8741 31.4543 22.1522 31.0688C22.4302 30.6833 22.622 30.2423 22.7142 29.776C22.8063 29.3097 22.7968 28.829 22.6863 28.3667C22.5759 27.9044 22.3671 27.4713 22.074 27.097L22.0731 27.101ZM20.418 25.129L20.501 25.001C19.954 24.481 19.4221 23.941 18.8541 23.445C18.2541 22.918 17.6219 22.418 16.9869 21.929C16.5052 21.5801 16.1703 21.0648 16.0469 20.483C16.0259 20.383 16.001 20.283 15.97 20.142C15.2876 20.4637 14.5413 20.6272 13.7869 20.6203C13.0325 20.6133 12.2893 20.4362 11.6129 20.102C11.5747 20.5112 11.4408 20.9056 11.2215 21.2531C11.0022 21.6006 10.7038 21.8915 10.3509 22.102C10.3509 22.114 10.3429 22.128 10.3509 22.137C11.2736 24.355 12.1984 26.572 13.1251 28.788C13.1541 28.859 13.2539 28.95 13.3189 28.947C13.5825 28.9618 13.8466 28.9279 14.098 28.847C14.231 28.788 14.274 28.528 14.357 28.358L14.4061 28.258C15.0847 27.0783 16.1613 26.1789 17.4429 25.721C18.3821 25.3162 19.3964 25.1147 20.419 25.13L20.418 25.129ZM19.824 22.754C20.424 23.421 21 24.048 21.555 24.694C21.844 25.03 22.061 25.431 22.367 25.748C22.8847 26.2624 23.2821 26.8848 23.5311 27.5708C23.78 28.2568 23.8743 28.9894 23.8069 29.716C23.761 30.335 23.663 30.956 23.678 31.573C23.7117 31.8038 23.6924 32.0392 23.6219 32.2615C23.5514 32.4838 23.4315 32.6873 23.2711 32.8565C23.1106 33.0257 22.9139 33.1564 22.6956 33.2386C22.4774 33.3208 22.2433 33.3524 22.0111 33.331C21.6421 33.331 21.272 33.331 20.9 33.331V36.397H26.442C26.442 36.253 26.442 36.134 26.442 36.016C26.305 33.178 26.1729 30.34 26.0269 27.502C26.0174 26.8956 25.8489 26.3022 25.5382 25.7814C25.2274 25.2605 24.7851 24.8304 24.2559 24.534C22.859 23.7574 21.3701 23.1594 19.824 22.754ZM14.264 36.397H19.7869C19.7869 35.425 19.792 34.477 19.775 33.529C19.775 33.463 19.6079 33.346 19.5169 33.343C18.9759 33.326 18.4339 33.317 17.8929 33.343C17.0215 33.3293 16.1747 33.6308 15.5079 34.1919C14.8411 34.753 14.3993 35.5361 14.264 36.397ZM21.095 26.341C19.363 25.754 15.8999 27.212 15.3399 28.881C17.4279 29.225 20.1101 28.307 21.0941 26.34L21.095 26.341ZM20.941 12.413C21.1652 12.429 21.3873 12.3611 21.5643 12.2225C21.7413 12.0839 21.8606 11.8845 21.899 11.663C21.9447 11.2947 21.9497 10.9225 21.9139 10.553C21.9024 10.4379 21.868 10.3263 21.8126 10.2248C21.7571 10.1233 21.6818 10.0339 21.5911 9.9621C21.5005 9.89027 21.3962 9.8374 21.2847 9.80664C21.1732 9.77588 21.0566 9.76785 20.942 9.78303L20.941 12.413ZM6.87287 9.54603C6.15487 9.58703 5.87286 9.99403 5.86286 10.936C5.86286 11.679 6.224 12.147 6.857 12.19C6.862 12.096 6.87189 12.001 6.87189 11.907C6.87289 11.128 6.87189 10.35 6.87189 9.54603H6.87287Z" fill="white"/>
</svg>
