<svg width="55" height="55" viewBox="0 0 55 55" fill="none" xmlns="http://www.w3.org/2000/svg">
<path d="M46.531 8.50221C42.7329 4.70414 37.8939 2.11762 32.6258 1.06974C27.3578 0.0218513 21.8973 0.559664 16.9349 2.61516C11.9724 4.67066 7.731 8.15153 4.74687 12.6176C1.76275 17.0836 0.169983 22.3343 0.169983 27.7056C0.169983 33.0768 1.76275 38.3275 4.74687 42.7936C7.731 47.2596 11.9724 50.7405 16.9349 52.796C21.8973 54.8515 27.3578 55.3893 32.6258 54.3414C37.8939 53.2935 42.7329 50.707 46.531 46.9089C49.0533 44.3874 51.0542 41.3936 52.4193 38.0987C53.7844 34.8037 54.487 31.2721 54.487 27.7056C54.487 24.139 53.7844 20.6074 52.4193 17.3125C51.0542 14.0175 49.0533 11.0238 46.531 8.50221V8.50221ZM34.2075 37.5362L27.3276 30.6563L20.4477 37.5362C20.0531 37.9139 19.5263 38.1221 18.9801 38.1161C18.4339 38.1101 17.9117 37.8905 17.5255 37.5042C17.1392 37.1179 16.9196 36.5958 16.9136 36.0496C16.9076 35.5034 17.1157 34.9765 17.4934 34.5819L24.3733 27.702L17.497 20.8257C17.1193 20.431 16.9112 19.9042 16.9171 19.358C16.9231 18.8118 17.1428 18.2896 17.529 17.9034C17.9153 17.5171 18.4374 17.2975 18.9836 17.2915C19.5298 17.2855 20.0567 17.4937 20.4513 17.8714L27.3291 24.7491L34.2054 17.8728C34.6 17.4951 35.1269 17.2869 35.6731 17.2929C36.2193 17.2989 36.7414 17.5186 37.1277 17.9048C37.5139 18.2911 37.7336 18.8132 37.7396 19.3594C37.7456 19.9056 37.5374 20.4325 37.1597 20.8271L30.282 27.7049L37.1604 34.5833C37.3615 34.7757 37.522 35.0063 37.6327 35.2616C37.7434 35.5169 37.802 35.7917 37.8051 36.07C37.8081 36.3482 37.7556 36.6243 37.6505 36.8819C37.5454 37.1396 37.3899 37.3736 37.1932 37.5704C36.9964 37.7671 36.7623 37.9226 36.5047 38.0277C36.247 38.1328 35.971 38.1853 35.6928 38.1823C35.4145 38.1792 35.1397 38.1206 34.8844 38.0099C34.6291 37.8992 34.3985 37.7387 34.2061 37.5377L34.2075 37.5362Z" fill="#4EA7F2"/>
</svg>
