<svg width="79" height="80" viewBox="0 0 79 80" fill="none" xmlns="http://www.w3.org/2000/svg">
<path opacity="0.3" d="M22.7891 3.60795C22.3658 2.96208 21.8144 2.40997 21.1691 1.9858C20.5237 1.56163 19.7982 1.27443 19.0374 1.14198C18.2766 1.00952 17.4967 1.03463 16.746 1.21575C15.9953 1.39687 15.2898 1.73014 14.6731 2.19495C10.4529 5.48338 7.03257 9.6853 4.66912 14.4851C2.30567 19.2849 1.06049 24.5579 1.0271 29.9079H39.5001L22.7891 3.60795ZM75.5691 15.4809H68.3561C65.806 15.4833 63.361 16.4974 61.5578 18.3006C59.7546 20.1038 58.7405 22.5488 58.7381 25.0989V34.7169H1.0271C1.08038 38.4427 1.91439 42.1159 3.47529 45.4993C5.03619 48.8828 7.28928 51.9013 10.0891 54.3599C7.91184 54.9172 5.93467 56.0743 4.38252 57.6997C2.83038 59.325 1.76557 61.3534 1.30923 63.554C0.852891 65.7547 1.02334 68.0392 1.80119 70.1477C2.57904 72.2563 3.93306 74.1042 5.70922 75.4812C7.48538 76.8582 9.61236 77.7091 11.8482 77.9371C14.0841 78.1651 16.339 77.7609 18.3565 76.7707C20.3741 75.7805 22.0732 74.2438 23.2605 72.3357C24.4479 70.4275 25.0759 68.2244 25.0731 65.977C25.0552 64.6875 24.8321 63.4092 24.4121 62.1899C31.1411 64.0337 38.2421 64.0337 44.9711 62.1899C44.5439 63.4073 44.3206 64.6868 44.3101 65.977C44.3034 68.2292 44.9294 70.438 46.1168 72.3518C47.3043 74.2656 49.0054 75.8073 51.0264 76.8014C53.0474 77.7955 55.307 78.2019 57.5477 77.9744C59.7884 77.7468 61.9201 76.8945 63.7 75.5144C65.48 74.1344 66.8364 72.2822 67.6149 70.1688C68.3935 68.0553 68.5627 65.7658 68.1034 63.5609C67.644 61.356 66.5746 59.3244 65.0169 57.6977C63.4593 56.0709 61.476 54.9144 59.2931 54.3599C62.0929 51.9013 64.346 48.8828 65.9069 45.4993C67.4678 42.1159 68.3018 38.4427 68.3551 34.7169V25.0989H75.5691C76.2046 25.0958 76.8133 24.8419 77.2627 24.3925C77.7121 23.9431 77.9659 23.3345 77.9691 22.6989V17.8849C77.967 17.2487 77.7136 16.6391 77.2641 16.1888C76.8146 15.7385 76.2053 15.4841 75.5691 15.4809V15.4809ZM13.0501 70.7859C12.099 70.7859 11.1692 70.5039 10.3784 69.9755C9.58753 69.4471 8.97114 68.696 8.60716 67.8173C8.24318 66.9385 8.14795 65.9716 8.3335 65.0388C8.51906 64.1059 8.97707 63.249 9.64962 62.5765C10.3222 61.9039 11.1791 61.4459 12.1119 61.2603C13.0448 61.0748 14.0117 61.17 14.8904 61.534C15.7692 61.898 16.5202 62.5144 17.0486 63.3052C17.5771 64.096 17.8591 65.0258 17.8591 65.977C17.8554 67.2512 17.3476 68.4723 16.4465 69.3733C15.5454 70.2744 14.3244 70.7823 13.0501 70.7859V70.7859ZM61.1421 65.977C61.1421 66.9281 60.8601 67.8579 60.3316 68.6487C59.8032 69.4395 59.0522 70.0559 58.1734 70.4199C57.2947 70.7839 56.3278 70.8791 55.3949 70.6935C54.4621 70.508 53.6052 70.05 52.9326 69.3774C52.2601 68.7049 51.8021 67.848 51.6165 66.9151C51.4309 65.9823 51.5262 65.0153 51.8902 64.1366C52.2541 63.2579 52.8705 62.5068 53.6614 61.9784C54.4522 61.45 55.382 61.1679 56.3331 61.1679C57.6074 61.1716 58.8284 61.6795 59.7295 62.5805C60.6306 63.4816 61.1384 64.7027 61.1421 65.977Z" stroke="black" stroke-width="2"/>
</svg>
