<svg width="21" height="20" viewBox="0 0 21 20" fill="none" xmlns="http://www.w3.org/2000/svg">
<path d="M19.8079 11.314H11.1739L16.9239 17.064C17.0293 17.1713 17.1721 17.2338 17.3224 17.2384C17.4727 17.2431 17.619 17.1896 17.7309 17.089C19.1748 15.7325 20.1133 13.9245 20.3919 11.963C20.4014 11.8809 20.3933 11.7978 20.3683 11.719C20.3432 11.6403 20.3017 11.5678 20.2464 11.5064C20.1912 11.4449 20.1236 11.3959 20.048 11.3625C19.9723 11.3292 19.8905 11.3123 19.8079 11.313V11.314ZM19.2319 8.95601C19.0847 6.85084 18.182 4.86969 16.69 3.37729C15.198 1.88489 13.217 0.981708 11.1119 0.83401C11.0326 0.830892 10.9535 0.84391 10.8794 0.872275C10.8053 0.900641 10.7377 0.943762 10.6808 0.999024C10.6238 1.05429 10.5787 1.12054 10.5481 1.19376C10.5175 1.26699 10.5022 1.34566 10.5029 1.42501V9.56701H18.6429C18.7223 9.56763 18.801 9.55208 18.8742 9.52131C18.9474 9.49055 19.0135 9.4452 19.0686 9.38803C19.1238 9.33087 19.1666 9.26309 19.1947 9.18881C19.2228 9.11454 19.2354 9.03533 19.2319 8.95601ZM8.7539 11.314V2.67901C8.75461 2.59629 8.7377 2.51437 8.70431 2.43869C8.67092 2.36301 8.6218 2.2953 8.56023 2.24006C8.49865 2.18482 8.42603 2.14332 8.34718 2.11831C8.26833 2.0933 8.18506 2.08536 8.1029 2.09501C5.97084 2.39775 4.026 3.47809 2.64241 5.12824C1.25883 6.77839 0.534201 8.88183 0.6079 11.034C0.713648 13.3063 1.69118 15.4504 3.33722 17.0205C4.98326 18.5905 7.17114 19.4657 9.4459 19.464C11.2113 19.4445 12.9285 18.8863 14.3679 17.864C14.4346 17.814 14.4897 17.7501 14.5294 17.6768C14.5691 17.6034 14.5925 17.5223 14.5979 17.4391C14.6033 17.3559 14.5907 17.2725 14.5608 17.1946C14.5309 17.1168 14.4846 17.0463 14.4249 16.988L8.7539 11.314Z" fill="#828282"/>
</svg>
