<svg width="68" height="49" viewBox="0 0 68 49" fill="none" xmlns="http://www.w3.org/2000/svg">
<path d="M0.266113 6.43998C0.806113 5.30499 1.86586 5.602 2.90186 5.532V3.51399C2.90186 3.00899 2.88786 2.50298 2.90186 1.99898C2.88614 1.81656 2.91061 1.63294 2.97363 1.46104C3.03665 1.28914 3.13671 1.13317 3.2666 1.00413C3.39649 0.875098 3.55327 0.776127 3.72559 0.714246C3.8979 0.652366 4.08185 0.629057 4.26416 0.645978C4.39616 0.640978 4.53006 0.645978 4.66406 0.645978H63.3638C63.4948 0.645978 63.6272 0.645978 63.7642 0.645978C63.9469 0.630516 64.1304 0.655748 64.3022 0.719861C64.4741 0.783974 64.6299 0.885376 64.7578 1.01677C64.8858 1.14816 64.9829 1.30628 65.0425 1.47975C65.102 1.65322 65.1224 1.83773 65.1021 2.02C65.118 3.178 65.1021 4.33698 65.1021 5.57298C65.5831 5.57298 65.9969 5.55098 66.4019 5.57298C66.5847 5.56022 66.7681 5.5881 66.939 5.65461C67.1098 5.72113 67.264 5.82465 67.3901 5.95772C67.5162 6.09078 67.6112 6.25011 67.6685 6.42427C67.7257 6.59842 67.7433 6.78306 67.7207 6.96498C67.7327 10.303 67.7327 13.6413 67.7207 16.98C67.7437 17.1676 67.7241 17.358 67.6636 17.5371C67.603 17.7161 67.5032 17.8793 67.3711 18.0145C67.239 18.1497 67.078 18.2534 66.9004 18.3181C66.7228 18.3827 66.5328 18.4066 66.3447 18.388C65.9507 18.408 65.56 18.388 65.125 18.388C64.643 28.36 60.6178 36.507 52.6978 42.576C47.7632 46.305 41.8274 48.475 35.6514 48.8078C29.4753 49.1406 23.3404 47.6211 18.0337 44.444C13.5166 41.7399 9.75967 37.9344 7.11328 33.3833C4.46689 28.8322 3.01772 23.6843 2.90186 18.421C1.91386 18.321 0.808742 18.662 0.260742 17.501L0.266113 6.43998ZM26.3657 45.464C30.5587 46.899 39.2658 46.851 41.6318 45.404C38.8738 38.854 39.4159 32.687 44.3179 27.413C49.2199 22.139 55.3447 21.089 62.2007 23.436C62.3767 21.759 62.55 20.118 62.729 18.397H61.8857C58.5247 18.397 55.1647 18.417 51.8047 18.391C50.9441 18.4163 50.0874 18.2683 49.2852 17.9558C48.4829 17.6432 47.7519 17.1725 47.1353 16.5717C46.5186 15.9709 46.0291 15.2522 45.6958 14.4583C45.3625 13.6645 45.1924 12.8117 45.1953 11.9508C45.1983 11.0898 45.3742 10.2382 45.7129 9.44667C46.0516 8.65513 46.5462 7.9398 47.167 7.34321C47.7878 6.74662 48.5218 6.28095 49.3262 5.97392C50.1305 5.66689 50.9887 5.52476 51.8491 5.55598C55.1871 5.53598 58.5248 5.55598 61.8628 5.55598H62.6631V3.114H5.35303V5.57298H6.17773C9.38573 5.57298 12.5922 5.57298 15.7969 5.57298C16.2579 5.57298 16.7198 5.595 17.1758 5.641C18.8061 5.84464 20.2959 6.66668 21.3374 7.93733C22.3789 9.20798 22.8927 10.8301 22.7725 12.4687C22.6522 14.1073 21.9073 15.637 20.6914 16.742C19.4755 17.8469 17.8813 18.4426 16.2388 18.406C12.8558 18.427 9.4718 18.406 6.0918 18.411H5.27588L5.81396 23.444C12.514 21.144 18.5321 22.078 23.4141 27.104C28.5661 32.401 29.2317 38.688 26.3657 45.464ZM61.5479 25.939C58.7855 24.6627 55.6731 24.3571 52.7153 25.0718C49.7575 25.7864 47.1279 27.4793 45.2529 29.876C41.3529 34.852 41.899 41.347 44.167 44.717C48.307 43.1245 52.0262 40.6036 55.0391 37.3482C58.0519 34.0928 60.2781 30.1896 61.5459 25.939H61.5479ZM6.45996 25.933C7.72626 30.1919 9.95507 34.1025 12.9741 37.3624C15.9932 40.6223 19.7217 43.1442 23.8711 44.733C25.244 42.2487 25.7984 39.3947 25.4556 36.5771C25.1127 33.7595 23.8901 31.1218 21.9614 29.0393C20.0328 26.9567 17.4965 25.5355 14.7134 24.9778C11.9303 24.4201 9.0421 24.7544 6.45996 25.933ZM2.71191 15.973H3.521C7.621 15.973 11.7231 15.973 15.8271 15.973C16.2001 15.973 16.5748 15.963 16.9448 15.926C17.9619 15.7871 18.886 15.2605 19.5239 14.4563C20.1619 13.652 20.4645 12.6323 20.3682 11.6102C20.2718 10.5882 19.7843 9.64293 19.0073 8.972C18.2304 8.30106 17.2239 7.95639 16.1987 8.00999C11.8787 7.99599 7.55684 8.00999 3.23584 8.00999C3.06784 8.00999 2.89891 8.03999 2.71191 8.05699V15.973ZM65.312 8.01298H64.5659C61.2566 8.01298 57.9452 8.01298 54.6318 8.01298C53.5778 8.01298 52.5251 7.984 51.4741 8.028C50.8474 8.04893 50.2341 8.21781 49.6851 8.52086C49.136 8.8239 48.6667 9.25248 48.3149 9.77165C47.9632 10.2908 47.7395 10.8858 47.6616 11.5081C47.5838 12.1303 47.6537 12.7622 47.8667 13.352C48.1732 14.1822 48.7429 14.8893 49.4888 15.3656C50.2346 15.8418 51.116 16.0611 51.998 15.99C56.2307 15.9973 60.4638 15.9973 64.6978 15.99C64.9068 15.99 65.1139 15.962 65.3169 15.948L65.312 8.01298Z" fill="white"/>
</svg>
