<svg width="38" height="28" viewBox="0 0 38 28" fill="none" xmlns="http://www.w3.org/2000/svg">
<path d="M0.0444336 3.51301C0.344434 2.87501 0.944391 3.04203 1.52539 3.00303V1.86903C1.52539 1.58503 1.51839 1.30101 1.52539 1.01801C1.51605 0.915353 1.52917 0.811896 1.56445 0.715036C1.59973 0.618176 1.65631 0.530317 1.72949 0.457712C1.80267 0.385107 1.89066 0.329542 1.98779 0.295023C2.08493 0.260504 2.18843 0.247862 2.29102 0.258005C2.36502 0.258005 2.43918 0.258005 2.51318 0.258005H35.5024C35.5764 0.258005 35.6501 0.258005 35.7241 0.258005C35.8267 0.24978 35.93 0.264274 36.0264 0.300455C36.1227 0.336635 36.2099 0.393608 36.2817 0.467325C36.3535 0.541041 36.4083 0.629713 36.4419 0.726968C36.4755 0.824224 36.487 0.927679 36.4761 1.03001C36.4851 1.68101 36.4761 2.33001 36.4761 3.03001C36.7471 3.03001 36.9765 3.01801 37.2095 3.03001C37.3122 3.02309 37.4148 3.03892 37.5107 3.07636C37.6066 3.1138 37.6933 3.17194 37.7642 3.24662C37.835 3.3213 37.8885 3.41067 37.9209 3.5084C37.9533 3.60613 37.9635 3.70981 37.9512 3.81202C37.9578 5.68802 37.9578 7.56401 37.9512 9.44001C37.964 9.54549 37.9531 9.6525 37.9189 9.75312C37.8848 9.85375 37.8287 9.94543 37.7544 10.0214C37.6801 10.0973 37.5896 10.1556 37.4897 10.1919C37.3899 10.2282 37.283 10.2415 37.1772 10.231C36.9572 10.242 36.7372 10.231 36.4922 10.231C36.4412 12.8791 35.7855 15.4805 34.5752 17.8364C33.3649 20.1923 31.6322 22.2403 29.5093 23.824C26.7362 25.9195 23.4004 27.139 19.9297 27.3261C16.459 27.5131 13.0115 26.6593 10.0293 24.874C7.49138 23.3542 5.38059 21.2155 3.89404 18.6579C2.4075 16.1003 1.59376 13.2075 1.5293 10.25C0.974297 10.192 0.35341 10.385 0.0454102 9.73301L0.0444336 3.51301ZM14.7114 25.443C17.0674 26.25 21.957 26.223 23.29 25.409C21.739 21.728 22.0443 18.263 24.7983 15.299C27.5523 12.335 30.9981 11.745 34.8491 13.064C34.9491 12.122 35.0494 11.199 35.1494 10.232H34.6753C32.7873 10.232 30.8993 10.243 29.0103 10.232C28.5279 10.2442 28.0482 10.1596 27.5991 9.98304C27.1501 9.80652 26.7409 9.54171 26.396 9.20429C26.0511 8.86688 25.7772 8.46372 25.5908 8.01866C25.4045 7.57359 25.3094 7.09567 25.311 6.61317C25.3126 6.13066 25.4108 5.65339 25.6001 5.20957C25.7894 4.76576 26.0659 4.36442 26.4131 4.02931C26.7602 3.6942 27.1709 3.43212 27.6211 3.25858C28.0713 3.08505 28.5519 3.0036 29.0342 3.01902C30.9102 3.00802 32.7861 3.01902 34.6621 3.01902H35.1123V1.64601H2.90527V3.02802H3.36914C5.16914 3.02802 6.97139 3.02802 8.77539 3.02802C9.03439 3.02802 9.29429 3.04002 9.55029 3.06602C10.472 3.17376 11.3162 3.63325 11.9072 4.34861C12.4983 5.06397 12.7906 5.97994 12.7227 6.9054C12.6547 7.83087 12.2317 8.69434 11.5425 9.31565C10.8532 9.93696 9.95097 10.2681 9.02344 10.24C7.12344 10.252 5.22324 10.24 3.32324 10.24H2.86523L3.16504 13.068C6.93204 11.775 10.3121 12.301 13.0571 15.125C15.9441 18.104 16.3214 21.635 14.7104 25.443H14.7114ZM34.4824 14.471C32.93 13.7536 31.1804 13.5818 29.5181 13.9835C27.8557 14.3852 26.3778 15.3368 25.3242 16.684C24.3992 17.8533 23.8467 19.2733 23.7378 20.7602C23.6289 22.2471 23.9687 23.7324 24.7134 25.024C27.0402 24.129 29.1308 22.7121 30.8242 20.8825C32.5176 19.0528 33.7688 16.859 34.4814 14.47L34.4824 14.471ZM3.52441 14.471C4.23606 16.8643 5.48853 19.0619 7.18506 20.8938C8.88158 22.7258 10.9764 24.143 13.3081 25.036C14.0796 23.64 14.3914 22.0362 14.1987 20.4528C14.0061 18.8695 13.3191 17.3872 12.2354 16.2169C11.1516 15.0466 9.72605 14.2479 8.16211 13.9345C6.59817 13.621 4.97548 13.8088 3.52441 14.471ZM1.41846 8.87101H1.87305C4.17771 8.87101 6.48306 8.87101 8.78906 8.87101C8.99806 8.87101 9.20948 8.86501 9.41748 8.84501C9.98805 8.76587 10.5058 8.4696 10.8633 8.01792C11.2208 7.56624 11.3904 6.99401 11.3364 6.42051C11.2824 5.84701 11.0088 5.3165 10.5732 4.93952C10.1377 4.56255 9.57336 4.36821 8.99805 4.39701C6.57005 4.38901 4.14138 4.39701 1.71338 4.39701C1.61938 4.39701 1.52443 4.41402 1.41943 4.42402L1.41846 8.87101ZM36.5991 4.39802H30.5991C30.0071 4.39802 29.4152 4.38201 28.8242 4.40601C28.472 4.41763 28.1274 4.51246 27.8188 4.68275C27.5103 4.85304 27.2464 5.09395 27.0488 5.38578C26.8512 5.67761 26.7257 6.01206 26.6821 6.36179C26.6386 6.71153 26.6784 7.06663 26.7983 7.39802C26.9704 7.86459 27.2904 8.26207 27.7095 8.52983C28.1285 8.79758 28.6234 8.92091 29.1191 8.88102C31.4978 8.88569 33.8767 8.88569 36.2554 8.88102C36.3734 8.88102 36.49 8.865 36.604 8.857L36.5991 4.39802Z" fill="white"/>
</svg>
