<svg width="18" height="38" viewBox="0 0 18 38" fill="none" xmlns="http://www.w3.org/2000/svg">
<path d="M9.00194 37.501C7.20194 37.501 5.40192 37.501 3.60192 37.501C3.17008 37.5235 2.73835 37.4549 2.33471 37.2998C1.93106 37.1447 1.56457 36.9065 1.2589 36.6006C0.953229 36.2948 0.715275 35.9281 0.560415 35.5243C0.405555 35.1206 0.337253 34.6888 0.359976 34.257C0.359976 29.221 0.359976 24.185 0.359976 19.149C0.34092 18.1631 0.535396 17.1847 0.930166 16.2811C1.32494 15.3774 1.91064 14.5699 2.64696 13.914C2.7543 13.7969 2.81542 13.6448 2.81896 13.486C2.83496 12.686 2.82992 11.893 2.82592 11.097C2.81033 10.7353 2.89779 10.3766 3.07799 10.0625C3.2582 9.7485 3.52382 9.49205 3.84398 9.323C3.90041 9.28356 3.94799 9.23275 3.98363 9.17386C4.01928 9.11496 4.04225 9.04927 4.05102 8.98098C4.07702 8.59698 4.051 8.21098 4.062 7.82498C4.05114 7.35876 4.17627 6.89947 4.42223 6.50326C4.6682 6.10705 5.02436 5.79109 5.44701 5.59399C6.41001 5.10199 6.49598 5.19398 6.31298 3.95398C6.21201 3.56114 6.19885 3.15089 6.27453 2.75241C6.3502 2.35392 6.51289 1.97703 6.75084 1.64856C6.9888 1.32009 7.29618 1.04811 7.65124 0.852017C8.00629 0.655927 8.4003 0.540544 8.80504 0.514065C9.20979 0.487586 9.61533 0.550659 9.99291 0.698819C10.3705 0.846978 10.7108 1.07658 10.9895 1.37124C11.2682 1.66591 11.4785 2.01839 11.6055 2.40362C11.7324 2.78885 11.7729 3.19736 11.724 3.6C11.681 3.931 11.64 4.26198 11.594 4.59298C11.5644 4.73953 11.5873 4.89183 11.6588 5.02313C11.7303 5.15443 11.8458 5.25637 11.985 5.311C12.215 5.424 12.4489 5.53298 12.6699 5.66198C13.0502 5.86918 13.3677 6.17485 13.5892 6.54696C13.8107 6.91908 13.9281 7.34392 13.9289 7.77697C13.9397 7.94347 13.9397 8.11048 13.9289 8.27697C13.8592 8.53083 13.8784 8.8009 13.9831 9.04242C14.0879 9.28393 14.272 9.4824 14.505 9.60498C14.7302 9.75788 14.9102 9.96849 15.0261 10.2148C15.142 10.4611 15.1896 10.734 15.1639 11.005C15.1639 11.814 15.152 12.624 15.176 13.433C15.1863 13.6267 15.2653 13.8104 15.3989 13.951C16.1028 14.586 16.665 15.3623 17.0487 16.2292C17.4324 17.096 17.6291 18.034 17.626 18.982C17.6426 24.108 17.6426 29.234 17.626 34.36C17.6348 34.7758 17.5591 35.1892 17.4034 35.5749C17.2478 35.9606 17.0153 36.3107 16.7203 36.6039C16.4253 36.8971 16.0738 37.1274 15.6871 37.2808C15.3005 37.4341 14.8867 37.5073 14.4709 37.496C12.6499 37.506 10.8259 37.501 9.00194 37.501ZM16.402 26.591C16.402 24.061 16.412 21.531 16.402 19.001C16.4096 18.2342 16.2539 17.4745 15.9451 16.7725C15.6362 16.0706 15.1814 15.4425 14.611 14.93C14.444 14.7843 14.2324 14.7 14.011 14.691C10.6723 14.6763 7.33334 14.6763 3.99401 14.691C3.77185 14.7015 3.55995 14.788 3.39391 14.936C2.81663 15.4598 2.35835 16.1012 2.04992 16.8171C1.74149 17.533 1.59011 18.3067 1.60595 19.086C1.60595 24.12 1.60595 29.1533 1.60595 34.186C1.57334 34.466 1.60433 34.7497 1.69665 35.016C1.78896 35.2823 1.94027 35.5244 2.13915 35.7242C2.33803 35.9239 2.5794 36.0762 2.84533 36.1697C3.11125 36.2631 3.3948 36.2954 3.67492 36.264H14.3469C14.6238 36.2942 14.9041 36.2622 15.167 36.1701C15.4299 36.0781 15.6689 35.9284 15.8664 35.7321C16.064 35.5357 16.2153 35.2977 16.309 35.0354C16.4026 34.773 16.4364 34.4931 16.4079 34.216C16.4026 31.6753 16.3993 29.1337 16.3979 26.591H16.402ZM5.307 9.10998H12.7009C12.6895 8.94018 12.6895 8.76981 12.7009 8.6C12.8144 8.12632 12.739 7.62706 12.4905 7.20813C12.242 6.78919 11.8401 6.48353 11.37 6.35598C11.0172 6.20396 10.7264 5.93696 10.5448 5.59848C10.3632 5.25999 10.3016 4.86998 10.37 4.492C10.407 4.148 10.4619 3.805 10.5079 3.462C10.5606 3.06938 10.4592 2.67161 10.2251 2.35208C9.99094 2.03255 9.64219 1.81605 9.25194 1.74798C8.86815 1.68215 8.47375 1.76814 8.15221 1.98779C7.83067 2.20744 7.60717 2.54353 7.52892 2.92498C7.47933 3.20155 7.48381 3.48509 7.54198 3.75998C7.65601 4.05094 7.70648 4.36293 7.69005 4.67501C7.67362 4.9871 7.59059 5.29207 7.44665 5.56945C7.3027 5.84684 7.10119 6.09023 6.85546 6.28332C6.60973 6.47641 6.32552 6.61473 6.02196 6.68899C5.82065 6.76533 5.64616 6.89905 5.52013 7.07361C5.3941 7.24816 5.32209 7.45588 5.31298 7.67099C5.27798 8.13599 5.30395 8.61498 5.30395 9.10998H5.307ZM4.06798 13.422H13.9349C13.9349 12.655 13.9349 11.912 13.9349 11.17C13.9349 10.57 13.728 10.364 13.124 10.364C11.558 10.364 9.99127 10.364 8.42394 10.364C7.21794 10.364 6.01092 10.364 4.80492 10.364C4.32892 10.364 4.07594 10.578 4.06994 11.009C4.05594 11.804 4.06493 12.598 4.06493 13.422H4.06798Z" fill="white"/>
</svg>
