<svg width="44" height="34" viewBox="0 0 44 34" fill="none" xmlns="http://www.w3.org/2000/svg">
<path d="M0.262939 10.201C0.283939 10.183 0.316998 10.169 0.322998 10.147C0.423079 9.78711 0.619923 9.46156 0.89209 9.20574C1.16426 8.94992 1.50133 8.77361 1.8667 8.69598C2.23207 8.61835 2.61169 8.64237 2.96436 8.76543C3.31702 8.88849 3.62919 9.10589 3.86694 9.39397C5.05794 10.661 6.31905 11.863 7.55005 13.094C7.6464 13.1977 7.75107 13.2933 7.86304 13.38C8.01307 13.4889 8.19708 13.5404 8.38184 13.5251C8.56659 13.5099 8.73969 13.429 8.86987 13.297C9.00374 13.1686 9.08465 12.9947 9.09668 12.8096C9.10871 12.6245 9.05118 12.4416 8.93506 12.297C8.74281 12.0708 8.5378 11.8558 8.32104 11.653C7.16205 10.492 5.98697 9.34497 4.84497 8.16697C4.58693 7.91706 4.39967 7.60327 4.30225 7.25752C4.20482 6.91176 4.20068 6.54637 4.29028 6.1985C4.37989 5.85064 4.56016 5.5327 4.8125 5.27704C5.06484 5.02138 5.38038 4.83711 5.72705 4.74297C6.09632 4.6347 6.48854 4.63362 6.8584 4.73985C7.22826 4.84608 7.56039 5.05525 7.81592 5.34297C9.06258 6.59697 10.3129 7.84764 11.5669 9.09497C11.6632 9.19841 11.7679 9.29373 11.8799 9.37997C12.0239 9.48561 12.2007 9.53702 12.3789 9.52513C12.5571 9.51324 12.7253 9.43881 12.854 9.31497C12.9885 9.18874 13.0733 9.01862 13.0935 8.83528C13.1137 8.65194 13.0677 8.46743 12.9639 8.31497C12.8704 8.19088 12.766 8.07542 12.6519 7.96997C11.3829 6.69897 10.109 5.43197 8.84302 4.15597C8.57152 3.90317 8.37761 3.5783 8.28394 3.21936C8.19026 2.86041 8.20063 2.48221 8.31396 2.12897C8.40527 1.77663 8.59668 1.45827 8.86499 1.21232C9.1333 0.966368 9.46699 0.803358 9.82593 0.742974C10.1744 0.670052 10.5359 0.691176 10.8735 0.804175C11.2111 0.917174 11.5125 1.11798 11.7468 1.38597C13.8748 3.51897 16.0288 5.62697 18.1218 7.79397C18.6779 8.37382 19.1282 9.04667 19.4519 9.78197C19.7945 10.5627 19.9518 11.4122 19.9114 12.2638C19.871 13.1155 19.634 13.9462 19.219 14.691C19.161 14.804 19.0978 14.915 19.0388 15.027C19.031 15.0568 19.0261 15.0872 19.0239 15.118C19.9409 16.035 20.876 16.977 21.824 17.904C21.878 17.9363 21.9386 17.9561 22.0012 17.9618C22.0639 17.9675 22.1271 17.959 22.186 17.937C22.7572 17.7158 23.3835 17.6808 23.9758 17.837C24.0513 17.8499 24.1286 17.8465 24.2026 17.827C24.2766 17.8075 24.3458 17.7724 24.405 17.724C25.4564 16.6946 26.4965 15.6543 27.5259 14.603C27.5759 14.5445 27.6117 14.4753 27.6306 14.4007C27.6495 14.3261 27.6511 14.2482 27.635 14.173C27.1298 12.9147 26.9994 11.5371 27.2595 10.2063C27.5196 8.87555 28.159 7.64845 29.1008 6.67297C30.0663 5.47002 31.2907 4.50016 32.6826 3.83552C34.0746 3.17088 35.5984 2.82855 37.1409 2.83397C38.739 2.75196 40.3074 3.28762 41.5215 4.33006C42.7355 5.37249 43.5022 6.84186 43.6628 8.43397C43.6796 8.51642 43.704 8.5971 43.7358 8.67497V10.288C43.6508 10.716 43.59 11.151 43.479 11.572C43.1413 13.1193 42.4577 14.5703 41.4797 15.8161C40.5018 17.0619 39.2549 18.0704 37.832 18.766C37.0101 19.1716 36.1111 19.3975 35.1951 19.4289C34.279 19.4603 33.3668 19.2964 32.519 18.948C32.4092 18.8906 32.2825 18.8741 32.1616 18.9014C32.0407 18.9287 31.9334 18.998 31.8589 19.097C30.8389 20.136 29.8039 21.159 28.7529 22.209C29.6439 23.009 30.5149 23.772 31.3679 24.555C32.1093 25.1621 32.6184 26.0066 32.8088 26.9458C32.9993 27.8849 32.8592 28.861 32.4128 29.709C32.0125 30.5731 31.4238 31.3365 30.6897 31.9432C29.9556 32.5499 29.0949 32.9845 28.1709 33.215C27.4878 33.3587 26.7793 33.3257 26.1125 33.119C25.4458 32.9124 24.8428 32.5389 24.3608 32.034C23.9358 31.622 23.555 31.164 23.127 30.698C22.821 31.036 22.5268 31.358 22.2358 31.682C21.833 32.1739 21.329 32.5734 20.7581 32.8532C20.1871 33.133 19.5624 33.2866 18.9268 33.3036C18.2911 33.3206 17.6593 33.2006 17.0742 32.9516C16.4891 32.7027 15.9645 32.3307 15.5359 31.861C15.0952 31.4216 14.6618 30.9743 14.2358 30.519C14.1032 30.3717 13.9886 30.2092 13.894 30.035C13.8033 29.8978 13.7702 29.7304 13.802 29.5691C13.8338 29.4077 13.9279 29.2654 14.064 29.173C14.1986 29.0782 14.3649 29.0402 14.5273 29.0672C14.6897 29.0941 14.8351 29.1838 14.9319 29.317C15.4419 29.883 15.942 30.461 16.48 31.001C16.7824 31.3367 17.1538 31.6031 17.5688 31.7819C17.9839 31.9606 18.4325 32.0475 18.8843 32.0366C19.336 32.0257 19.7801 31.9172 20.186 31.7186C20.5919 31.52 20.95 31.236 21.2358 30.886C23.2092 28.7033 25.173 26.5113 27.127 24.31C27.2664 24.1819 27.377 24.0255 27.4512 23.8513C27.5254 23.6771 27.5614 23.4891 27.5571 23.2998C27.5529 23.1105 27.5085 22.9243 27.4265 22.7536C27.3446 22.5829 27.2271 22.4317 27.082 22.31C26.1487 21.3646 25.208 20.424 24.26 19.488C24.1393 19.3371 23.9873 19.2143 23.8145 19.128C23.6416 19.0417 23.4521 18.994 23.259 18.9882C23.066 18.9824 22.874 19.0187 22.6963 19.0944C22.5186 19.1702 22.3595 19.2836 22.23 19.427C20.0353 21.387 17.8419 23.349 15.6499 25.313C15.1877 25.7139 14.8422 26.2321 14.6499 26.813C14.5039 27.255 14.1759 27.442 13.8179 27.323C13.7305 27.292 13.6507 27.243 13.5835 27.179C13.5163 27.1151 13.4633 27.0377 13.428 26.952C13.3927 26.8662 13.3759 26.774 13.3787 26.6813C13.3814 26.5886 13.4035 26.4975 13.4438 26.414C13.6912 25.6264 14.1524 24.923 14.7759 24.382C15.6199 23.633 16.4569 22.877 17.2759 22.141L14.657 19.535C13.9573 19.8089 13.2404 20.0368 12.511 20.217C11.6478 20.4066 10.751 20.3786 9.90137 20.1354C9.05175 19.8923 8.27613 19.4416 7.64404 18.824C5.33004 16.598 3.07804 14.305 0.821045 12.024C0.592283 11.7245 0.402249 11.3972 0.255859 11.05L0.262939 10.201ZM18.625 11.93C18.6213 11.3062 18.4905 10.6897 18.2405 10.1181C17.9905 9.54662 17.6265 9.03208 17.1709 8.60597C15.0842 6.53131 13.003 4.45164 10.927 2.36697C10.8409 2.27366 10.7469 2.18801 10.646 2.11097C10.5175 2.00543 10.3544 1.95113 10.1882 1.95852C10.0221 1.9659 9.8645 2.03445 9.74585 2.15097C9.61675 2.25444 9.5302 2.40159 9.5022 2.56465C9.47419 2.7277 9.50682 2.89536 9.59399 3.03597C9.68002 3.18134 9.78742 3.31283 9.91284 3.42597C11.1708 4.68864 12.4312 5.94897 13.6938 7.20697C13.976 7.45822 14.1825 7.78318 14.29 8.14533C14.3976 8.50747 14.4022 8.89244 14.303 9.25697C14.2157 9.60923 14.0359 9.93179 13.7822 10.1913C13.5286 10.4509 13.2103 10.6379 12.8601 10.7333C12.5099 10.8286 12.1405 10.8287 11.7903 10.7335C11.4401 10.6383 11.1217 10.4514 10.8679 10.192C9.67692 9.04297 8.52183 7.85697 7.35083 6.69197C7.15743 6.48586 6.95332 6.29025 6.73901 6.10597C6.61389 5.99829 6.4553 5.93701 6.29028 5.93245C6.12526 5.9279 5.96388 5.98035 5.83301 6.08097C5.69763 6.16293 5.59454 6.28893 5.54102 6.43786C5.48749 6.58679 5.48659 6.74959 5.53882 6.89897C5.61412 7.09538 5.73402 7.27166 5.88892 7.41397C7.15558 8.69064 8.42502 9.96197 9.69702 11.228C9.96761 11.4702 10.1678 11.781 10.2766 12.1275C10.3854 12.4741 10.3986 12.8435 10.3149 13.197C10.2467 13.5618 10.0754 13.8994 9.82129 14.1698C9.56715 14.4403 9.24071 14.6322 8.88086 14.723C8.52736 14.8361 8.14907 14.8467 7.78979 14.7536C7.43052 14.6605 7.10492 14.4675 6.85083 14.197C5.53383 12.897 4.22902 11.577 2.91602 10.27C2.85201 10.1806 2.77002 10.1057 2.67529 10.05C2.58056 9.99427 2.47515 9.95901 2.36597 9.94648C2.25678 9.93395 2.14615 9.94443 2.04126 9.97724C1.93637 10.01 1.83942 10.0645 1.75684 10.137C1.42984 10.456 1.46497 10.886 1.86597 11.288C3.99497 13.42 6.11501 15.561 8.26001 17.677C8.6791 18.1161 9.18261 18.466 9.74023 18.7058C10.2979 18.9456 10.8981 19.0703 11.5051 19.0725C12.1121 19.0746 12.7132 18.9541 13.2725 18.7183C13.8318 18.4825 14.3378 18.1361 14.76 17.7C15.615 16.875 16.448 16.028 17.281 15.18C17.7132 14.7573 18.0551 14.2514 18.2861 13.6927C18.5171 13.1341 18.6324 12.5344 18.625 11.93ZM28.4028 11.7C28.4224 12.0036 28.4577 12.306 28.5081 12.606C28.7049 13.551 29.097 14.4445 29.6594 15.2291C30.2219 16.0137 30.9421 16.6721 31.7739 17.162C32.7204 17.8301 33.8532 18.1832 35.0117 18.1712C36.1702 18.1592 37.2956 17.7826 38.228 17.095C39.4294 16.3211 40.4346 15.279 41.1648 14.0506C41.895 12.8222 42.3303 11.4411 42.436 10.016C42.5588 9.24793 42.5051 8.46201 42.2791 7.71776C42.0531 6.97352 41.6607 6.29048 41.1316 5.7204C40.6025 5.15031 39.9505 4.70814 39.2251 4.42739C38.4997 4.14664 37.7199 4.03467 36.9448 4.09997C34.5833 4.16912 32.3398 5.14792 30.6829 6.83197C29.9871 7.44192 29.4253 8.18935 29.0327 9.02717C28.6401 9.86499 28.4253 10.775 28.4019 11.7H28.4028ZM23.9858 29.739C24.4318 30.231 24.821 30.699 25.249 31.128C25.8005 31.6884 26.5478 32.013 27.3337 32.0335C28.1197 32.0541 28.8829 31.7689 29.4629 31.238C29.9451 30.8024 30.4041 30.3418 30.8379 29.858C31.2684 29.3824 31.5345 28.7809 31.5964 28.1424C31.6584 27.5039 31.5129 26.8624 31.1819 26.313C30.5005 25.4538 29.7198 24.6784 28.856 24.003C28.536 24.464 28.2801 24.903 27.9561 25.284C27.3371 26.018 26.681 26.721 26.04 27.437L23.9858 29.739ZM25.377 18.695L27.822 21.146L30.822 18.199L28.3508 15.722L25.377 18.695ZM15.7629 18.578L18.363 21.178L20.876 18.925L18.1428 16.197L15.7629 18.578Z" fill="white"/>
</svg>
