<svg width="39" height="43" viewBox="0 0 39 43" fill="none" xmlns="http://www.w3.org/2000/svg">
<path d="M4.76181 42.007C4.70467 41.975 4.64475 41.9482 4.5828 41.927C3.9629 41.798 3.39197 41.4968 2.93558 41.058C2.47919 40.6191 2.15585 40.0603 2.00278 39.446C1.69178 38.357 1.4028 37.263 1.1168 36.167C0.879677 35.3072 0.992637 34.3885 1.43094 33.6118C1.86925 32.835 2.59723 32.2634 3.45578 32.022C4.32005 31.7736 5.24735 31.8757 6.03684 32.3062C6.82633 32.7367 7.41447 33.4609 7.6738 34.322C7.8738 34.96 7.87382 34.96 8.53782 34.96H10.2588V34.492C10.2588 32.442 10.2768 30.3919 10.2538 28.3419C10.1954 26.4917 10.8419 24.6884 12.0628 23.297C12.0978 23.257 12.1268 23.211 12.1808 23.139C11.9438 22.913 11.7048 22.695 11.4758 22.4669C10.4863 21.4977 9.7311 20.3153 9.2678 19.0099C9.24445 18.8928 9.17715 18.7891 9.07969 18.7201C8.98223 18.6511 8.86203 18.6221 8.74381 18.639C8.35293 18.6673 7.96055 18.6107 7.59366 18.4729C7.22677 18.3351 6.89404 18.1195 6.61844 17.8409C6.34285 17.5623 6.1309 17.2272 5.99717 16.8589C5.86343 16.4905 5.81112 16.0975 5.84378 15.707C5.84378 15.215 5.83478 14.723 5.84378 14.231C5.84032 13.5254 6.11057 12.846 6.59769 12.3356C7.08481 11.8251 7.75084 11.5235 8.45578 11.494L8.64579 11.481L9.1298 9.00995C9.0078 8.97195 8.86377 8.93696 8.72977 8.88196C8.50251 8.81728 8.30349 8.67831 8.16446 8.48726C8.02543 8.29621 7.95445 8.06409 7.9628 7.82796C7.9864 7.27369 8.11432 6.72883 8.33982 6.22195C9.22619 4.57655 10.5298 3.19326 12.1198 2.21095C13.8881 1.00434 15.9335 0.265987 18.0648 0.0649567C18.1445 0.0507595 18.2228 0.029677 18.2988 0.00195312H20.2678C20.8968 0.112953 21.5328 0.189951 22.1518 0.339951C24.4497 0.817006 26.5912 1.86332 28.3798 3.38295C29.978 4.80968 30.9986 6.7722 31.2488 8.89995C31.3628 9.73495 31.1728 10.041 30.3758 10.349L30.5138 11.421C30.9021 11.4855 31.2849 11.5798 31.6588 11.703C32.126 11.8717 32.5332 12.1741 32.8298 12.5726C33.1264 12.9711 33.2993 13.448 33.3268 13.944C33.3828 14.637 33.3568 15.337 33.3458 16.034C33.3348 16.4357 33.2345 16.83 33.0522 17.1883C32.8699 17.5465 32.6101 17.8596 32.2918 18.1049L33.0448 18.436L33.1348 18.55C33.3348 18.311 33.5168 18.055 33.7348 17.835C33.8804 17.6506 34.0697 17.5055 34.2856 17.4128C34.5015 17.3202 34.7371 17.2828 34.971 17.3042C35.205 17.3255 35.4299 17.4049 35.6255 17.5351C35.821 17.6653 35.9809 17.8423 36.0908 18.05C36.1828 18.1694 36.3149 18.2515 36.4628 18.281C36.7819 18.3266 37.0788 18.4708 37.3119 18.6935C37.545 18.9162 37.7026 19.2062 37.7628 19.5229C37.777 19.634 37.8157 19.7404 37.876 19.8347C37.9364 19.9289 38.0169 20.0086 38.1118 20.0679C38.3012 20.1815 38.4605 20.339 38.5761 20.5271C38.6917 20.7153 38.7603 20.9285 38.776 21.1488C38.7917 21.3691 38.7541 21.5899 38.6663 21.7926C38.5785 21.9952 38.4432 22.1737 38.2718 22.313C37.7704 22.8912 37.2215 23.4264 36.6308 23.9129C35.8098 24.4979 35.1808 25.2669 34.4308 25.9129C32.9488 27.2083 31.1038 28.0159 29.1468 28.226C29.0408 28.238 28.9358 28.261 28.7918 28.285C28.7918 28.72 28.7918 29.141 28.7918 29.561C28.7848 30.035 28.5458 30.3089 28.1588 30.3009C27.7718 30.2929 27.5678 30.038 27.5588 29.574C27.5538 29.014 27.5588 28.453 27.5588 27.893C27.5588 27.269 27.7258 27.093 28.3428 27.062C30.2159 26.9971 32.0148 26.3139 33.4588 25.119C33.5438 25.05 33.6268 24.979 33.7068 24.905C33.7343 24.8741 33.7588 24.8406 33.7798 24.8049C32.2538 24.0449 32.2538 24.0449 31.5698 23.1109C31.4698 23.1719 31.3698 23.232 31.2778 23.296C30.6376 23.7706 29.8958 24.09 29.1111 24.2288C28.3263 24.3676 27.52 24.3222 26.7558 24.0959C26.4892 24.0135 26.2081 23.9886 25.9312 24.0231C25.6544 24.0576 25.388 24.1506 25.1498 24.296C24.5718 24.566 23.9498 24.741 23.3568 24.983C23.1771 25.0503 23.0236 25.1733 22.9188 25.334C22.6274 25.9588 22.1612 26.4858 21.5766 26.8512C20.992 27.2166 20.3141 27.4048 19.6248 27.393C18.9285 27.4127 18.2417 27.2277 17.6494 26.861C17.0572 26.4944 16.5855 25.962 16.2928 25.33C16.2098 25.1858 16.082 25.0727 15.9288 25.0079C15.0288 24.6519 14.1288 24.319 13.1388 23.946C12.3835 24.6838 11.8678 25.632 11.6588 26.667C11.4152 27.7787 11.4038 28.9288 11.6252 30.0453C11.8467 31.1617 12.2962 32.2203 12.9458 33.155C13.0148 33.255 13.0948 33.355 13.1558 33.455C13.2445 33.5867 13.2782 33.7479 13.2496 33.9041C13.221 34.0604 13.1324 34.1992 13.0028 34.291C12.8729 34.3828 12.7124 34.4205 12.5553 34.3961C12.3981 34.3716 12.2566 34.2869 12.1608 34.16C11.9448 33.883 11.7608 33.5839 11.4868 33.1929V34.746C11.4868 36.183 11.4868 36.183 10.0298 36.183H8.18882C8.49882 37.455 9.0568 38.675 8.4188 39.998H30.6188C29.9838 38.698 30.5298 37.47 30.8558 36.183C30.0148 36.183 29.2128 36.183 28.4108 36.183C27.7408 36.183 27.5608 36.002 27.5598 35.334C27.5598 34.486 27.5598 33.634 27.5598 32.791C27.5598 32.305 27.7868 32.039 28.1758 32.043C28.5648 32.047 28.7838 32.3239 28.7888 32.8049C28.7948 33.4749 28.7888 34.145 28.7958 34.8139C28.8029 34.8597 28.8136 34.9049 28.8278 34.949C29.5588 34.949 30.3048 34.961 31.0498 34.933C31.1358 34.933 31.2498 34.712 31.2878 34.576C31.411 33.9895 31.6894 33.4469 32.094 33.0048C32.4986 32.5628 33.0145 32.2375 33.5878 32.063C34.1588 31.8576 34.7759 31.8161 35.3692 31.9429C35.9626 32.0698 36.5087 32.3601 36.9458 32.781C37.4129 33.1794 37.7556 33.7037 37.9329 34.2915C38.1102 34.8793 38.1147 35.5057 37.9458 36.0959C37.6698 37.2079 37.3628 38.314 37.0458 39.416C36.895 40.0455 36.565 40.6179 36.0958 41.0639C35.6266 41.5099 35.0382 41.8103 34.4018 41.929C34.3368 41.9484 34.2733 41.9724 34.2118 42.001H33.2268C32.7078 41.772 32.1898 41.5379 31.6668 41.3179C31.5537 41.2755 31.4335 41.2555 31.3128 41.259C23.4534 41.259 15.5945 41.259 7.73581 41.259C7.6147 41.2539 7.49374 41.2726 7.3798 41.3139C6.8578 41.5359 6.34177 41.771 5.82377 42.002L4.76181 42.007ZM9.89481 16.244C11.9208 15.834 13.3768 16.387 14.1948 17.828C15.0308 19.297 14.7318 20.709 13.2238 22.364C14.0193 22.9907 14.9337 23.4493 15.9118 23.712C18.0802 24.1779 20.3163 24.2386 22.5068 23.891C23.7825 23.7034 24.9837 23.1748 25.9838 22.3609C24.5458 20.8469 24.1668 19.494 24.8838 18.082C25.8068 16.273 27.3448 15.776 29.2838 16.235C29.2838 14.84 29.2978 13.4739 29.2768 12.1089C29.2688 11.5789 29.1768 11.05 29.1318 10.52C29.1342 10.3924 29.089 10.2685 29.0051 10.1724C28.9212 10.0763 28.8045 10.0148 28.6778 9.99995C27.5688 9.73174 26.5499 9.1769 25.7228 8.39096C25.0838 7.76496 24.5228 7.05296 23.9128 6.35596C23.8318 6.43296 23.6988 6.56595 23.5588 6.69295C23.5032 6.758 23.4349 6.81107 23.3581 6.84895C23.2814 6.88683 23.1977 6.90873 23.1123 6.91331C23.0268 6.9179 22.9413 6.90507 22.8609 6.87561C22.7806 6.84615 22.7071 6.80069 22.6448 6.74196C22.583 6.67798 22.5353 6.60166 22.505 6.51801C22.4747 6.43435 22.4625 6.34525 22.469 6.25652C22.4755 6.16778 22.5006 6.08143 22.5428 6.0031C22.585 5.92477 22.6433 5.85622 22.7138 5.80196C22.8558 5.65396 23.0088 5.51696 23.1498 5.36896C23.9218 4.56096 24.6918 3.75095 25.4768 2.92795C25.4325 2.88594 25.3851 2.84749 25.3348 2.81296C21.0208 0.650958 16.7828 0.582953 12.6738 3.32095C11.3271 4.17469 10.2142 5.35042 9.43577 6.74196C9.28557 7.08816 9.16061 7.44475 9.0618 7.80896C9.41281 7.77688 9.76189 7.72681 10.1078 7.65895C11.4298 7.26407 12.6991 6.71036 13.8878 6.00995C13.9543 5.96045 14.0303 5.92526 14.1111 5.9066C14.1918 5.88794 14.2755 5.88621 14.357 5.90152C14.4384 5.91683 14.5159 5.94886 14.5843 5.99557C14.6528 6.04229 14.7108 6.10269 14.7548 6.17296C14.8442 6.30498 14.8789 6.46658 14.8515 6.62367C14.824 6.78076 14.7366 6.92105 14.6078 7.01495C14.4102 7.20236 14.2255 7.40282 14.0548 7.61496C13.8818 7.83096 13.9548 8.00595 14.1768 8.15695C14.3568 8.28605 14.5697 8.36135 14.7909 8.3741C15.012 8.38685 15.2322 8.33651 15.4258 8.22896C16.2388 7.79196 17.0258 7.31096 17.8068 6.81096C18.1158 6.61096 18.3918 6.42496 18.7308 6.67696C19.0528 6.91596 18.9948 7.23295 18.8728 7.56595C18.7828 7.81095 18.7418 8.07395 18.6518 8.43895C18.9264 8.39175 19.1967 8.32184 19.4598 8.22995C19.8178 8.06395 20.1528 7.85096 20.4978 7.65796C20.5648 7.61002 20.6409 7.57615 20.7213 7.55836C20.8018 7.54058 20.885 7.53926 20.966 7.55449C21.047 7.56972 21.1241 7.60118 21.1927 7.64697C21.2612 7.69277 21.3197 7.75194 21.3648 7.82095C21.4136 7.888 21.4476 7.9647 21.4644 8.04591C21.4812 8.12713 21.4805 8.211 21.4624 8.29193C21.4442 8.37286 21.409 8.44897 21.359 8.5152C21.3091 8.58142 21.2456 8.63622 21.1728 8.67595C20.7232 8.95748 20.2555 9.20903 19.7728 9.42896C19.5489 9.55134 19.3001 9.62115 19.0453 9.6331C18.7904 9.64506 18.5361 9.59884 18.3018 9.49796C17.9644 9.26691 17.6571 8.99483 17.3868 8.68796C16.9398 8.89596 16.4178 9.16095 15.8778 9.38795C15.5815 9.53154 15.2581 9.61043 14.9289 9.61935C14.5998 9.62828 14.2725 9.56705 13.9689 9.43973C13.6653 9.31241 13.3922 9.12191 13.1679 8.88091C12.9436 8.6399 12.773 8.35393 12.6678 8.04196C12.2157 8.26359 11.7457 8.44657 11.2628 8.58896C11.0009 8.62644 10.7595 8.75154 10.5779 8.94386C10.3963 9.13619 10.2852 9.38438 10.2628 9.64795C10.2582 9.67492 10.2522 9.70162 10.2448 9.72795C9.64079 11.86 10.0428 14.044 9.89377 16.244H9.89481ZM34.6858 33.131C34.1962 33.1116 33.7149 33.2615 33.3229 33.5555C32.9309 33.8495 32.6523 34.2695 32.5338 34.7449C32.2198 35.8463 31.9198 36.952 31.6338 38.062C31.4854 38.6022 31.5549 39.1791 31.8274 39.6687C32.0998 40.1582 32.5535 40.5213 33.0908 40.6799C33.3618 40.7667 33.6473 40.7989 33.9308 40.7746C34.2143 40.7504 34.4902 40.6702 34.7425 40.5387C34.9949 40.4072 35.2187 40.2271 35.401 40.0086C35.5834 39.7902 35.7206 39.5378 35.8048 39.266C36.1568 38.105 36.4768 36.933 36.7568 35.753C36.8337 35.4399 36.8381 35.1134 36.7697 34.7984C36.7013 34.4834 36.5618 34.1882 36.3619 33.9353C36.1621 33.6824 35.9071 33.4785 35.6164 33.3391C35.3258 33.1997 35.0071 33.1285 34.6848 33.131H34.6858ZM4.40177 33.131C4.09299 33.1219 3.786 33.1808 3.50248 33.3035C3.21895 33.4261 2.96583 33.6095 2.76096 33.8407C2.55609 34.0719 2.40451 34.3452 2.31687 34.6414C2.22923 34.9377 2.20772 35.2495 2.25382 35.5549C2.53603 36.8613 2.88713 38.1518 3.30576 39.421C3.50034 39.9326 3.88515 40.3493 4.37973 40.5839C4.87432 40.8185 5.44045 40.8529 5.95981 40.6799C6.47828 40.5296 6.92001 40.1875 7.19529 39.7231C7.47056 39.2587 7.55873 38.707 7.44181 38.1799C7.15281 36.9869 6.82482 35.804 6.47782 34.627C6.34271 34.1848 6.06646 33.799 5.69138 33.5287C5.3163 33.2583 4.863 33.1183 4.40079 33.13L4.40177 33.131ZM26.5828 3.51996C26.0578 4.09396 25.5518 4.63096 25.0718 5.18996C25.0351 5.25204 25.0137 5.32202 25.0095 5.39404C25.0053 5.46607 25.0184 5.53804 25.0478 5.60396C25.5045 6.46429 26.148 7.21156 26.9309 7.79103C27.7139 8.3705 28.6165 8.76751 29.5728 8.95296C29.7118 8.98096 29.8518 8.99895 30.0238 9.02695C29.8764 7.91637 29.493 6.85023 28.8993 5.90018C28.3056 4.95012 27.5154 4.13818 26.5818 3.51895L26.5828 3.51996ZM36.6008 19.8139C36.3308 19.4709 36.3268 19.466 36.1008 19.686C35.6918 20.086 35.2918 20.5 34.8808 20.901C34.8253 20.9799 34.7527 21.0452 34.6684 21.0919C34.584 21.1387 34.4902 21.1657 34.3939 21.1709C34.2976 21.1761 34.2014 21.1593 34.1125 21.1219C34.0236 21.0845 33.9444 21.0274 33.8808 20.955C33.806 20.8936 33.7463 20.8158 33.7065 20.7276C33.6666 20.6394 33.6476 20.5433 33.6509 20.4466C33.6541 20.3499 33.6797 20.2552 33.7254 20.1699C33.7712 20.0847 33.836 20.0111 33.9148 19.955C34.2148 19.641 34.5428 19.3449 34.8348 19.021C34.9027 18.9005 34.9465 18.7681 34.9638 18.631C34.8318 18.664 34.6638 18.656 34.5748 18.737C34.1748 19.107 33.8038 19.512 33.4058 19.886C33.3386 19.9648 33.2521 20.025 33.1548 20.0605C33.0575 20.0961 32.9526 20.1058 32.8504 20.0888C32.7482 20.0718 32.6522 20.0286 32.5716 19.9634C32.4911 19.8982 32.4288 19.8133 32.3908 19.7169C32.3018 19.5439 32.2808 19.29 31.9728 19.434C31.6648 19.578 31.8498 19.777 31.9028 19.952C32.0938 20.5919 32.3438 21.218 32.4828 21.868C32.5267 22.2221 32.6667 22.5574 32.8876 22.8377C33.1085 23.1179 33.4018 23.3324 33.7358 23.4579C34.075 23.5953 34.4468 23.6313 34.8061 23.5616C35.1653 23.4918 35.4966 23.3193 35.7598 23.065C36.3238 22.549 36.8478 21.9889 37.3948 21.4539C37.5948 21.2539 37.5238 21.1299 37.2588 20.9969C36.8778 21.3849 36.4888 21.786 36.0948 22.181C35.9952 22.3062 35.8511 22.3882 35.6926 22.4098C35.5341 22.4314 35.3733 22.391 35.2438 22.297C35.1488 22.2473 35.0676 22.1748 35.0076 22.0859C34.9476 21.997 34.9107 21.8946 34.9003 21.7879C34.8899 21.6812 34.9063 21.5735 34.9479 21.4747C34.9895 21.3759 35.0551 21.289 35.1388 21.222C35.6168 20.739 36.1168 20.277 36.5998 19.813L36.6008 19.8139ZM26.9798 21.476C27.9864 20.4361 28.7003 19.1486 29.0488 17.744C29.1168 17.479 28.9198 17.4539 28.7578 17.3999C28.2201 17.2273 27.6376 17.26 27.1227 17.4918C26.6077 17.7236 26.197 18.138 25.9698 18.655C25.7508 19.1655 25.7332 19.7401 25.9203 20.2632C26.1075 20.7863 26.4856 21.2192 26.9788 21.475L26.9798 21.476ZM10.1218 17.576C10.4466 19.0497 11.1779 20.4028 12.2328 21.4819C12.4987 21.3416 12.7333 21.1484 12.9222 20.9144C13.111 20.6803 13.2501 20.4102 13.3311 20.1205C13.412 19.8309 13.4331 19.5278 13.393 19.2297C13.3529 18.9317 13.2525 18.6449 13.0978 18.3869C12.8023 17.8936 12.3277 17.5334 11.7731 17.3814C11.2185 17.2293 10.6265 17.2973 10.1208 17.571L10.1218 17.576ZM27.3218 23.009C28.4379 23.2119 29.5889 22.968 30.5268 22.33C31.2328 21.86 31.2188 21.861 30.9718 21.069C30.7248 20.277 30.2328 19.497 30.9168 18.669C30.1168 18.635 30.1298 18.6419 29.8378 19.3009C29.6417 19.7944 29.3975 20.2673 29.1088 20.713C28.5488 21.487 27.9308 22.224 27.3198 23L27.3218 23.009ZM8.70981 17.382V12.752C8.51692 12.7281 8.32121 12.7436 8.13443 12.7973C7.94766 12.8511 7.77365 12.9421 7.62296 13.0649C7.47227 13.1876 7.34797 13.3396 7.25754 13.5116C7.16711 13.6837 7.11244 13.8722 7.09678 14.0659C7.047 14.7317 7.047 15.4002 7.09678 16.0659C7.10587 16.2618 7.15621 16.4535 7.24448 16.6286C7.33275 16.8036 7.45698 16.9581 7.60904 17.0818C7.76111 17.2055 7.93759 17.2958 8.12693 17.3467C8.31626 17.3975 8.5142 17.4078 8.7078 17.377L8.70981 17.382ZM30.4818 12.744V17.3829C30.673 17.4168 30.8691 17.41 31.0575 17.3628C31.2458 17.3157 31.422 17.2293 31.5747 17.1093C31.7273 16.9893 31.853 16.8385 31.9433 16.6666C32.0336 16.4947 32.0866 16.3057 32.0988 16.112C32.1447 15.4314 32.1447 14.7485 32.0988 14.0679C32.0846 13.8725 32.0307 13.6821 31.9406 13.5081C31.8504 13.3342 31.7259 13.1804 31.5744 13.0561C31.423 12.9318 31.2479 12.8396 31.0597 12.785C30.8715 12.7305 30.6742 12.7148 30.4798 12.739L30.4818 12.744ZM17.7588 25.2769C17.9759 25.552 18.2522 25.7747 18.5671 25.9286C18.8819 26.0826 19.2273 26.1637 19.5778 26.1661C19.9282 26.1685 20.2748 26.0921 20.5917 25.9425C20.9086 25.7929 21.1879 25.574 21.4088 25.302C21.372 25.2901 21.3342 25.2821 21.2958 25.278L17.7588 25.2769Z" fill="white"/>
<path d="M17.9999 33.6989C17.2267 33.4283 16.5237 32.9882 15.9425 32.4108C15.3613 31.8334 14.9166 31.1333 14.6409 30.3619C14.4674 29.8024 14.3557 29.2257 14.3079 28.6419C14.2881 28.554 14.288 28.4628 14.3076 28.3749C14.3272 28.287 14.366 28.2045 14.4213 28.1334C14.4765 28.0623 14.5469 28.0043 14.6272 27.9635C14.7075 27.9228 14.7959 27.9004 14.8859 27.8979C15.2549 27.8799 15.4919 28.1339 15.5269 28.5859C15.5535 29.5016 15.8708 30.3851 16.4331 31.1084C16.9953 31.8317 17.7731 32.3572 18.6539 32.6089C18.7716 32.6621 18.9031 32.6759 19.0292 32.6483C19.1553 32.6208 19.2693 32.5533 19.3539 32.4559C19.6929 32.1009 20.0669 31.7779 20.4289 31.4449C20.6342 31.2226 20.9043 31.0705 21.2008 31.0104C21.4974 30.9503 21.8053 30.9851 22.0809 31.1099C22.3719 31.2495 22.6144 31.473 22.7774 31.7515C22.9404 32.03 23.0165 32.3508 22.9959 32.6729L22.9819 32.9139L23.8509 33.2399C24.0719 33.2954 24.276 33.4043 24.4451 33.557C24.6142 33.7097 24.7432 33.9017 24.8208 34.1159C24.8984 34.3302 24.9222 34.5602 24.8901 34.7858C24.8581 35.0114 24.7711 35.2257 24.6369 35.4099C24.5812 35.4904 24.5461 35.5834 24.5346 35.6807C24.523 35.7779 24.5356 35.8765 24.5709 35.9679C24.6487 36.281 24.6299 36.6104 24.5172 36.9127C24.4044 37.215 24.2028 37.4762 23.9389 37.6619C23.7963 37.7685 23.6949 37.9211 23.6519 38.0939C23.6305 38.3201 23.5546 38.5379 23.4307 38.7284C23.3068 38.919 23.1386 39.0767 22.9405 39.1881C22.7424 39.2996 22.5203 39.3614 22.2931 39.3683C22.0659 39.3752 21.8404 39.327 21.6359 39.2279C20.9289 39.0202 20.2396 38.756 19.5749 38.4379C18.7594 38.075 17.9148 37.7816 17.0499 37.5609C16.1653 37.2082 15.3033 36.8011 14.4689 36.3419C14.3848 36.3086 14.3094 36.2566 14.2484 36.1897C14.1875 36.1229 14.1427 36.0429 14.1174 35.9561C14.0921 35.8692 14.087 35.7777 14.1025 35.6886C14.1181 35.5995 14.1538 35.5151 14.2069 35.4419C14.4069 35.1359 14.7499 35.1169 15.1469 35.3219C15.8469 35.6849 16.5639 36.0219 17.2769 36.3559C17.3914 36.3948 17.5092 36.4229 17.6289 36.4399C17.487 35.9836 17.4467 35.5018 17.5107 35.0283C17.5748 34.5547 17.7418 34.101 17.9999 33.6989ZM18.7099 35.2839C18.6836 35.6995 18.7864 36.1132 19.0043 36.4682C19.2221 36.8232 19.5444 37.1021 19.9269 37.2669C20.6269 37.5599 21.3519 37.8149 22.0709 38.0669C22.1589 38.0979 22.2859 38.0169 22.3959 37.9879C22.3329 37.8879 22.2899 37.7459 22.2019 37.7079C21.7629 37.5219 21.3089 37.3719 20.8659 37.1959C20.7793 37.1679 20.6992 37.1227 20.6304 37.063C20.5617 37.0033 20.5058 36.9303 20.466 36.8484C20.4262 36.7665 20.4034 36.6774 20.399 36.5865C20.3945 36.4955 20.4085 36.4047 20.4401 36.3193C20.4717 36.2339 20.5203 36.1558 20.5828 36.0896C20.6454 36.0235 20.7206 35.9707 20.8041 35.9344C20.8876 35.8981 20.9776 35.8791 21.0687 35.8785C21.1597 35.8779 21.25 35.8957 21.3339 35.9309C21.8859 36.1309 22.4339 36.3449 22.9869 36.5309C23.0929 36.5659 23.2359 36.4919 23.3609 36.4689C23.2849 36.3689 23.23 36.2199 23.13 36.1789C22.576 35.9509 22.0069 35.7569 21.4499 35.5349C21.3634 35.5119 21.283 35.4701 21.2145 35.4125C21.1461 35.3549 21.0912 35.2829 21.0537 35.2016C21.0163 35.1203 20.9972 35.0318 20.9979 34.9423C20.9987 34.8528 21.0192 34.7645 21.0579 34.6839C21.0803 34.5937 21.1227 34.5098 21.1821 34.4383C21.2414 34.3669 21.3162 34.3098 21.4007 34.2713C21.4852 34.2329 21.5774 34.214 21.6702 34.2162C21.7631 34.2184 21.8542 34.2415 21.9369 34.2839C22.3869 34.4409 22.8289 34.6239 23.2819 34.7709C23.3819 34.8019 23.5069 34.7299 23.6209 34.7049C23.5499 34.6049 23.5019 34.4419 23.4039 34.4049C22.8879 34.1909 22.3549 34.0189 21.8379 33.8049C21.7342 33.7768 21.6399 33.7213 21.5649 33.6444C21.49 33.5674 21.437 33.4717 21.4117 33.3672C21.3863 33.2628 21.3895 33.1534 21.4208 33.0507C21.4522 32.9479 21.5106 32.8554 21.5899 32.7829C21.7269 32.6219 21.8699 32.4609 21.6339 32.3219C21.5594 32.3045 21.4818 32.3045 21.4073 32.3218C21.3327 32.3392 21.2632 32.3734 21.2039 32.4219C20.5859 32.9359 19.985 33.4709 19.38 33.9999C19.1873 34.1578 19.0286 34.3533 18.9136 34.5743C18.7986 34.7953 18.7297 35.0374 18.7109 35.2859L18.7099 35.2839Z" fill="white"/>
<path d="M20.1248 28.614C20.1295 28.692 20.1186 28.7702 20.0927 28.8439C20.0668 28.9176 20.0265 28.9854 19.9741 29.0434C19.9216 29.1013 19.8581 29.1482 19.7873 29.1813C19.7166 29.2143 19.6398 29.2329 19.5618 29.236C19.4825 29.2385 19.4035 29.2254 19.3293 29.1973C19.2552 29.1693 19.1873 29.1269 19.1295 29.0727C19.0716 29.0184 19.0251 28.9533 18.9925 28.881C18.9599 28.8087 18.9418 28.7308 18.9393 28.6515C18.9368 28.5722 18.9499 28.4933 18.9779 28.4191C19.0059 28.3449 19.0483 28.277 19.1026 28.2192C19.1569 28.1614 19.222 28.1148 19.2942 28.0822C19.3665 28.0496 19.4445 28.0315 19.5237 28.029C19.6019 28.027 19.6796 28.0406 19.7524 28.0691C19.8251 28.0976 19.8915 28.1404 19.9475 28.1949C20.0035 28.2494 20.048 28.3146 20.0785 28.3865C20.1089 28.4585 20.1246 28.5359 20.1248 28.614Z" fill="white"/>
<path d="M19.5397 30.0798C19.619 30.0821 19.697 30.1 19.7694 30.1325C19.8417 30.1649 19.907 30.2113 19.9614 30.269C20.0158 30.3266 20.0583 30.3945 20.0865 30.4686C20.1147 30.5427 20.128 30.6216 20.1257 30.7008C20.1234 30.7801 20.1055 30.8581 20.0731 30.9305C20.0406 31.0028 19.9943 31.068 19.9366 31.1225C19.8789 31.1769 19.8111 31.2194 19.737 31.2476C19.6629 31.2758 19.584 31.2891 19.5047 31.2868C19.3447 31.2822 19.193 31.2142 19.0831 31.0977C18.9732 30.9813 18.9141 30.8259 18.9187 30.6658C18.9234 30.5058 18.9914 30.3541 19.1079 30.2442C19.2243 30.1343 19.3797 30.0752 19.5397 30.0798Z" fill="white"/>
<path d="M19.6218 17.4739C20.5778 17.4739 21.5338 17.4659 22.4898 17.4739C22.6376 17.4676 22.7852 17.4919 22.9233 17.5452C23.0614 17.5985 23.187 17.6796 23.2923 17.7836C23.3977 17.8875 23.4805 18.012 23.5357 18.1494C23.5908 18.2867 23.617 18.4339 23.6127 18.5819C23.6348 19.6021 23.2863 20.5957 22.6317 21.3785C21.977 22.1613 21.0608 22.6801 20.0527 22.8389C19.0926 22.9263 18.1328 22.6676 17.3465 22.1096C16.5602 21.5517 15.9993 20.7311 15.7648 19.7959C15.6686 19.4264 15.6132 19.0475 15.5997 18.6659C15.5828 18.5085 15.6006 18.3493 15.6519 18.1996C15.7033 18.0499 15.7869 17.9132 15.8969 17.7994C16.0069 17.6856 16.1406 17.5974 16.2885 17.5409C16.4364 17.4845 16.5949 17.4613 16.7528 17.4729C17.7048 17.4669 18.6658 17.4729 19.6218 17.4739ZM22.3738 18.7279H16.8538C16.8336 19.1028 16.89 19.478 17.0196 19.8304C17.1492 20.1828 17.3492 20.5051 17.6074 20.7777C17.8657 21.0502 18.1769 21.2673 18.5218 21.4157C18.8667 21.564 19.2383 21.6405 19.6138 21.6405C19.9893 21.6405 20.3608 21.564 20.7058 21.4157C21.0507 21.2673 21.3618 21.0502 21.6201 20.7777C21.8783 20.5051 22.0784 20.1828 22.208 19.8304C22.3375 19.478 22.394 19.1028 22.3738 18.7279Z" fill="white"/>
<path d="M19.7117 14.8419C19.8617 14.8419 20.0247 14.8369 20.1867 14.8419C20.2625 14.8368 20.3385 14.847 20.4102 14.8721C20.4819 14.8971 20.5478 14.9364 20.6039 14.9876C20.6599 15.0389 20.7051 15.1009 20.7365 15.1701C20.7679 15.2392 20.785 15.314 20.7867 15.3899C20.802 15.4647 20.8012 15.5418 20.7844 15.6162C20.7676 15.6906 20.7352 15.7606 20.6894 15.8216C20.6435 15.8825 20.5853 15.9331 20.5185 15.9699C20.4517 16.0066 20.3778 16.0288 20.3017 16.0349C19.9108 16.0776 19.5156 16.0635 19.1287 15.9929C18.9135 15.9408 18.7234 15.8151 18.591 15.6376C18.4586 15.4602 18.3924 15.242 18.4037 15.0209C18.3867 14.6399 18.3877 14.2579 18.4037 13.8769C18.3982 13.7913 18.4104 13.7054 18.4396 13.6248C18.4688 13.5441 18.5144 13.4703 18.5735 13.4081C18.6325 13.3458 18.7038 13.2965 18.7828 13.263C18.8619 13.2296 18.9469 13.2129 19.0327 13.2139C19.1182 13.2168 19.2022 13.2372 19.2795 13.2738C19.3567 13.3105 19.4257 13.3627 19.4819 13.4271C19.5382 13.4915 19.5806 13.5668 19.6066 13.6483C19.6325 13.7298 19.6414 13.8158 19.6327 13.9009C19.6427 14.1869 19.6457 14.4719 19.6537 14.7579C19.6467 14.7689 19.6617 14.7789 19.7117 14.8419Z" fill="white"/>
<path d="M25.4398 13.575C25.4398 13.684 25.4478 13.793 25.4398 13.901C25.4357 14.0588 25.3712 14.2091 25.2596 14.3207C25.1479 14.4324 24.9976 14.4969 24.8398 14.501C24.6814 14.5012 24.529 14.4406 24.414 14.3318C24.299 14.2229 24.2302 14.0741 24.2217 13.916C24.2051 13.6856 24.2051 13.4543 24.2217 13.224C24.2182 13.0588 24.2802 12.8989 24.3941 12.7792C24.508 12.6595 24.6646 12.5897 24.8298 12.585C24.9149 12.5851 24.999 12.6029 25.077 12.637C25.1549 12.6711 25.225 12.7209 25.2829 12.7833C25.3408 12.8456 25.3852 12.9193 25.4134 12.9996C25.4416 13.0799 25.453 13.1651 25.4468 13.25C25.4468 13.358 25.4468 13.467 25.4468 13.576L25.4398 13.575Z" fill="white"/>
<path d="M13.7718 13.5231C13.7648 12.8821 13.9477 12.5951 14.3607 12.5871C14.7737 12.5791 14.9958 12.8871 14.9938 13.5401C15.0007 13.6899 14.9923 13.84 14.9688 13.9881C14.9598 14.0635 14.9359 14.1363 14.8985 14.2024C14.8611 14.2685 14.8109 14.3265 14.7509 14.373C14.6909 14.4195 14.6222 14.4537 14.5489 14.4734C14.4755 14.4932 14.399 14.4981 14.3238 14.4881C14.1774 14.4855 14.0379 14.4258 13.9349 14.3217C13.832 14.2176 13.7738 14.0774 13.7728 13.9311C13.7628 13.7971 13.7718 13.6601 13.7718 13.5231Z" fill="white"/>
</svg>
