<svg width="19" height="17" viewBox="0 0 19 17" fill="none" xmlns="http://www.w3.org/2000/svg">
<path d="M16.6094 3.41599C16.6143 3.30322 16.5958 3.19065 16.5551 3.08536C16.5144 2.98007 16.4524 2.88432 16.373 2.80413C16.2935 2.72394 16.1984 2.66103 16.0935 2.61936C15.9886 2.57769 15.8762 2.55816 15.7634 2.56199H8.55338C8.5114 2.56552 8.46917 2.55933 8.42997 2.5439C8.39078 2.52846 8.35567 2.5042 8.32738 2.47299L7.49238 1.63799L7.48538 1.63099C7.40389 1.5433 7.30392 1.47484 7.19271 1.43056C7.0815 1.38628 6.96183 1.3673 6.84237 1.37499H3.27637C3.15999 1.37044 3.04386 1.38897 2.93466 1.4295C2.82547 1.47003 2.72537 1.53176 2.64014 1.61114C2.5549 1.69052 2.48621 1.78597 2.43803 1.89201C2.38984 1.99805 2.36311 2.11257 2.35938 2.22899V4.93799H16.6094V3.41599Z" stroke="#828282"/>
<path d="M2.35933 5.97699H2.05133C1.57633 5.97699 1.11233 6.16599 1.17933 6.87699C1.24633 7.58799 2.05133 14.696 2.05133 14.696C2.15133 15.357 2.48533 15.624 2.97933 15.624H16.0603C16.5313 15.624 16.8393 15.335 16.9143 14.696C16.9143 14.696 17.7383 7.83399 17.7903 7.06999C17.8423 6.30599 17.4603 5.97499 16.9143 5.97499H2.35933V5.97699Z" stroke="#828282"/>
</svg>
