<svg width="29" height="13" viewBox="0 0 29 13" fill="none" xmlns="http://www.w3.org/2000/svg">
<path d="M26.6141 0.00897217H24.3431V4.17297C24.3432 4.22278 24.3335 4.27212 24.3145 4.31816C24.2955 4.36421 24.2676 4.40604 24.2324 4.44126C24.1971 4.47648 24.1553 4.50439 24.1093 4.52339C24.0632 4.54239 24.0139 4.5521 23.9641 4.55197H23.2071C23.1573 4.5521 23.1079 4.54239 23.0619 4.52339C23.0158 4.50439 22.974 4.47648 22.9388 4.44126C22.9036 4.40604 22.8757 4.36421 22.8567 4.31816C22.8377 4.27212 22.8279 4.22278 22.8281 4.17297V0.00897217H19.8001V4.17297C19.8002 4.22278 19.7905 4.27212 19.7715 4.31816C19.7525 4.36421 19.7246 4.40604 19.6894 4.44126C19.6541 4.47648 19.6123 4.50439 19.5663 4.52339C19.5202 4.54239 19.4709 4.5521 19.4211 4.55197H18.6641C18.6143 4.5521 18.5649 4.54239 18.5189 4.52339C18.4728 4.50439 18.431 4.47648 18.3958 4.44126C18.3606 4.40604 18.3327 4.36421 18.3137 4.31816C18.2947 4.27212 18.2849 4.22278 18.2851 4.17297V0.00897217H15.2571V4.17297C15.2572 4.22278 15.2475 4.27212 15.2285 4.31816C15.2095 4.36421 15.1816 4.40604 15.1464 4.44126C15.1111 4.47648 15.0693 4.50439 15.0233 4.52339C14.9772 4.54239 14.9279 4.5521 14.8781 4.55197H14.1221C14.0723 4.5521 14.0229 4.54239 13.9769 4.52339C13.9308 4.50439 13.889 4.47648 13.8538 4.44126C13.8186 4.40604 13.7907 4.36421 13.7717 4.31816C13.7527 4.27212 13.7429 4.22278 13.7431 4.17297V0.00897217H10.7151V4.17297C10.7152 4.22278 10.7055 4.27212 10.6865 4.31816C10.6675 4.36421 10.6396 4.40604 10.6044 4.44126C10.5691 4.47648 10.5273 4.50439 10.4813 4.52339C10.4352 4.54239 10.3859 4.5521 10.3361 4.55197H9.57907C9.52926 4.5521 9.47992 4.54239 9.43388 4.52339C9.38784 4.50439 9.346 4.47648 9.31078 4.44126C9.27556 4.40604 9.24765 4.36421 9.22865 4.31816C9.20965 4.27212 9.19994 4.22278 9.20007 4.17297V0.00897217H6.17207V4.17297C6.1722 4.22278 6.16249 4.27212 6.14349 4.31816C6.12449 4.36421 6.09658 4.40604 6.06136 4.44126C6.02614 4.47648 5.98431 4.50439 5.93826 4.52339C5.89222 4.54239 5.84288 4.5521 5.79307 4.55197H5.03607C4.98626 4.5521 4.93692 4.54239 4.89088 4.52339C4.84484 4.50439 4.803 4.47648 4.76778 4.44126C4.73256 4.40604 4.70465 4.36421 4.68565 4.31816C4.66665 4.27212 4.65694 4.22278 4.65707 4.17297V0.00897217H2.38607C1.98453 0.00897217 1.59944 0.168483 1.31551 0.452413C1.03158 0.736343 0.87207 1.12143 0.87207 1.52297L0.87207 10.609C0.87207 11.0105 1.03158 11.3956 1.31551 11.6795C1.59944 11.9635 1.98453 12.123 2.38607 12.123H26.6141C27.0156 12.123 27.4007 11.9635 27.6846 11.6795C27.9686 11.3956 28.1281 11.0105 28.1281 10.609V1.52297C28.1281 1.12143 27.9686 0.736343 27.6846 0.452413C27.4007 0.168483 27.0156 0.00897217 26.6141 0.00897217Z" fill="#828282"/>
</svg>
