<svg width="42" height="42" viewBox="0 0 42 42" fill="none" xmlns="http://www.w3.org/2000/svg">
<path d="M21 0C16.8466 0 12.7865 1.23163 9.33303 3.53914C5.8796 5.84665 3.18798 9.1264 1.59854 12.9636C0.00909889 16.8009 -0.406771 21.0233 0.403519 25.0969C1.21381 29.1705 3.21386 32.9123 6.15077 35.8492C9.08767 38.7861 12.8295 40.7862 16.9031 41.5965C20.9767 42.4068 25.1991 41.9909 29.0364 40.4015C32.8736 38.812 36.1534 36.1204 38.4609 32.667C40.7684 29.2135 42 25.1534 42 21C42 15.4305 39.7875 10.089 35.8493 6.15076C31.911 2.21249 26.5696 0 21 0ZM30.137 22.615H22.615V30.137C22.615 30.5655 22.4448 30.9764 22.1418 31.2793C21.8389 31.5823 21.428 31.7525 20.9995 31.7525C20.5711 31.7525 20.1601 31.5823 19.8572 31.2793C19.5542 30.9764 19.384 30.5655 19.384 30.137V22.615H11.863C11.4346 22.615 11.0236 22.4448 10.7207 22.1418C10.4177 21.8389 10.2475 21.428 10.2475 20.9995C10.2475 20.571 10.4177 20.1601 10.7207 19.8572C11.0236 19.5542 11.4346 19.384 11.863 19.384H19.385V11.863C19.385 11.4345 19.5552 11.0236 19.8582 10.7207C20.1611 10.4177 20.5721 10.2475 21.0005 10.2475C21.429 10.2475 21.8399 10.4177 22.1428 10.7207C22.4458 11.0236 22.616 11.4345 22.616 11.863V19.385H30.138C30.5665 19.385 30.9774 19.5552 31.2803 19.8582C31.5833 20.1611 31.7535 20.572 31.7535 21.0005C31.7535 21.429 31.5833 21.8399 31.2803 22.1428C30.9774 22.4458 30.5665 22.616 30.138 22.616L30.137 22.615Z" fill="#7355B6"/>
</svg>
