<svg width="40" height="29" viewBox="0 0 40 29" fill="none" xmlns="http://www.w3.org/2000/svg">
<path d="M5.124 1H33.993C36.271 1 38.117 2.343 38.117 4V25C38.117 26.657 36.271 28 33.993 28H5.124C2.846 28 1 26.657 1 25V4C1 2.343 2.846 1 5.124 1Z" stroke="#D5D5D5" stroke-width="2" stroke-linecap="round" stroke-linejoin="round"/>
<path d="M14.198 9.25C14.198 9.69501 14.066 10.13 13.8188 10.5C13.5716 10.87 13.2202 11.1584 12.809 11.3287C12.3979 11.499 11.9455 11.5436 11.509 11.4568C11.0726 11.37 10.6717 11.1557 10.357 10.841C10.0423 10.5263 9.82805 10.1254 9.74123 9.68895C9.65442 9.2525 9.69897 8.8001 9.86927 8.38896C10.0396 7.97783 10.328 7.62643 10.698 7.37919C11.068 7.13196 11.503 7 11.948 7C12.5447 7 13.117 7.23705 13.539 7.65901C13.9609 8.08097 14.198 8.65326 14.198 9.25V9.25Z" stroke="#D5D5D5" stroke-width="2" stroke-linecap="round" stroke-linejoin="round"/>
<path d="M38.117 19L27.456 11.5L4 28" stroke="#D5D5D5" stroke-width="2" stroke-linecap="round" stroke-linejoin="round"/>
</svg>
