<svg width="11" height="10" viewBox="0 0 11 10" fill="none" xmlns="http://www.w3.org/2000/svg">
<path d="M0.25 0.637015C0.285083 0.560087 0.343957 0.496481 0.417969 0.455604C0.491981 0.414726 0.577093 0.39874 0.660889 0.41001C1.40489 0.41701 2.15004 0.41001 2.89404 0.41001C3.39499 0.402971 3.89071 0.51253 4.34204 0.730018C4.75622 0.92972 5.21114 1.03004 5.6709 1.02302C7.0199 1.02302 8.37102 1.02302 9.71802 1.02302C9.89941 1.01056 10.0803 1.05388 10.2363 1.14719C10.3924 1.2405 10.5162 1.37933 10.5911 1.54502C10.6518 1.67716 10.6842 1.82057 10.686 1.96601C10.695 2.76601 10.686 3.56602 10.686 4.36602C10.6884 4.40761 10.6822 4.44925 10.668 4.48838C10.6537 4.52751 10.6316 4.56332 10.603 4.5936C10.5744 4.62389 10.54 4.64802 10.5017 4.66451C10.4635 4.681 10.4223 4.68951 10.3806 4.68951C10.339 4.68951 10.2975 4.681 10.2593 4.66451C10.221 4.64802 10.1866 4.62389 10.158 4.5936C10.1294 4.56332 10.1073 4.52751 10.093 4.48838C10.0787 4.44925 10.0726 4.40761 10.075 4.36602C10.075 3.58135 10.075 2.79634 10.075 2.01101C10.075 1.75101 9.96288 1.63902 9.70288 1.63802H8.81006C8.79006 1.89202 8.76898 2.13802 8.75098 2.38502C8.69164 3.15368 8.63233 3.92235 8.573 4.69102C8.51567 5.44302 8.45877 6.19501 8.4021 6.94701C8.3561 7.54701 8.31301 8.14702 8.26001 8.74702C8.24132 8.98379 8.13157 9.2041 7.95386 9.36167C7.77615 9.51924 7.54419 9.60181 7.30688 9.59202C6.34155 9.59202 5.37498 9.59202 4.40698 9.59202C3.93498 9.59202 3.46199 9.59202 2.98999 9.59202C2.79099 9.60087 2.59482 9.54286 2.43262 9.42724C2.27041 9.31161 2.1515 9.14502 2.09497 8.95402C2.05394 8.79633 2.02948 8.63479 2.02197 8.47202C1.93597 7.53902 1.85304 6.60502 1.76904 5.67202C1.68104 4.70502 1.59495 3.73701 1.50195 2.77201C1.48918 2.6887 1.45699 2.60958 1.40796 2.54102C1.06396 2.02702 0.715117 1.51701 0.370117 1.00501C0.323117 0.935012 0.284943 0.859017 0.241943 0.786018L0.25 0.637015ZM8.198 1.63702H8.07397C7.24464 1.63702 6.41527 1.63702 5.58594 1.63702C5.09153 1.64299 4.60249 1.53449 4.15698 1.32001C3.74069 1.11544 3.2819 1.01261 2.81812 1.02001C2.29812 1.02601 1.77806 1.02001 1.25806 1.02001H1.13696C1.16696 1.06701 1.18605 1.09801 1.20605 1.12801C1.44939 1.48801 1.69332 1.84769 1.93799 2.20702C2.03248 2.3365 2.09244 2.48793 2.11206 2.64701C2.13073 2.83301 2.14837 3.01901 2.16504 3.20501C2.22237 3.83768 2.27958 4.47102 2.33691 5.10502C2.40358 5.81902 2.47044 6.53268 2.53711 7.24601C2.58011 7.72001 2.62002 8.19301 2.66602 8.66701C2.66551 8.70998 2.67406 8.75258 2.69116 8.792C2.70827 8.83142 2.73341 8.86677 2.76514 8.89576C2.79686 8.92474 2.83444 8.9467 2.87524 8.96018C2.91604 8.97367 2.9592 8.97839 3.00195 8.97402H7.32495C7.3677 8.97892 7.41099 8.97455 7.4519 8.96123C7.49282 8.94792 7.53057 8.92596 7.56226 8.89684C7.59394 8.86772 7.61879 8.83213 7.6355 8.79247C7.65221 8.75282 7.66022 8.71003 7.65894 8.66701C7.70294 8.12501 7.74291 7.58302 7.78491 7.04102C7.84358 6.27902 7.90227 5.51701 7.96094 4.75501C8.0056 4.17901 8.0503 3.60336 8.09497 3.02802C8.12497 2.57002 8.16005 2.10901 8.19604 1.63601L8.198 1.63702Z" fill="#828282"/>
<path d="M3.94611 4.69501H4.99298C5.14298 4.69501 5.29298 4.69501 5.44098 4.69501C5.48257 4.69263 5.52416 4.69877 5.5633 4.71304C5.60243 4.72732 5.63823 4.74944 5.66852 4.77805C5.69881 4.80665 5.72307 4.84114 5.73956 4.87939C5.75605 4.91765 5.76447 4.95886 5.76447 5.00052C5.76447 5.04218 5.75605 5.08339 5.73956 5.12164C5.72307 5.1599 5.69881 5.19439 5.66852 5.22299C5.63823 5.25159 5.60243 5.27372 5.5633 5.28799C5.52416 5.30227 5.48257 5.30841 5.44098 5.30603C4.97898 5.30603 4.51699 5.30603 4.05499 5.30603H3.94098V6.52902H4.04889C4.51489 6.52902 4.98004 6.52902 5.44904 6.52902C5.50144 6.52422 5.55408 6.53328 5.60187 6.5553C5.64966 6.57732 5.69086 6.61152 5.72125 6.65448C5.75165 6.69744 5.77035 6.74765 5.77521 6.80005C5.78007 6.85245 5.77106 6.90518 5.74909 6.953C5.72347 7.0129 5.67943 7.0632 5.6236 7.09677C5.56777 7.13034 5.50296 7.14547 5.43805 7.14001C4.97905 7.14001 4.52007 7.14001 4.06207 7.14001H3.94C3.94 7.23101 3.94 7.31502 3.94 7.39902C3.94615 7.4428 3.9428 7.48737 3.93024 7.52975C3.91768 7.57214 3.89626 7.61135 3.86725 7.64471C3.83824 7.67808 3.80225 7.70481 3.76203 7.72314C3.7218 7.74148 3.6783 7.75098 3.6341 7.75098C3.58989 7.75098 3.54615 7.74148 3.50592 7.72314C3.46569 7.70481 3.4297 7.67808 3.4007 7.64471C3.37169 7.61135 3.35027 7.57214 3.33771 7.52975C3.32515 7.48737 3.3218 7.4428 3.32794 7.39902C3.32794 6.01968 3.32794 4.64001 3.32794 3.26001C3.32794 3.03601 3.32794 2.81101 3.32794 2.58701C3.32371 2.54434 3.32843 2.50129 3.34186 2.46057C3.35529 2.41986 3.37704 2.38239 3.40582 2.35062C3.4346 2.31884 3.46991 2.29344 3.5091 2.27606C3.54829 2.25868 3.59074 2.24969 3.63361 2.24969C3.67648 2.24969 3.71868 2.25868 3.75788 2.27606C3.79707 2.29344 3.83237 2.31884 3.86115 2.35062C3.88993 2.38239 3.91169 2.41986 3.92511 2.46057C3.93854 2.50129 3.94326 2.54434 3.93903 2.58701C3.93903 2.67401 3.93903 2.76201 3.93903 2.85901H4.0589C4.5239 2.85901 4.99005 2.85901 5.45905 2.85901C5.51411 2.85518 5.569 2.86662 5.61798 2.89206C5.66696 2.9175 5.7081 2.95596 5.73664 3.0032C5.76517 3.05045 5.78013 3.10463 5.77985 3.15982C5.77956 3.21501 5.76394 3.26906 5.73493 3.31601C5.70569 3.36634 5.66308 3.40747 5.61164 3.43469C5.56019 3.46192 5.50197 3.47416 5.44391 3.47003H3.94904L3.94611 4.69501Z" fill="#828282"/>
</svg>
