<svg width="17" height="22" viewBox="0 0 17 22" fill="none" xmlns="http://www.w3.org/2000/svg">
<path d="M10.605 18.447C10.455 18.4465 10.3093 18.4975 10.1923 18.5914C10.0753 18.6853 9.99401 18.8165 9.96199 18.963C9.92357 19.1648 9.83675 19.3542 9.70899 19.515C9.60643 19.6258 9.47913 19.7107 9.33748 19.7628C9.19584 19.8149 9.04387 19.8328 8.89399 19.815C8.74419 19.8316 8.5926 19.8131 8.45116 19.761C8.30973 19.7089 8.18233 19.6247 8.07899 19.515C7.95016 19.3545 7.8623 19.1651 7.82299 18.963C7.79098 18.8165 7.70969 18.6853 7.59268 18.5914C7.47567 18.4975 7.33002 18.4465 7.17999 18.447C7.0816 18.4473 6.98452 18.4696 6.89585 18.5123C6.80719 18.5549 6.72918 18.6169 6.66754 18.6935C6.6059 18.7702 6.56219 18.8597 6.5396 18.9555C6.51701 19.0513 6.51612 19.1509 6.53699 19.247C6.63043 19.7944 6.92197 20.2883 7.35607 20.6347C7.79017 20.981 8.33651 21.1555 8.89099 21.125C9.44568 21.1564 9.99247 20.9822 10.4268 20.6357C10.8611 20.2893 11.1524 19.7948 11.245 19.247C11.2653 19.1509 11.264 19.0515 11.2412 18.956C11.2184 18.8605 11.1746 18.7712 11.1131 18.6946C11.0515 18.6181 10.9738 18.5562 10.8854 18.5133C10.797 18.4705 10.7002 18.4479 10.602 18.447H10.605Z" fill="#828282"/>
<path d="M16.7971 15.875C16.0171 14.845 14.4831 14.245 14.4831 9.645C14.4831 4.922 12.3971 3.024 10.4531 2.568C10.2711 2.522 10.1391 2.462 10.1391 2.268V2.121C10.1402 1.7957 10.0136 1.48295 9.78663 1.24996C9.55962 1.01696 9.25027 0.882332 8.92505 0.875H8.89505C8.56983 0.88207 8.26037 1.01645 8.03318 1.24925C7.80598 1.48206 7.67919 1.79471 7.68005 2.12V2.267C7.68005 2.454 7.54805 2.52 7.36605 2.567C5.41705 3.028 3.33605 4.921 3.33605 9.644C3.33605 14.244 1.80205 14.844 1.02305 15.876C0.908714 16.0245 0.838416 16.2022 0.820177 16.3887C0.801937 16.5753 0.836489 16.7632 0.919893 16.931C1.0033 17.0989 1.13219 17.2399 1.29188 17.338C1.45157 17.4362 1.63563 17.4874 1.82305 17.486H16.0071C16.1929 17.4835 16.3743 17.4295 16.5314 17.3302C16.6884 17.2308 16.8148 17.0899 16.8966 16.923C16.9784 16.7562 17.0124 16.5699 16.9949 16.3849C16.9773 16.2 16.9088 16.0235 16.7971 15.875ZM14.8231 16.169H3.01705C2.97407 16.1693 2.93192 16.1571 2.89573 16.1339C2.85953 16.1107 2.83086 16.0775 2.81317 16.0383C2.79549 15.9992 2.78956 15.9557 2.7961 15.9132C2.80265 15.8707 2.82139 15.831 2.85005 15.799C3.29441 15.2972 3.6535 14.726 3.91305 14.108C4.44832 12.6825 4.69444 11.1646 4.63705 9.643C4.54531 8.10448 4.91362 6.57347 5.69505 5.245C6.14457 4.54458 6.8458 4.04345 7.65405 3.845C8.01578 3.77007 8.3451 3.58409 8.59605 3.313C8.63287 3.2698 8.67847 3.23494 8.7298 3.21072C8.78114 3.18651 8.83704 3.17349 8.89379 3.17255C8.95055 3.1716 9.00685 3.18274 9.05896 3.20524C9.11108 3.22773 9.15781 3.26105 9.19605 3.303C9.45076 3.57643 9.78291 3.76554 10.1481 3.845C10.9563 4.04345 11.6575 4.54458 12.107 5.245C12.8896 6.57383 13.2586 8.1056 13.1671 9.645C13.1097 11.1666 13.3558 12.6845 13.8911 14.11C14.1569 14.7379 14.5245 15.3177 14.9791 15.826C15.0041 15.8563 15.02 15.893 15.0251 15.932C15.0302 15.9709 15.0242 16.0105 15.0078 16.0462C14.9914 16.0819 14.9653 16.1123 14.9324 16.1338C14.8996 16.1554 14.8613 16.1672 14.8221 16.168L14.8231 16.169Z" fill="#828282"/>
</svg>
