<svg width="19" height="20" viewBox="0 0 19 20" fill="none" xmlns="http://www.w3.org/2000/svg">
<path d="M0.26416 14.172C0.29831 13.9038 0.351817 13.6385 0.424194 13.378C0.556898 12.9585 0.727169 12.5518 0.933105 12.163C2.14911 10.026 3.38621 7.90097 4.61621 5.77197C4.82821 5.40497 5.13521 5.40297 5.34521 5.77197C6.57588 7.90064 7.8052 10.03 9.0332 12.16C9.37752 12.7368 9.5945 13.3806 9.6698 14.0482C9.7451 14.7157 9.6769 15.3917 9.46973 16.0307C9.26255 16.6697 8.92128 17.2571 8.46863 17.7535C8.01598 18.2499 7.46249 18.6439 6.84521 18.909C6.78126 18.9392 6.71412 18.9623 6.64514 18.978C6.56408 18.9935 6.48015 18.9797 6.40845 18.9388C6.33675 18.8979 6.28201 18.8327 6.25415 18.755C6.22345 18.6787 6.22035 18.5941 6.24536 18.5158C6.27037 18.4375 6.32189 18.3704 6.39111 18.326C6.44882 18.293 6.50906 18.2646 6.57117 18.241C7.07945 18.025 7.53693 17.705 7.91418 17.3017C8.29144 16.8984 8.58014 16.4206 8.76172 15.899C8.9433 15.3774 9.01372 14.8236 8.96851 14.2732C8.92329 13.7228 8.7634 13.1879 8.49915 12.703C7.48715 10.868 6.41211 9.06698 5.36511 7.25098L4.99219 6.60596C4.94819 6.67296 4.91316 6.719 4.88416 6.768C3.77816 8.68267 2.67278 10.5977 1.56812 12.513C1.26928 13.0044 1.08049 13.5547 1.01465 14.1261C0.948802 14.6975 1.00754 15.2763 1.18677 15.8228C1.36599 16.3693 1.66144 16.8705 2.05286 17.2919C2.44428 17.7133 2.92228 18.045 3.4541 18.264C3.7031 18.374 3.79821 18.554 3.71521 18.764C3.69442 18.8148 3.66256 18.8604 3.62195 18.8975C3.58133 18.9345 3.53292 18.962 3.48035 18.978C3.42777 18.994 3.37234 18.9981 3.31799 18.9899C3.26365 18.9818 3.21173 18.9616 3.16614 18.931C2.39181 18.6127 1.71739 18.092 1.2135 17.4234C0.70961 16.7548 0.394787 15.963 0.302124 15.131C0.294124 15.078 0.280188 15.031 0.268188 14.974L0.26416 14.172Z" fill="#828282"/>
<path d="M18.8429 11.6691C18.7979 11.8691 18.7609 12.0821 18.7049 12.2841C18.4827 13.0817 17.9941 13.7793 17.3205 14.2608C16.6469 14.7423 15.8288 14.9788 15.0022 14.9309C14.1755 14.883 13.3902 14.5536 12.7767 13.9975C12.1632 13.4414 11.7585 12.692 11.63 11.874C11.4949 11.0488 11.6534 10.2024 12.078 9.48207C13.0026 7.8754 13.9292 6.27009 14.8579 4.66609C15.0579 4.32209 15.3719 4.32109 15.5699 4.66609C16.4946 6.26609 17.4182 7.86608 18.3409 9.46608C18.589 9.88895 18.7489 10.3577 18.8109 10.8441C18.8191 10.8903 18.8298 10.936 18.8429 10.9811V11.6691ZM15.2189 5.52308C15.2041 5.5366 15.1904 5.55133 15.1779 5.56709C14.3299 7.03709 13.4659 8.49706 12.6409 9.98005C12.3619 10.5013 12.2525 11.0967 12.3282 11.6831C12.4039 12.2695 12.6607 12.8177 13.0629 13.2511C13.543 13.7814 14.2021 14.1156 14.9137 14.1894C15.6252 14.2632 16.339 14.0714 16.9177 13.6508C17.4964 13.2303 17.8992 12.6107 18.0488 11.9111C18.1983 11.2116 18.084 10.4814 17.7279 9.86104C16.9279 8.44104 16.1008 7.03506 15.2858 5.62306C15.2718 5.59306 15.2469 5.56508 15.2189 5.52308Z" fill="#828282"/>
<path d="M9.66105 0.710022C9.76135 0.800548 9.85215 0.901056 9.93204 1.01001C10.542 2.05301 11.152 3.09501 11.745 4.14801C11.9477 4.49202 12.066 4.87921 12.09 5.27777C12.1141 5.67633 12.0432 6.07491 11.8833 6.4408C11.7235 6.80669 11.4791 7.12949 11.1703 7.38263C10.8615 7.63577 10.4971 7.81205 10.107 7.89703C9.63981 8.01895 9.14675 7.99711 8.69218 7.83441C8.23761 7.67171 7.84269 7.37571 7.559 6.98505C7.24261 6.61917 7.0469 6.16451 6.99857 5.68323C6.95025 5.20195 7.05165 4.71749 7.28898 4.29602C7.89598 3.14202 8.58 2.029 9.236 0.895996C9.29538 0.822062 9.36513 0.757069 9.44303 0.703003L9.66105 0.710022ZM9.54801 1.79401C8.98001 2.79401 8.39796 3.73105 7.89896 4.71405C7.74018 5.02246 7.68377 5.37334 7.73771 5.716C7.79164 6.05867 7.95317 6.37527 8.19901 6.62C8.41919 6.89022 8.71651 7.08695 9.05131 7.18396C9.3861 7.28097 9.7425 7.27368 10.073 7.16302C10.3357 7.08718 10.5777 6.95249 10.7806 6.76917C10.9834 6.58584 11.1418 6.35868 11.2438 6.10498C11.3458 5.85129 11.3886 5.57772 11.3691 5.30499C11.3495 5.03227 11.2681 4.76757 11.131 4.53101C10.782 3.90301 10.4151 3.28405 10.0561 2.66205C9.89407 2.38505 9.73296 2.11001 9.54996 1.79401H9.54801Z" fill="#828282"/>
<path d="M4.871 19.2891L4.78494 19.228C4.71701 19.1875 4.66518 19.1248 4.63821 19.0504C4.61124 18.9761 4.61084 18.8947 4.63699 18.8201C4.65937 18.7464 4.7049 18.6818 4.76675 18.636C4.8286 18.5901 4.9035 18.5654 4.9805 18.5654C5.05749 18.5654 5.13239 18.5901 5.19424 18.636C5.25609 18.6818 5.30162 18.7464 5.324 18.8201C5.34996 18.8947 5.34937 18.976 5.32242 19.0503C5.29546 19.1246 5.24384 19.1874 5.17605 19.228L5.08999 19.2891H4.871Z" fill="#828282"/>
<path d="M7.52225 14.406C7.53753 14.7478 7.48501 15.0892 7.36771 15.4105C7.25041 15.7319 7.07063 16.0269 6.83878 16.2785C6.60693 16.53 6.32763 16.7332 6.01688 16.8762C5.70614 17.0193 5.3701 17.0995 5.02823 17.1121C4.97091 17.1178 4.91308 17.11 4.85929 17.0894C4.80549 17.0688 4.75726 17.0359 4.71842 16.9934C4.67957 16.9508 4.65118 16.8998 4.63553 16.8444C4.61988 16.7889 4.61734 16.7306 4.62821 16.674C4.65029 16.5852 4.70344 16.5071 4.77811 16.4541C4.85278 16.4011 4.944 16.3766 5.03519 16.385C5.34294 16.3746 5.64311 16.2864 5.90751 16.1285C6.1719 15.9707 6.39195 15.7483 6.54715 15.4824C6.70235 15.2164 6.7876 14.9155 6.79496 14.6076C6.80232 14.2998 6.73158 13.9951 6.58927 13.7221C6.53917 13.6274 6.51567 13.521 6.52128 13.414C6.53003 13.3407 6.56351 13.2727 6.61625 13.221C6.66898 13.1694 6.73773 13.1373 6.81119 13.13C6.88638 13.1151 6.9644 13.1256 7.03299 13.1598C7.10159 13.194 7.15691 13.25 7.19022 13.3191C7.38554 13.6499 7.49937 14.0225 7.52225 14.406Z" fill="#828282"/>
<path d="M16.665 11.315C16.6613 11.6746 16.525 12.0202 16.2821 12.2854C16.0393 12.5506 15.7069 12.7168 15.349 12.752C15.3071 12.7547 15.265 12.7547 15.2231 12.752C15.1286 12.7534 15.0372 12.7181 14.9682 12.6536C14.8992 12.5891 14.8579 12.5003 14.8529 12.406C14.8495 12.359 14.8559 12.3119 14.8713 12.2674C14.8867 12.2229 14.9108 12.182 14.9425 12.1472C14.9743 12.1124 15.0127 12.0844 15.0556 12.0649C15.0985 12.0455 15.145 12.0349 15.1921 12.034C15.3224 12.0346 15.4507 12.0009 15.5639 11.9363C15.6771 11.8716 15.7713 11.7783 15.8371 11.6657C15.9028 11.5532 15.938 11.4253 15.9386 11.2949C15.9393 11.1645 15.9056 11.0362 15.841 10.9229C15.8169 10.8807 15.8022 10.8338 15.7975 10.7854C15.7929 10.7369 15.7985 10.6881 15.8141 10.642C15.8297 10.5959 15.8548 10.5536 15.8879 10.5179C15.9209 10.4822 15.9613 10.454 16.006 10.435C16.0477 10.4129 16.0935 10.3998 16.1405 10.3964C16.1876 10.393 16.235 10.3994 16.2795 10.4152C16.3239 10.431 16.3645 10.4558 16.3988 10.4881C16.4332 10.5205 16.4604 10.5595 16.4789 10.6029C16.5675 10.8299 16.6445 11.0613 16.7099 11.296L16.665 11.315Z" fill="#828282"/>
</svg>
