<svg width="11" height="11" viewBox="0 0 11 11" fill="none" xmlns="http://www.w3.org/2000/svg">
<path d="M10.3911 7.99402V8.37901C10.3842 8.39547 10.3788 8.41255 10.3751 8.43002C10.3268 8.82894 10.16 9.2042 9.89612 9.50726C9.63227 9.81033 9.28361 10.0273 8.89514 10.13C8.79014 10.158 8.68207 10.176 8.57507 10.199H2.81616C2.7997 10.1921 2.7826 10.1867 2.76514 10.183C2.36627 10.1346 1.99103 9.96772 1.68799 9.70389C1.38494 9.44006 1.16794 9.09142 1.06506 8.70302C1.03706 8.59802 1.01909 8.49001 0.996094 8.38301V7.99802C1.00225 7.98771 1.007 7.9766 1.01013 7.96501C1.04453 7.65469 1.15199 7.35695 1.32373 7.09621C1.49547 6.83546 1.72664 6.61914 1.99817 6.46501C2.05117 6.43301 2.04816 6.39901 2.04016 6.35301C1.96564 5.9756 2.0132 5.58426 2.1759 5.23566C2.33861 4.88706 2.60792 4.59929 2.94507 4.41402C2.96804 4.40349 2.98757 4.38658 3.00122 4.36531C3.01487 4.34404 3.0221 4.3193 3.02209 4.29402C3.04568 3.89281 3.16804 3.50361 3.37817 3.16101C3.51933 2.90799 3.71424 2.68901 3.94922 2.51952C4.1842 2.35002 4.45352 2.23414 4.73816 2.18002C4.91416 2.14802 5.09715 2.15601 5.27515 2.13101C5.42896 2.12043 5.57601 2.06385 5.69727 1.96863C5.81852 1.8734 5.90833 1.74393 5.95508 1.59702C5.99462 1.4817 6.01586 1.3609 6.01807 1.23901C6.00836 1.14928 6.02851 1.05885 6.07532 0.981674C6.12213 0.9045 6.19303 0.84487 6.2771 0.812012H6.51611L6.64014 0.840012C6.92008 0.902421 7.18456 1.02068 7.41772 1.1877C7.65089 1.35471 7.84789 1.56705 7.99707 1.81201C8.22281 2.15838 8.35351 2.55805 8.37598 2.97089C8.39844 3.38372 8.31194 3.79519 8.12512 4.16402L8.08618 4.25502L8.17114 4.28801C8.58056 4.43526 8.92367 4.72431 9.13831 5.10277C9.35294 5.48123 9.42483 5.92406 9.34106 6.35101C9.33373 6.37492 9.3357 6.40071 9.34644 6.42329C9.35717 6.44588 9.376 6.46362 9.39917 6.47302C9.83454 6.7265 10.1564 7.13684 10.2991 7.62001C10.3421 7.73701 10.3631 7.86702 10.3911 7.99402ZM2.69714 6.19402C2.79114 6.18602 2.87809 6.17301 2.96509 6.17201C3.31642 6.17201 3.66814 6.17201 4.02014 6.17201C4.06867 6.17257 4.11659 6.18276 4.16113 6.20201C4.22959 6.2338 4.28517 6.28791 4.31885 6.35545C4.35253 6.423 4.36224 6.49997 4.34644 6.57378C4.33063 6.64758 4.29032 6.71383 4.23193 6.76166C4.17354 6.80948 4.10062 6.83606 4.02515 6.83702C3.67615 6.83702 3.3251 6.83702 2.9801 6.83702C2.62471 6.84339 2.28647 6.99066 2.03967 7.24646C1.79287 7.50226 1.6577 7.84563 1.66406 8.20102C1.67043 8.55641 1.81781 8.89471 2.07361 9.14151C2.32941 9.38831 2.67269 9.52338 3.02808 9.51701C4.80741 9.51701 6.58645 9.51701 8.36511 9.51701C8.40511 9.51701 8.44413 9.51701 8.48413 9.51701C8.83267 9.49108 9.15731 9.3301 9.38892 9.06836C9.62052 8.80662 9.74081 8.46479 9.72412 8.11569C9.70744 7.76659 9.55507 7.4378 9.29956 7.19934C9.04405 6.96088 8.7055 6.83159 8.35608 6.83902C8.03808 6.83902 7.7201 6.83902 7.4021 6.83902C7.35565 6.84343 7.3088 6.83809 7.26453 6.82333C7.22026 6.80858 7.17954 6.78474 7.14502 6.75334C7.1105 6.72194 7.08296 6.68368 7.06409 6.64101C7.04521 6.59833 7.0354 6.55219 7.0354 6.50552C7.0354 6.45886 7.04521 6.4127 7.06409 6.37003C7.08296 6.32735 7.1105 6.28909 7.14502 6.25769C7.17954 6.22629 7.22026 6.20245 7.26453 6.1877C7.3088 6.17294 7.35565 6.1676 7.4021 6.17201C7.7261 6.17201 8.05015 6.17201 8.37415 6.17201C8.48015 6.17201 8.58506 6.18502 8.69006 6.19202C8.69501 6.18242 8.69911 6.17238 8.70215 6.16202C8.72439 6.0068 8.71501 5.84869 8.67468 5.69716C8.63435 5.54563 8.56386 5.4038 8.46741 5.28017C8.37095 5.15654 8.25057 5.05365 8.1134 4.97768C7.97623 4.9017 7.82504 4.85419 7.66907 4.83801C7.45307 4.82101 7.23507 4.83202 7.01807 4.82402C6.9752 4.82235 6.93309 4.81221 6.89417 4.79419C6.85524 4.77617 6.82026 4.7506 6.79126 4.71899C6.76226 4.68739 6.73984 4.65036 6.72522 4.61003C6.7106 4.5697 6.70416 4.52686 6.70618 4.48401C6.70743 4.39906 6.7413 4.31788 6.8009 4.25734C6.86051 4.1968 6.9412 4.16158 7.02612 4.15901C7.07165 4.15395 7.11756 4.15395 7.16309 4.15901C7.33209 4.19101 7.41818 4.11201 7.48718 3.95901C7.66029 3.65512 7.73741 3.30599 7.7085 2.95744C7.67958 2.6089 7.54588 2.27723 7.32507 2.00601C7.15887 1.78987 6.93552 1.62463 6.68018 1.52902C6.67508 1.53588 6.67067 1.54324 6.66711 1.55101C6.66111 1.57501 6.65515 1.59801 6.65015 1.62201C6.60404 1.8492 6.50384 2.06196 6.35815 2.24228C6.21247 2.4226 6.02554 2.5652 5.81311 2.65802C5.57102 2.76231 5.30972 2.81444 5.04614 2.81102C4.74309 2.81329 4.45302 2.93427 4.23816 3.14801C4.00112 3.37193 3.83288 3.65883 3.75317 3.97502C3.73717 4.03402 3.72616 4.09502 3.71216 4.15402H4.33313C4.37842 4.15117 4.42382 4.15757 4.46655 4.17284C4.50929 4.18811 4.54844 4.21193 4.58167 4.24284C4.61489 4.27376 4.64149 4.31111 4.65979 4.35263C4.67809 4.39415 4.6877 4.43897 4.68811 4.48434C4.68852 4.52972 4.67966 4.57472 4.66211 4.61656C4.64456 4.65841 4.61872 4.69623 4.58606 4.72774C4.5534 4.75924 4.51462 4.78377 4.47217 4.7998C4.42972 4.81584 4.38444 4.82306 4.33911 4.82101C4.18611 4.82101 4.0331 4.82101 3.8811 4.82101C3.70942 4.81617 3.5388 4.84954 3.38159 4.91872C3.22438 4.9879 3.08458 5.09116 2.97217 5.22102C2.85362 5.35093 2.76698 5.50671 2.71924 5.67598C2.6715 5.84524 2.66395 6.02331 2.69714 6.19601V6.19402Z" fill="#828282"/>
</svg>
