<svg width="16" height="22" viewBox="0 0 16 22" fill="none" xmlns="http://www.w3.org/2000/svg">
<path d="M7.87401 6.56302C8.52339 6.56401 9.15846 6.37234 9.69886 6.01227C10.2393 5.65219 10.6607 5.1399 10.9098 4.54023C11.159 3.94055 11.2246 3.28044 11.0985 2.64344C10.9723 2.00644 10.66 1.42117 10.2012 0.961716C9.74226 0.50226 9.15737 0.189262 8.52053 0.0623322C7.88368 -0.0645973 7.22349 0.000247285 6.62351 0.24866C6.02353 0.497073 5.51072 0.917887 5.14999 1.45785C4.78926 1.99781 4.59682 2.63265 4.59701 3.28202C4.59701 4.1515 4.94214 4.98543 5.55658 5.60063C6.17102 6.21582 7.00453 6.56196 7.87401 6.56302ZM5.68301 16.769L6.73301 15.456L4.21001 13.356L2.32801 15.711C2.10091 15.9952 1.97447 16.3467 1.9685 16.7104C1.96252 17.0741 2.07736 17.4295 2.29501 17.721L4.26401 20.346C4.39155 20.523 4.55308 20.6728 4.73918 20.7866C4.92528 20.9004 5.1322 20.976 5.34785 21.0089C5.56349 21.0417 5.78353 21.0313 5.9951 20.9782C6.20667 20.925 6.40552 20.8303 6.58002 20.6994C6.75452 20.5685 6.90118 20.4041 7.01141 20.2159C7.12164 20.0276 7.19323 19.8193 7.222 19.6031C7.25077 19.3868 7.23614 19.167 7.17897 18.9565C7.12179 18.746 7.02322 18.549 6.88901 18.377L5.68301 16.769ZM11.537 13.356L9.01401 15.456L10.064 16.769L8.85801 18.377C8.60674 18.7257 8.50229 19.159 8.56711 19.5839C8.63193 20.0088 8.86085 20.3913 9.20466 20.6492C9.54847 20.9071 9.97974 21.0198 10.4058 20.9631C10.8318 20.9064 11.2186 20.6848 11.483 20.346L13.452 17.721C13.6697 17.4295 13.7845 17.0741 13.7785 16.7104C13.7726 16.3467 13.6461 15.9952 13.419 15.711L11.537 13.356ZM15.45 5.94802C15.1996 5.59256 14.8185 5.35085 14.3902 5.27588C13.9619 5.2009 13.5213 5.29876 13.165 5.54802L11.497 6.71502C10.433 7.45597 9.16758 7.85318 7.87101 7.85318C6.57445 7.85318 5.309 7.45597 4.24501 6.71502L2.58201 5.55002C2.22588 5.31285 1.79117 5.22425 1.37063 5.30313C0.950084 5.38201 0.577022 5.62213 0.331048 5.97223C0.0850741 6.32234 -0.0143333 6.75471 0.0540388 7.17709C0.122411 7.59946 0.353148 7.97839 0.697012 8.23302L2.36101 9.40002C3.0537 9.87702 3.8053 10.2622 4.59701 10.546V11.814H11.16V10.55C11.9485 10.2662 12.697 9.88164 13.387 9.40602L15.052 8.23702C15.4081 7.98606 15.65 7.60405 15.7246 7.17487C15.7992 6.74569 15.7005 6.30444 15.45 5.94802Z" fill="#828282"/>
</svg>
