<svg width="21" height="22" viewBox="0 0 21 22" fill="none" xmlns="http://www.w3.org/2000/svg">
<path d="M20.434 19.663L14.803 13.982C16.0792 12.3733 16.6903 10.3365 16.5104 8.29096C16.3306 6.24537 15.3735 4.34653 13.8361 2.98516C12.2988 1.6238 10.2981 0.903478 8.24578 0.972425C6.19346 1.04137 4.24563 1.89434 2.80311 3.35581C1.36059 4.81729 0.533109 6.77608 0.490951 8.82913C0.448793 10.8822 1.19516 12.8733 2.57647 14.3927C3.95779 15.9122 5.86896 16.8444 7.91672 16.9976C9.96448 17.1507 11.993 16.5131 13.585 15.216L19.18 20.863C19.3382 21.029 19.5557 21.1255 19.7849 21.1315C20.0141 21.1375 20.2363 21.0525 20.403 20.895C20.5703 20.7357 20.6676 20.5164 20.6734 20.2854C20.6792 20.0544 20.5931 19.8306 20.434 19.663ZM8.49599 15.282C7.02993 15.2817 5.60932 14.7732 4.4762 13.8429C3.34307 12.9127 2.56753 11.6184 2.28171 10.1804C1.9959 8.74251 2.21749 7.24997 2.90873 5.95711C3.59998 4.66424 4.7181 3.65105 6.07262 3.09014C7.42713 2.52924 8.93422 2.45533 10.3371 2.88101C11.74 3.30669 12.9519 4.20562 13.7663 5.42464C14.5808 6.64367 14.9473 8.10736 14.8036 9.56635C14.6598 11.0253 14.0147 12.3894 12.978 13.426C12.3906 14.0162 11.6921 14.4841 10.9228 14.8027C10.1535 15.1213 9.32865 15.2842 8.49599 15.282Z" fill="#828282"/>
</svg>
