<svg width="32" height="30" viewBox="0 0 32 30" fill="none" xmlns="http://www.w3.org/2000/svg">
<path d="M28.6051 26.426C28.6051 26.978 28.6051 27.482 28.6051 27.987C28.6196 28.1158 28.6084 28.2462 28.5721 28.3706C28.5358 28.4951 28.4752 28.611 28.3937 28.7118C28.3122 28.8126 28.2114 28.8961 28.0973 28.9576C27.9832 29.0191 27.8581 29.0573 27.7291 29.07C26.9721 29.17 26.4902 28.916 26.3212 28.288C26.1582 27.683 26.0212 27.07 25.8712 26.444H6.13097C5.99797 27.01 5.87307 27.58 5.73107 28.144C5.6977 28.3282 5.62168 28.502 5.50915 28.6515C5.39661 28.8011 5.25059 28.9223 5.08288 29.0053C4.91516 29.0884 4.73049 29.1311 4.54333 29.13C4.35616 29.1289 4.17172 29.0841 4.005 28.999C3.8205 28.9271 3.66345 28.799 3.55578 28.6328C3.4481 28.4666 3.3954 28.2708 3.40514 28.073C3.39914 27.805 3.39711 27.537 3.39611 27.273C3.39511 27.009 3.39611 26.74 3.39611 26.429C3.05611 26.429 2.74114 26.429 2.42614 26.429C2.15921 26.4443 1.89212 26.4031 1.6422 26.3081C1.39229 26.2131 1.16504 26.0664 0.975699 25.8776C0.786361 25.6889 0.639086 25.4623 0.543326 25.2126C0.447566 24.963 0.405524 24.696 0.420035 24.429C0.420035 17.0777 0.420035 9.72667 0.420035 2.376C0.397895 2.01122 0.518251 1.65212 0.755728 1.37435C0.993205 1.09658 1.3292 0.921854 1.69298 0.887018C2.03038 0.856678 2.36727 0.95151 2.63927 1.15344C2.91127 1.35536 3.09948 1.65028 3.16808 1.98202C3.20729 2.25751 3.2183 2.53628 3.20104 2.81402C3.20104 3.01402 3.27499 3.10202 3.47399 3.09002C3.56699 3.08502 3.66004 3.09002 3.75304 3.09002H28.1881C28.8881 3.09002 28.8022 3.146 28.8092 2.484C28.803 2.30918 28.8153 2.1342 28.8461 1.962C28.9234 1.63815 29.1145 1.35279 29.3844 1.15777C29.6543 0.96275 29.985 0.871022 30.3168 0.899225C30.6485 0.927427 30.9592 1.07371 31.1923 1.31149C31.4253 1.54926 31.5654 1.86274 31.587 2.195C31.596 2.308 31.587 2.42203 31.587 2.53503C31.587 9.78303 31.587 17.031 31.587 24.279C31.6224 24.5684 31.5918 24.8621 31.4972 25.1378C31.4026 25.4136 31.2467 25.6643 31.0411 25.8711C30.8356 26.0778 30.5857 26.2352 30.3104 26.3313C30.0352 26.4274 29.7416 26.4598 29.452 26.426H28.6051ZM15.9891 25.684H29.4762C29.6615 25.7123 29.8507 25.6969 30.0289 25.6388C30.2072 25.5808 30.3695 25.4818 30.5026 25.3498C30.6356 25.2177 30.736 25.0563 30.7955 24.8786C30.855 24.7008 30.8719 24.5115 30.8451 24.326C30.8451 17.0593 30.8451 9.79034 30.8451 2.51901C30.8484 2.42632 30.8469 2.33353 30.8402 2.24102C30.8277 2.0749 30.7516 1.91994 30.628 1.80825C30.5044 1.69656 30.3427 1.63669 30.1761 1.64102C30.0095 1.6449 29.851 1.71343 29.734 1.83212C29.617 1.95081 29.5507 2.11034 29.5492 2.277C29.5422 2.4 29.5492 2.524 29.5492 2.648C29.5492 3.548 29.2581 3.83602 28.3671 3.83602H3.65221C3.55921 3.83602 3.46614 3.83602 3.37414 3.83602C3.25222 3.83857 3.13111 3.81614 3.01818 3.77014C2.90525 3.72413 2.80282 3.65552 2.7174 3.56851C2.63197 3.48149 2.56527 3.37791 2.52135 3.26415C2.47744 3.1504 2.45723 3.02885 2.46203 2.90701C2.45503 2.69101 2.46817 2.47302 2.45617 2.25802C2.45046 2.09672 2.38466 1.94335 2.27184 1.82794C2.15902 1.71252 2.00718 1.64339 1.84606 1.63403C1.68471 1.62786 1.52691 1.68149 1.4027 1.78466C1.27849 1.88783 1.19676 2.03327 1.17321 2.19302C1.16005 2.30551 1.15583 2.41887 1.161 2.53201V24.308C1.12976 24.496 1.14393 24.6888 1.20202 24.8704C1.2601 25.0519 1.36065 25.217 1.49523 25.352C1.62982 25.487 1.79457 25.5879 1.97594 25.6465C2.15732 25.7052 2.35008 25.7197 2.5382 25.689L15.9891 25.684ZM4.1422 26.443C4.1422 26.974 4.1422 27.485 4.1422 27.995C4.1422 28.17 4.17714 28.335 4.40514 28.331C4.63314 28.327 4.90012 28.413 4.97912 28.076C5.10612 27.539 5.23308 27.001 5.36608 26.442L4.1422 26.443ZM27.859 26.443H26.6371C26.7701 27.003 26.898 27.543 27.024 28.077C27.098 28.394 27.349 28.326 27.568 28.334C27.6066 28.3406 27.6463 28.338 27.6837 28.3265C27.7211 28.315 27.7553 28.2949 27.7836 28.2678C27.8118 28.2406 27.8331 28.2072 27.8461 28.1703C27.859 28.1333 27.8631 28.0938 27.858 28.055C27.861 27.523 27.858 26.989 27.858 26.443H27.859Z" fill="white" stroke="white" stroke-width="0.5" stroke-linejoin="round"/>
<path d="M15.522 12.195C15.522 14.195 15.522 16.195 15.522 18.195C15.522 19.009 15.222 19.304 14.397 19.304C13.1083 19.304 11.8197 19.304 10.531 19.304C9.78301 19.304 9.46216 18.981 9.46216 18.225C9.46216 14.215 9.46216 10.2047 9.46216 6.194C9.46216 5.416 9.7751 5.10201 10.5481 5.10101C11.8468 5.10101 13.1467 5.10101 14.448 5.10101C15.211 5.10101 15.5242 5.41 15.5242 6.164C15.5235 8.174 15.5226 10.1843 15.522 12.195ZM14.7791 12.203C14.7791 10.194 14.7791 8.18502 14.7791 6.17502C14.7791 5.92102 14.704 5.83501 14.446 5.83801C13.1474 5.84868 11.849 5.84868 10.551 5.83801C10.283 5.83801 10.1941 5.916 10.1941 6.189C10.2014 10.197 10.2014 14.205 10.1941 18.213C10.1941 18.483 10.2771 18.569 10.5481 18.566C11.8261 18.554 13.1031 18.551 14.3811 18.566C14.6951 18.566 14.781 18.48 14.781 18.166C14.773 16.18 14.7791 14.191 14.7791 12.203Z" fill="white" stroke="white" stroke-width="0.5" stroke-linejoin="round"/>
<path d="M16.48 12.187C16.48 10.187 16.48 8.18698 16.48 6.18698C16.48 5.40698 16.785 5.09998 17.563 5.09998C18.8617 5.09998 20.1616 5.09998 21.4629 5.09998C22.2189 5.09998 22.5398 5.41799 22.5398 6.17099C22.5398 10.191 22.5398 14.211 22.5398 18.231C22.5398 18.982 22.2159 19.302 21.4639 19.303C20.1546 19.303 18.8456 19.303 17.5369 19.303C16.8019 19.303 16.4849 18.984 16.4839 18.247C16.4799 16.227 16.4787 14.207 16.48 12.187ZM21.7949 12.223C21.7949 10.212 21.7949 8.20098 21.7949 6.19098C21.7949 5.91898 21.709 5.83598 21.439 5.83798C20.1503 5.84932 18.8614 5.84932 17.572 5.83798C17.313 5.83798 17.211 5.89599 17.211 6.17999C17.219 10.1913 17.219 14.2027 17.211 18.214C17.211 18.484 17.2868 18.57 17.5608 18.567C18.8398 18.555 20.118 18.552 21.396 18.567C21.715 18.567 21.7959 18.467 21.7959 18.161C21.7889 16.183 21.7949 14.203 21.7949 12.223Z" fill="white" stroke="white" stroke-width="0.5" stroke-linejoin="round"/>
<path d="M8.51693 12.2C8.51693 14.2206 8.51693 16.2413 8.51693 18.262C8.51693 18.976 8.19207 19.303 7.48007 19.304C6.23273 19.304 4.98546 19.304 3.73812 19.304C3.56485 19.3231 3.38937 19.3029 3.22494 19.2451C3.06051 19.1872 2.91129 19.0931 2.78817 18.9697C2.66505 18.8462 2.57124 18.6967 2.51376 18.5322C2.45627 18.3676 2.43664 18.1922 2.45614 18.019C2.45614 14.143 2.45614 10.267 2.45614 6.39098C2.43554 6.21779 2.45412 6.04218 2.51083 5.87724C2.56754 5.71231 2.66078 5.5623 2.78353 5.4384C2.90628 5.3145 3.05542 5.21989 3.21981 5.16164C3.38421 5.10339 3.55962 5.083 3.733 5.10198C4.98033 5.10198 6.22761 5.10198 7.47494 5.10198C8.19294 5.10198 8.51593 5.42696 8.51693 6.13896C8.51826 8.15896 8.51826 10.1793 8.51693 12.2ZM7.77499 12.2C7.77499 10.19 7.77499 8.17896 7.77499 6.16896C7.77499 5.90996 7.695 5.83197 7.441 5.83397C6.214 5.84397 4.9871 5.83398 3.7601 5.83898C3.3151 5.83898 3.19393 5.96397 3.19393 6.41097C3.19393 10.267 3.19393 14.1226 3.19393 17.978C3.19393 18.437 3.31595 18.555 3.78695 18.556C4.99395 18.556 6.20009 18.549 7.40609 18.562C7.68409 18.562 7.77916 18.493 7.77816 18.199C7.76916 16.205 7.77499 14.205 7.77499 12.205V12.2Z" fill="white" stroke="white" stroke-width="0.5" stroke-linejoin="round"/>
<path d="M23.4833 12.202C23.4833 10.182 23.4833 8.1617 23.4833 6.14103C23.4588 5.99919 23.4688 5.85353 23.5123 5.71632C23.5558 5.57911 23.6313 5.45434 23.733 5.35246C23.8347 5.25058 23.9594 5.17459 24.0965 5.13084C24.2337 5.08709 24.3792 5.07687 24.5211 5.10103C25.7684 5.10103 27.016 5.10103 28.2633 5.10103C28.4366 5.08201 28.612 5.10226 28.7765 5.16032C28.9409 5.21838 29.09 5.31274 29.213 5.43638C29.336 5.56003 29.4295 5.70978 29.4867 5.87452C29.5438 6.03927 29.563 6.21478 29.5431 6.38801C29.5431 10.264 29.5431 14.1397 29.5431 18.015C29.563 18.1882 29.5438 18.3636 29.4867 18.5283C29.4296 18.693 29.3361 18.8428 29.2132 18.9665C29.0904 19.0902 28.9415 19.1847 28.7772 19.2429C28.6129 19.3012 28.4376 19.3217 28.2643 19.303C27.0169 19.303 25.7694 19.303 24.5221 19.303C24.3802 19.3272 24.2346 19.317 24.0975 19.2732C23.9604 19.2295 23.8359 19.1535 23.7342 19.0516C23.6326 18.9497 23.5568 18.8249 23.5133 18.6877C23.4698 18.5505 23.4598 18.4049 23.4842 18.263C23.4829 16.243 23.4826 14.2227 23.4833 12.202ZM24.2262 12.202C24.2262 14.202 24.2321 16.202 24.2191 18.202C24.2191 18.495 24.3122 18.568 24.5902 18.565C25.7962 18.552 27.0021 18.565 28.2081 18.559C28.6781 18.559 28.8002 18.439 28.8002 17.98C28.8002 14.1247 28.8002 10.2693 28.8002 6.41401C28.8002 5.96601 28.6782 5.84102 28.2342 5.84102C27.0182 5.84102 25.8013 5.84803 24.5853 5.83503C24.3013 5.83503 24.2171 5.91602 24.2191 6.20302C24.2311 8.20502 24.2252 10.205 24.2252 12.204L24.2262 12.202Z" fill="white" stroke="white" stroke-width="0.5" stroke-linejoin="round"/>
</svg>
