<svg width="19" height="20" viewBox="0 0 19 20" fill="none" xmlns="http://www.w3.org/2000/svg">
<path d="M9.474 0.375008C7.59883 0.376787 5.76627 0.934468 4.20799 1.97755C2.6497 3.02064 1.43564 4.5023 0.719274 6.23525C0.00290805 7.9682 -0.183603 9.87463 0.183316 11.7136C0.550236 13.5525 1.45411 15.2414 2.78069 16.5667C4.10727 17.892 5.79699 18.7943 7.63627 19.1594C9.47555 19.5246 11.3818 19.3363 13.1141 18.6183C14.8463 17.9003 16.3268 16.6848 17.3685 15.1255C18.4101 13.5663 18.966 11.7332 18.966 9.85801C18.9664 8.61181 18.7211 7.37777 18.2441 6.22647C17.7671 5.07518 17.0678 4.02922 16.1862 3.14845C15.3046 2.26767 14.258 1.56936 13.1062 1.09347C11.9545 0.617573 10.7202 0.37343 9.474 0.375008ZM9.483 17.445C7.98244 17.445 6.51557 17 5.26789 16.1664C4.02022 15.3327 3.04777 14.1478 2.47353 12.7614C1.89929 11.3751 1.74904 9.84959 2.04179 8.37786C2.33453 6.90612 3.05712 5.55425 4.11819 4.49319C5.17925 3.43213 6.53112 2.70954 8.00285 2.41679C9.47459 2.12404 11.0001 2.27429 12.3864 2.84853C13.7728 3.42278 14.9577 4.39522 15.7914 5.6429C16.625 6.89057 17.07 8.35744 17.07 9.85801C17.07 11.8702 16.2707 13.8 14.8478 15.2228C13.425 16.6457 11.4952 17.445 9.483 17.445Z" fill="#828282"/>
<path d="M9.95691 5.11707H8.53491V10.8071L13.5139 13.7931L14.2249 12.6261L9.95791 10.0961L9.95691 5.11707Z" fill="#828282"/>
</svg>
