<svg width="21" height="22" viewBox="0 0 21 22" fill="none" xmlns="http://www.w3.org/2000/svg">
<path d="M10.415 11.956C11.5654 11.956 12.6901 11.6148 13.6466 10.9757C14.6032 10.3366 15.3488 9.42812 15.7891 8.36526C16.2294 7.3024 16.3447 6.13285 16.1203 5.00449C15.8959 3.87613 15.342 2.83964 14.5286 2.02608C13.7152 1.21251 12.6788 0.65842 11.5505 0.433857C10.4221 0.209294 9.25256 0.324347 8.18962 0.764469C7.12669 1.20459 6.21813 1.95001 5.57883 2.90648C4.93953 3.86295 4.5982 4.98751 4.598 6.13796C4.59826 7.68074 5.21118 9.16026 6.30199 10.2513C7.3928 11.3423 8.87222 11.9554 10.415 11.956ZM15.586 13.249H13.36C12.4366 13.6748 11.4319 13.8954 10.415 13.8954C9.39814 13.8954 8.39338 13.6748 7.47 13.249H5.244C4.56485 13.249 3.89235 13.3827 3.26491 13.6427C2.63747 13.9026 2.06738 14.2836 1.5872 14.7639C1.10701 15.2441 0.726138 15.8143 0.46633 16.4418C0.206522 17.0693 0.0728668 17.7418 0.0729981 18.421V19.067C0.0732631 19.5811 0.277635 20.0742 0.641211 20.4377C1.00479 20.8013 1.49782 21.0057 2.012 21.006H18.818C19.3322 21.0057 19.8252 20.8013 20.1888 20.4377C20.5524 20.0742 20.7567 19.5811 20.757 19.067V18.421C20.7573 17.7417 20.6237 17.0691 20.364 16.4415C20.1042 15.8139 19.7234 15.2436 19.2432 14.7632C18.763 14.2828 18.1928 13.9018 17.5653 13.6418C16.9378 13.3818 16.2652 13.248 15.586 13.248V13.249Z" fill="#828282"/>
</svg>
