<svg width="30" height="30" viewBox="0 0 30 30" fill="none" xmlns="http://www.w3.org/2000/svg">
<path d="M9.10189 2.34301C8.95313 2.11496 8.75907 1.91993 8.53175 1.77004C8.30444 1.62015 8.04873 1.51861 7.78051 1.47172C7.5123 1.42483 7.2373 1.43359 6.97262 1.49746C6.70793 1.56134 6.45921 1.67895 6.24189 1.84301C4.75671 3.00107 3.55324 4.48062 2.72188 6.17052C1.89053 7.86041 1.45291 9.71672 1.44189 11.6H14.9849L9.10189 2.34301ZM27.6809 6.52101H25.1419C24.2441 6.52181 23.3833 6.8788 22.7485 7.51362C22.1137 8.14845 21.7567 9.00923 21.7559 9.90701V13.293H1.44189C1.46075 14.6044 1.75439 15.8973 2.30385 17.0882C2.85332 18.2791 3.6464 19.3416 4.63189 20.207C3.86527 20.403 3.16905 20.8103 2.62245 21.3824C2.07586 21.9546 1.70084 22.6687 1.54007 23.4435C1.37929 24.2182 1.43923 25.0226 1.71304 25.765C1.98685 26.5074 2.46356 27.158 3.08891 27.6429C3.71426 28.1277 4.46314 28.4273 5.25035 28.5075C6.03756 28.5877 6.83148 28.4454 7.54178 28.0967C8.25207 27.7479 8.85022 27.2068 9.26817 26.5349C9.68611 25.863 9.90707 25.0873 9.90589 24.296C9.89949 23.8421 9.82084 23.3922 9.67289 22.963C12.0416 23.612 14.5412 23.612 16.9099 22.963C16.7594 23.3915 16.6807 23.8419 16.6769 24.296C16.6745 25.0888 16.8949 25.8663 17.3128 26.5399C17.7308 27.2135 18.3296 27.7562 19.0409 28.1062C19.7523 28.4561 20.5476 28.5992 21.3363 28.5191C22.125 28.439 22.8754 28.139 23.5019 27.6532C24.1285 27.1675 24.6059 26.5155 24.88 25.7716C25.154 25.0277 25.2136 24.2218 25.052 23.4457C24.8903 22.6696 24.5139 21.9545 23.9656 21.3819C23.4173 20.8093 22.7193 20.4022 21.9509 20.207C22.9366 19.3417 23.7298 18.2793 24.2795 17.0884C24.8291 15.8974 25.1229 14.6045 25.1419 13.293V9.90701H27.6809C27.905 9.90622 28.1197 9.81683 28.2782 9.65835C28.4367 9.49987 28.5261 9.28514 28.5269 9.06101V7.36801C28.5264 7.14371 28.4371 6.92873 28.2786 6.77003C28.1201 6.61133 27.9052 6.5218 27.6809 6.52101ZM5.67389 25.989C5.33905 25.989 5.01173 25.8897 4.73331 25.7037C4.4549 25.5177 4.23791 25.2532 4.10977 24.9439C3.98163 24.6345 3.9481 24.2941 4.01343 23.9657C4.07875 23.6373 4.23999 23.3356 4.47676 23.0989C4.71353 22.8621 5.0152 22.7009 5.34361 22.6355C5.67202 22.5702 6.01242 22.6037 6.32178 22.7319C6.63113 22.86 6.89554 23.077 7.08157 23.3554C7.2676 23.6338 7.36689 23.9612 7.36689 24.296C7.36505 24.7445 7.18609 25.174 6.86899 25.4911C6.55189 25.8082 6.12234 25.9872 5.67389 25.989V25.989ZM22.6019 24.296C22.6019 24.6309 22.5026 24.9582 22.3166 25.2366C22.1305 25.515 21.8661 25.732 21.5568 25.8601C21.2474 25.9883 20.907 26.0218 20.5786 25.9565C20.2502 25.8912 19.9485 25.7299 19.7118 25.4931C19.475 25.2564 19.3137 24.9547 19.2484 24.6263C19.1831 24.2979 19.2166 23.9575 19.3448 23.6481C19.4729 23.3388 19.6899 23.0744 19.9683 22.8883C20.2467 22.7023 20.574 22.603 20.9089 22.603C21.3573 22.6049 21.7869 22.7838 22.104 23.1009C22.4211 23.418 22.6001 23.8476 22.6019 24.296V24.296Z" stroke="white" stroke-linejoin="round"/>
</svg>
